<svg width="844" height="397" viewBox="0 0 844 397" fill="none" xmlns="http://www.w3.org/2000/svg">
<g clip-path="url(#clip0)">
<rect width="844" height="397" fill="white"/>
<g filter="url(#filter0_d)">
<path d="M62.5576 290.523C80.3247 254.527 131.325 201.211 193.192 275.914C270.525 369.292 306.326 183.509 369.09 251.542C431.855 319.575 476.077 124.16 592.09 249.165C708.103 374.169 724.709 146.387 820.217 253.463" stroke="#79FFD6" stroke-width="4"/>
</g>
<g filter="url(#filter1_d)">
<path d="M769.72 230.125C750.762 263.94 698.465 312.075 640.937 234.093C569.028 136.615 526.025 315.561 467.334 244.034C408.642 172.507 356.969 360.212 248.453 228.732C139.937 97.2526 113.984 318.81 24.8251 206.493" stroke="url(#paint0_linear)" stroke-width="4"/>
</g>
<g filter="url(#filter2_d)">
<rect x="157.034" y="24.4867" width="569.373" height="341.624" rx="44" fill="white"/>
</g>
<rect x="164.719" y="32.1714" width="554.004" height="326.953" rx="44" fill="#F8F8F8"/>
<g clip-path="url(#clip1)">
<path d="M395.97 173.815L434.314 317.497H438.125L399.781 173.815H395.97Z" fill="#0D5BD9"/>
<path d="M440.552 173.815L478.896 317.497H482.706L444.363 173.815H440.552Z" fill="#0D5BD9"/>
<path d="M403.827 194.534L404.323 197.65H448.435L447.939 194.534H403.827Z" fill="#0D5BD9"/>
<path d="M410.718 220.446L411.188 223.535H455.3L454.83 220.446H410.718Z" fill="#0D5BD9"/>
<path d="M417.609 246.331L418.078 249.421H462.191L461.721 246.331H417.609Z" fill="#0D5BD9"/>
<path d="M424.473 272.243L424.969 275.333H469.081L468.585 272.243H424.473Z" fill="#0D5BD9"/>
<path d="M431.364 298.129L431.86 301.244H475.972L475.476 298.129H431.364Z" fill="#0D5BD9"/>
<path d="M350.109 317.497H353.894L392.238 173.815H388.453L350.109 317.497Z" fill="#7BC3F4"/>
<path d="M393.229 317.497H397.04L435.384 173.815H431.599L393.229 317.497Z" fill="#7BC3F4"/>
<path d="M356.27 302.984H398.92L399.416 299.894H356.765L356.27 302.984Z" fill="#7BC3F4"/>
<path d="M363.16 277.098H405.811L406.307 274.008H363.63L363.16 277.098Z" fill="#7BC3F4"/>
<path d="M370.025 251.186H412.702L413.198 248.097H370.521L370.025 251.186Z" fill="#7BC3F4"/>
<path d="M376.916 225.301H419.592L420.088 222.211H377.412L376.916 225.301Z" fill="#7BC3F4"/>
<path d="M383.807 199.389H426.483L426.953 196.3H384.303L383.807 199.389Z" fill="#7BC3F4"/>
<path d="M450.967 166.078H410.326V173.815H450.967V166.078Z" fill="#0D5BD9"/>
<path d="M439.247 166.078H383.572V173.815H439.247V166.078Z" fill="#7BC3F4"/>
<path d="M352.955 216.993C352.955 216.993 349.17 202.167 342.801 201.57C336.458 200.973 332.465 202.012 332.465 202.012C332.465 202.012 337.346 193.522 331.134 185.525C324.921 177.528 307.381 166.779 292.738 155.044C292.712 155.044 292.712 155.044 292.712 155.044C292.712 155.044 292.712 155.07 292.738 155.096C293.208 156.186 302.03 176.853 301.586 200.817C301.116 227.04 340.269 210.969 330.638 275.956C326.54 303.503 312.053 311.24 310.383 326.507C309.991 330.038 310.304 334.01 311.583 338.71C311.583 338.71 351.963 296.778 354.208 232.778L345.49 234.959L352.955 216.993Z" fill="#0D5BD9"/>
<path d="M349.039 281.226C342.253 288.496 316.021 333.231 339.434 333.231C347.343 333.231 362.012 313.992 372.844 300.517C382.215 288.834 396.362 290.599 396.362 290.599C396.362 290.599 363.448 265.804 349.039 281.226Z" fill="#333242"/>
<path d="M303.544 203.128C303.753 205.802 297.723 213.669 297.723 213.669C297.723 213.669 295.426 200.584 293.677 197.027C291.955 193.548 262.877 184.123 261.964 183.837C267.262 193.106 266.897 199.883 266.897 199.883C266.897 199.883 259.406 183.032 243.666 181.085C227.927 179.164 208.925 166.883 208.925 166.883C208.925 166.883 208.951 166.909 209.003 166.987C231.894 206.348 236.932 207.438 253.089 221.095C269.272 234.778 288.64 240.749 297.723 250.511C327.009 282.005 315.655 315.161 313.254 319.756C313.254 319.782 317.691 327.311 317.691 327.311C349.77 254.38 303.335 200.48 303.544 203.128Z" fill="url(#paint1_linear)"/>
<path d="M230.015 298.336C219.574 301.608 196.683 311.941 186.582 332.141C186.582 332.141 210.23 303.399 243.98 303.399C273.057 303.399 313.619 322.638 317.404 338.372L329.176 328.168C329.176 328.168 286.369 280.707 230.015 298.336Z" fill="#42445D"/>
<path d="M311.427 198.715C306.52 178.827 293.469 156.186 292.712 155.07C293.182 156.16 302.004 176.827 301.56 200.792C301.09 227.015 340.243 210.943 330.611 275.93C326.514 303.477 317.143 310.799 315.472 326.04C323.512 313.499 337.789 281.045 338.807 253.524C340.113 218.758 317.143 221.874 311.427 198.715Z" fill="#0A429F"/>
<path d="M218.687 340.293C218.635 340.06 218.609 339.852 218.556 339.618C218.609 340.06 218.687 340.293 218.687 340.293Z" fill="#0D5BD9"/>
<path d="M237.559 269.984C237.559 269.984 255.543 268.582 266.74 283.901C279.635 301.556 310.565 337.022 320.588 337.463C350.188 338.813 306.128 270.451 297.958 260.871C280.6 240.49 237.559 269.984 237.559 269.984Z" fill="#0A429F"/>
<path d="M322.598 347.278H355.774C350.893 343.201 348.543 327.286 355.774 318.64C355.774 318.64 322.363 329.467 322.598 347.278Z" fill="#333242"/>
<path d="M405.21 318.925C391.872 310.487 377.725 315.213 372.818 314.745C322.572 309.994 318.422 340.034 315.551 347.277H322.807C324.739 332.4 355.982 309.163 369.347 334.971C371.852 339.8 374.854 344.006 378.091 347.667H419.801C420.297 335.646 415.521 325.442 405.21 318.925Z" fill="#0D5BD9"/>
<path d="M405.21 318.925C391.872 310.487 377.543 313.421 372.818 314.745C384.851 315.758 398.868 323.028 403.723 330.142C408.134 336.606 410.979 342.344 412.676 347.693H419.827C420.297 335.646 415.521 325.442 405.21 318.925Z" fill="url(#paint2_linear)"/>
<path d="M396.336 271.127C382.476 264.506 375.089 272.035 375.089 272.035C358.827 266.349 346.925 283.537 346.925 283.537C346.925 283.537 366.24 277.747 374.906 291.144C383.598 304.568 401.321 308.981 401.321 308.981C410.692 296 410.196 277.747 396.336 271.127Z" fill="#0A429F"/>
<path d="M396.336 271.127C382.476 264.506 375.089 272.035 375.089 272.035C375.089 272.035 391.533 272.061 401.321 308.981C410.692 296 410.196 277.747 396.336 271.127Z" fill="url(#paint3_linear)"/>
<path d="M265.514 247.707C265.514 247.707 256.613 237.763 238.707 245.319C220.801 252.874 219.105 275.956 230.198 292.91C230.198 292.91 252.88 288.366 264.652 271.879C276.398 255.419 300.49 263.857 300.49 263.857C300.49 263.857 286.134 239.191 265.514 247.707Z" fill="url(#paint4_linear)"/>
<path d="M238.681 245.345C220.775 252.9 219.079 275.982 230.172 292.936C244.711 246.799 265.488 247.707 265.488 247.707C265.488 247.707 256.587 237.763 238.681 245.345Z" fill="#0D5BD9"/>
<path d="M260.633 207.542C232.991 200.22 210.387 168.96 209.003 167.013C231.894 206.374 236.932 207.464 253.089 221.121C269.272 234.804 288.561 240.853 297.723 250.537C310.67 264.272 315.733 278.448 317.195 290.391C318.84 216.577 286.395 214.37 260.633 207.542Z" fill="#0D5BD9"/>
<path d="M238.002 315.29C228.58 318.25 215.764 326.403 218.53 339.644C218.165 336.684 218.348 324.767 245.024 322.145C269.533 319.73 304.666 333.075 313.384 347.303H317.561L324.504 339.229C324.504 339.203 286.421 300.128 238.002 315.29Z" fill="#0D5BD9"/>
<path d="M574.115 219.511C570.226 224.522 573.28 229.87 573.28 229.87C573.28 229.87 570.774 229.195 566.781 229.585C562.787 229.948 560.412 239.269 560.412 239.269L565.084 250.537L559.603 249.161C561.012 289.327 580.275 316.355 580.275 316.355C581.084 313.421 587.349 310.254 587.114 308.021C586.07 298.44 576.986 293.585 574.402 276.293C568.347 235.505 592.935 245.578 592.647 229.118C592.36 214.085 597.92 201.103 598.207 200.402C598.207 200.376 598.207 200.376 598.207 200.376C589.019 207.75 578.004 214.5 574.115 219.511Z" fill="#0D5BD9"/>
<path d="M533.161 285.51C533.161 285.51 542.036 284.42 547.935 291.741C554.721 300.206 563.935 312.279 568.921 312.279C583.616 312.279 567.146 284.186 562.891 279.617C553.808 269.932 533.161 285.51 533.161 285.51Z" fill="#333242"/>
<path d="M614.442 228.546C614.442 228.546 614.208 224.288 617.549 218.472C616.974 218.654 598.729 224.548 597.633 226.755C596.511 228.988 595.075 237.192 595.075 237.192C595.075 237.192 591.29 232.259 591.421 230.571C591.551 228.91 562.395 262.74 582.546 308.566C582.546 308.566 585.339 303.84 585.313 303.84C583.799 300.959 576.673 280.136 595.049 260.352C600.765 254.224 612.902 250.459 623.082 241.866C633.236 233.298 636.394 232.597 650.776 207.879C650.802 207.827 650.828 207.827 650.828 207.827C650.828 207.827 638.874 215.539 629.007 216.733C619.141 217.979 614.442 228.546 614.442 228.546Z" fill="url(#paint5_linear)"/>
<path d="M637.595 290.365C602.201 279.305 575.316 309.085 575.316 309.085L582.703 315.498C585.078 305.632 610.553 293.533 628.798 293.533C649.993 293.533 664.845 311.578 664.845 311.578C658.528 298.907 644.172 292.417 637.595 290.365Z" fill="#0D5BD9"/>
<path d="M569.26 262.221C569.887 279.513 578.866 299.894 583.903 307.761C582.859 298.181 576.986 293.585 574.402 276.293C568.347 235.505 592.935 245.579 592.647 229.118C592.36 214.085 597.92 201.103 598.207 200.402C597.737 201.103 589.541 215.305 586.461 227.794C582.911 242.333 568.477 240.386 569.26 262.221Z" fill="#0A429F"/>
<path d="M632.583 301.01C602.174 291.482 578.265 316.043 578.265 316.043L582.624 321.106H585.234C590.69 312.175 612.772 303.789 628.172 305.32C644.903 306.956 645.034 314.434 644.799 316.303C646.548 307.969 638.508 302.854 632.583 301.01Z" fill="#0A429F"/>
<path d="M644.799 316.277C644.773 316.407 644.747 316.563 644.72 316.692C644.72 316.692 644.773 316.563 644.799 316.277Z" fill="#0D5BD9"/>
<path d="M594.97 266.817C589.854 272.84 562.187 315.758 580.771 314.927C587.062 314.641 606.481 292.365 614.573 281.278C621.594 271.672 632.896 272.528 632.896 272.528C632.896 272.528 605.829 254.042 594.97 266.817Z" fill="#42445D"/>
<path d="M558.637 303.113C563.178 308.54 561.691 318.536 558.637 321.106H579.466C579.623 309.916 558.637 303.113 558.637 303.113Z" fill="#333242"/>
<path d="M547.935 300.647C544.855 300.933 535.98 297.973 527.602 303.269C517.422 309.708 515.778 321.885 522.199 335.204C522.225 335.256 522.251 335.308 522.277 335.334C522.277 335.334 541.175 330.583 550.128 313.343C558.532 297.142 578.135 311.707 579.362 321.08H583.929C582.102 316.537 579.492 297.687 547.935 300.647Z" fill="url(#paint6_linear)"/>
<path d="M527.602 303.269C517.422 309.708 515.778 321.885 522.199 335.204C520.789 327.909 521.572 320.457 528.541 310.305C531.595 305.84 540.392 301.27 547.961 300.647C544.959 299.816 535.98 297.973 527.602 303.269Z" fill="#7BC3F4"/>
<path d="M546.499 273.853C546.499 273.853 541.853 269.127 533.161 273.281C524.47 277.436 524.156 288.911 530.029 297.064C530.029 297.064 541.175 294.286 546.63 285.874C552.085 277.462 564.197 281.096 564.197 281.096C564.197 281.096 556.705 270.27 546.499 273.853Z" fill="#0A429F"/>
<path d="M533.161 273.281C524.47 277.436 524.156 288.911 530.029 297.064C536.163 273.879 546.499 273.853 546.499 273.853C546.499 273.853 541.853 269.127 533.161 273.281Z" fill="#0D5BD9"/>
<path d="M632.165 257.08C620.916 252.329 615.33 258.586 615.33 258.586C602.383 253.238 593.378 268.738 593.378 268.738C593.378 268.738 608.491 263.441 615.878 273.775C623.265 284.134 637.516 286.99 637.516 286.99C644.459 276.319 643.389 261.831 632.165 257.08Z" fill="url(#paint7_linear)"/>
<path d="M632.166 257.08C620.916 252.329 615.33 258.586 615.33 258.586C615.33 258.586 628.381 258.015 637.516 286.99C644.46 276.319 643.389 261.831 632.166 257.08Z" fill="#0D5BD9"/>
<path d="M618.384 233.35C602.201 237.634 581.841 239.01 582.859 285.38C583.773 277.877 586.957 268.972 595.101 260.352C600.843 254.25 612.955 250.46 623.134 241.866C633.288 233.298 636.446 232.597 650.828 207.879C649.941 209.126 635.741 228.754 618.384 233.35Z" fill="#0D5BD9"/>
<path d="M550.206 161.145H543.889V166.649H550.206V161.145Z" fill="url(#paint8_linear)"/>
<path d="M550.206 254.146H543.889V265.7H550.206V254.146Z" fill="url(#paint9_linear)"/>
<path d="M550.206 273.957H543.889V285.51H550.206V273.957Z" fill="url(#paint10_linear)"/>
<path d="M550.206 293.793H543.889V305.346H550.206V293.793Z" fill="url(#paint11_linear)"/>
<path d="M550.206 174.906H543.889V186.459H550.206V174.906Z" fill="url(#paint12_linear)"/>
<path d="M550.206 234.336H543.889V245.89H550.206V234.336Z" fill="url(#paint13_linear)"/>
<path d="M550.206 194.716H543.889V206.27H550.206V194.716Z" fill="url(#paint14_linear)"/>
<path d="M550.206 214.526H543.889V226.08H550.206V214.526Z" fill="url(#paint15_linear)"/>
<path d="M550.206 313.603H543.889V319.107H550.206V313.603Z" fill="url(#paint16_linear)"/>
<path d="M606.847 47.5027H600.53V53.007H606.847V47.5027Z" fill="url(#paint17_linear)"/>
<path d="M606.847 235.92H600.53V247.24H606.847V235.92Z" fill="url(#paint18_linear)"/>
<path d="M606.847 216.473H600.53V227.793H606.847V216.473Z" fill="url(#paint19_linear)"/>
<path d="M606.847 294.182H600.53V305.502H606.847V294.182Z" fill="url(#paint20_linear)"/>
<path d="M606.847 197.052H600.53V208.373H606.847V197.052Z" fill="url(#paint21_linear)"/>
<path d="M606.847 255.341H600.53V266.661H606.847V255.341Z" fill="url(#paint22_linear)"/>
<path d="M606.847 274.761H600.53V286.081H606.847V274.761Z" fill="url(#paint23_linear)"/>
<path d="M606.847 99.949H600.53V111.269H606.847V99.949Z" fill="url(#paint24_linear)"/>
<path d="M606.847 80.5282H600.53V91.8483H606.847V80.5282Z" fill="url(#paint25_linear)"/>
<path d="M606.847 61.1076H600.53V72.4277H606.847V61.1076Z" fill="url(#paint26_linear)"/>
<path d="M606.847 158.211H600.53V169.531H606.847V158.211Z" fill="url(#paint27_linear)"/>
<path d="M606.847 119.37H600.53V130.69H606.847V119.37Z" fill="url(#paint28_linear)"/>
<path d="M606.847 177.632H600.53V188.952H606.847V177.632Z" fill="url(#paint29_linear)"/>
<path d="M606.847 138.79H600.53V150.11H606.847V138.79Z" fill="url(#paint30_linear)"/>
<path d="M606.847 313.603H600.53V319.107H606.847V313.603Z" fill="url(#paint31_linear)"/>
<path d="M489.023 202.764H482.707V208.269H489.023V202.764Z" fill="url(#paint32_linear)"/>
<path d="M489.023 216.369H482.707V227.715H489.023V216.369Z" fill="url(#paint33_linear)"/>
<path d="M489.023 274.709H482.707V286.055H489.023V274.709Z" fill="url(#paint34_linear)"/>
<path d="M489.023 294.156H482.707V305.502H489.023V294.156Z" fill="url(#paint35_linear)"/>
<path d="M489.023 235.816H482.707V247.162H489.023V235.816Z" fill="url(#paint36_linear)"/>
<path d="M489.023 255.263H482.707V266.609H489.023V255.263Z" fill="url(#paint37_linear)"/>
<path d="M489.023 313.603H482.707V319.107H489.023V313.603Z" fill="url(#paint38_linear)"/>
<path d="M382.632 253.549H376.316V259.053H382.632V253.549Z" fill="url(#paint39_linear)"/>
<path d="M382.632 297.635H376.316V306.956H382.632V297.635Z" fill="url(#paint40_linear)"/>
<path d="M382.632 281.668H376.316V290.989H382.632V281.668Z" fill="url(#paint41_linear)"/>
<path d="M382.632 265.7H376.316V275.021H382.632V265.7Z" fill="url(#paint42_linear)"/>
<path d="M382.632 313.603H376.316V319.107H382.632V313.603Z" fill="url(#paint43_linear)"/>
<path fill-rule="evenodd" clip-rule="evenodd" d="M413.485 120.876C407.821 122.407 404.819 130.949 402.209 135.96C402.209 135.96 403.958 139.569 410.483 140.037C410.483 140.037 417.191 129.392 417.217 126.717C417.243 124.017 414.633 120.564 413.485 120.876Z" fill="url(#paint44_linear)"/>
<path fill-rule="evenodd" clip-rule="evenodd" d="M413.485 120.876C413.145 120.979 412.832 121.083 412.519 121.213C412.702 121.499 412.832 121.862 412.806 122.304C412.702 128.016 408.943 133.754 404.479 138.245C405.758 139.076 407.664 139.855 410.457 140.037C410.457 140.037 417.165 129.392 417.191 126.717C417.243 124.017 414.633 120.564 413.485 120.876Z" fill="#42445D"/>
<path fill-rule="evenodd" clip-rule="evenodd" d="M411.109 121.914C409.36 123.109 410.953 143.049 409.308 146.138C406.672 151.071 403.461 157.043 403.461 157.043C410.326 161.067 436.715 161.067 436.715 161.067C436.715 161.067 438.151 156.342 439.273 148.553C440.578 139.492 441.022 119.759 440.5 119.629C429.433 116.747 414.189 119.863 411.109 121.914Z" fill="url(#paint45_linear)"/>
<path fill-rule="evenodd" clip-rule="evenodd" d="M429.642 107.816L420.897 113.216C421.08 113.606 421.55 116.955 420.897 118.565C420.349 119.941 419.801 122.044 422.907 122.693C425.779 123.316 431.129 120.668 430.425 118.305C429.146 114.203 429.642 107.816 429.642 107.816Z" fill="#FFCAB8"/>
<path fill-rule="evenodd" clip-rule="evenodd" d="M429.643 107.816L420.899 113.216C421.081 113.606 421.551 116.955 420.899 118.565C420.82 118.773 420.716 119.032 420.664 119.266C420.69 119.266 422.178 119.084 423.718 118.02C425.284 116.929 427.033 117.526 428.233 119.032C428.677 119.603 428.886 120.33 428.86 121.083C429.982 120.278 430.713 119.266 430.426 118.305C429.147 114.203 429.643 107.816 429.643 107.816Z" fill="#FFC3AB"/>
<path fill-rule="evenodd" clip-rule="evenodd" d="M439.117 119.292C435.697 118.799 429.772 124.173 429.485 132.715C429.407 134.974 428.754 137.882 426.849 141.439C425.778 143.438 421.393 145.1 419.514 145.749C417.635 146.398 417.374 147.229 418.47 147.8C419.566 148.371 428.206 149.773 427.136 151.097C426.013 152.499 415.494 154.81 417.4 159.328C418.339 161.508 434.288 159.951 437.237 159.302C438.203 157.536 438.307 153.252 438.96 150.552C440.265 144.996 439.847 133.078 440.657 126.717C441.048 122.459 442.849 119.837 439.117 119.292Z" fill="#FD4B1B"/>
<path fill-rule="evenodd" clip-rule="evenodd" d="M403.749 165.585C403.279 165.637 396.414 165.143 393.699 165.481C390.959 165.793 389.862 165.87 388.244 167.662C386.626 169.453 387.174 172.543 388.035 174.724C388.897 176.905 390.045 176.931 392.186 176.334C394.3 175.737 396.623 174.049 398.789 173.841C400.93 173.634 401.478 173.997 402.992 173.582C404.506 173.14 404.793 173.634 404.636 172.543C404.427 171.479 403.749 165.585 403.749 165.585Z" fill="#0A429F"/>
<path fill-rule="evenodd" clip-rule="evenodd" d="M403.749 165.585C403.279 165.637 396.414 165.143 393.7 165.481C390.959 165.793 389.863 165.87 388.244 167.662C387.383 168.649 387.122 169.999 387.226 171.375C388.871 171.79 390.228 171.686 391.925 171.323C393.334 171.037 394.822 170.466 396.258 170.752C397.798 171.037 399.677 172.231 400.251 173.815C401.295 173.815 401.895 173.919 402.966 173.608C404.48 173.166 404.767 173.659 404.61 172.569C404.427 171.479 403.749 165.585 403.749 165.585Z" fill="#333242"/>
<path fill-rule="evenodd" clip-rule="evenodd" d="M391.298 166.286C392.212 165.689 393.464 165.611 394.978 165.403C394.509 165.429 394.065 165.455 393.699 165.481C390.959 165.793 389.862 165.87 388.244 167.662C386.626 169.453 387.174 172.543 388.035 174.724C388.792 176.697 389.836 176.905 391.585 176.489C388.714 174.127 387.644 168.674 391.298 166.286Z" fill="white"/>
<path fill-rule="evenodd" clip-rule="evenodd" d="M440.474 165.792C438.908 165.533 433.687 165.585 429.668 165.014C429.668 165.014 425.413 171.011 425.309 171.141C425.204 171.271 428.493 173.062 429.851 174.127C431.208 175.191 436.585 177.009 438.073 176.723C439.56 176.438 442.327 170.544 442.875 168.415C443.476 166.286 442.04 166.052 440.474 165.792Z" fill="#0A429F"/>
<path fill-rule="evenodd" clip-rule="evenodd" d="M440.474 165.792C438.908 165.533 433.687 165.585 429.668 165.014C429.668 165.014 425.961 170.232 425.387 171.037C427.24 171.063 429.015 170.102 430.894 170.388C431.834 170.544 432.956 171.79 435.723 171.453C437.394 171.245 437.081 174.049 435.619 175.451C435.306 175.736 434.992 175.97 434.679 176.152C436.115 176.567 437.446 176.827 438.072 176.697C439.56 176.412 442.327 170.518 442.875 168.389C443.476 166.286 442.04 166.052 440.474 165.792Z" fill="#333242"/>
<path fill-rule="evenodd" clip-rule="evenodd" d="M390.332 152.317C386.495 153.122 385.007 156.03 385.034 159.276C385.034 161.197 386.756 163.3 388.897 163.949C391.037 164.598 424.447 172.18 425.387 172.413C426.327 172.647 430.32 162.988 430.32 162.988C429.119 162.547 397.562 150.786 390.332 152.317Z" fill="#D0DDFD"/>
<path fill-rule="evenodd" clip-rule="evenodd" d="M400.434 161.405C393.438 161.638 391.168 160.678 385.164 157.536C385.06 158.107 385.008 158.678 385.008 159.276C385.008 161.197 386.73 163.3 388.871 163.949C391.011 164.598 424.421 172.179 425.361 172.413C426.301 172.647 430.294 162.988 430.294 162.988C429.85 162.833 420.375 159.509 414.45 157.51C409.752 159.821 405.654 161.223 400.434 161.405Z" fill="url(#paint46_linear)"/>
<path fill-rule="evenodd" clip-rule="evenodd" d="M411.475 97.9758C411.475 97.9758 409.961 99.248 409.778 101.065C409.595 102.883 411.657 105.765 411.657 105.765C411.657 105.765 413.589 100.832 413.328 99.4038C413.25 99.1441 411.475 97.9758 411.475 97.9758Z" fill="#333242"/>
<path fill-rule="evenodd" clip-rule="evenodd" d="M420.532 119.681L420.767 118.876C420.767 118.876 419.123 118.799 418.836 120.902C418.366 124.433 420.141 127.029 420.141 127.029C420.428 125.16 423.195 122.693 423.195 122.693C420.715 121.629 420.532 119.681 420.532 119.681Z" fill="white"/>
<path fill-rule="evenodd" clip-rule="evenodd" d="M432.695 104.83C431.782 103.194 430.216 104.57 430.216 104.57C430.216 104.57 429.876 100.416 426.901 97.7161C423.925 95.0159 420.924 96.1583 415.599 97.7161C410.248 99.2739 411.292 100.962 411.292 100.962C411.292 100.962 411.475 105.272 412.284 109.737C412.623 111.555 414.685 114.047 416.878 116.747C419.018 119.37 422.02 117.89 425.883 115.631C429.772 113.372 429.537 111.113 429.511 110.698C429.511 110.698 430.164 111.009 431.39 110.127C432.617 109.244 433.635 106.881 432.748 105.012C432.748 104.934 432.722 104.882 432.695 104.83Z" fill="#FFCAB8"/>
<path fill-rule="evenodd" clip-rule="evenodd" d="M432.695 104.83C431.782 103.195 430.216 104.571 430.216 104.571C430.216 104.571 429.876 100.416 426.901 97.7162C426.222 97.0931 422.777 98.2355 423.221 100.027C423.716 102.026 425.335 103.376 425.648 105.246C426.013 107.427 426.588 111.451 425.256 113.268C423.351 115.917 420.062 118.02 416.773 116.618C416.8 116.67 416.852 116.696 416.878 116.747C419.018 119.37 422.02 117.89 425.883 115.631C429.772 113.372 429.537 111.113 429.511 110.698C429.511 110.698 430.164 111.01 431.39 110.127C432.617 109.244 433.635 106.881 432.748 105.012C432.748 104.934 432.722 104.882 432.695 104.83Z" fill="#FFC3AB"/>
<path fill-rule="evenodd" clip-rule="evenodd" d="M410.9 97.093C410.222 98.4951 409.543 103.117 413.38 104.155C417.609 105.298 425.048 100.001 426.692 103.065C428.049 105.583 426.431 107.245 427.632 108.231C428.258 108.751 429.067 108.569 429.381 107.868C429.485 107.634 429.328 105.765 430.216 104.545C430.268 104.467 430.947 104.025 431.547 104.025C431.547 104.025 432.382 101.039 431.182 98.2614C427.136 88.7328 413.746 91.1214 410.9 97.093Z" fill="#42445D"/>
<path fill-rule="evenodd" clip-rule="evenodd" d="M422.542 91.9522C425.257 93.8476 421.785 98.3133 424.5 100.494C426.901 102.441 427.997 103.039 427.945 104.493C427.919 105.453 427.554 107.764 427.475 108.05C427.527 108.127 427.58 108.179 427.658 108.231C428.284 108.751 429.094 108.569 429.407 107.868C429.511 107.634 429.355 105.765 430.242 104.545C430.294 104.467 430.973 104.025 431.573 104.025C431.573 104.025 432.408 101.039 431.208 98.2614C429.485 94.237 426.092 92.3417 422.542 91.9522Z" fill="#333242"/>
<path fill-rule="evenodd" clip-rule="evenodd" d="M441.205 153.096C437.368 150.864 430.451 153.59 422.777 156.004C416.747 157.9 400.068 163.586 400.068 163.586C400.068 163.586 398.398 170.648 402.966 174.958C402.966 174.958 426.014 169.453 440.839 163.144C441.936 162.677 443.554 162.028 444.024 159.613C444.52 157.225 443.319 154.343 441.205 153.096Z" fill="#D0DDFD"/>
<path fill-rule="evenodd" clip-rule="evenodd" d="M441.727 153.46C442.275 154.81 442.275 156.42 441.466 158.289C440.343 160.807 437.629 162.158 434.94 161.768C433.766 161.612 432.956 160.756 431.886 160.574C430.033 160.236 429.25 161.119 427.84 162.287C425.726 164.053 424.004 165.663 421.211 166.234C419.645 166.545 418.183 166.182 416.643 166.312C414.685 166.468 413.25 167.584 411.37 168.103C407.324 169.272 403.514 168.311 399.807 166.935C399.859 169.349 400.486 172.543 402.992 174.906C402.992 174.906 426.039 169.401 440.865 163.092C441.962 162.625 443.58 161.976 444.05 159.561C444.493 157.432 443.502 154.836 441.727 153.46Z" fill="url(#paint47_linear)"/>
<path fill-rule="evenodd" clip-rule="evenodd" d="M430.425 106.076C430.242 106.596 430.164 106.803 430.346 107.245C430.529 107.712 430.634 107.478 430.686 107.92C430.712 108.361 430.242 108.153 430.111 108.621C429.981 109.088 430.085 109.426 430.581 109.53C431.077 109.659 431.651 109.192 432.069 108.231C432.487 107.245 432.643 105.973 432.2 105.401C431.678 104.752 430.686 105.375 430.425 106.076Z" fill="#FFC3AB"/>
<path fill-rule="evenodd" clip-rule="evenodd" d="M440.735 165.844C441.988 166.831 438.542 175.243 435.75 176.438C436.767 176.671 437.629 176.801 438.099 176.723C439.586 176.438 442.353 170.544 442.901 168.415C443.45 166.416 442.197 166.078 440.735 165.844Z" fill="white"/>
<path fill-rule="evenodd" clip-rule="evenodd" d="M436.585 124.64C435.906 129.392 443.032 141.724 443.032 141.724C443.032 141.724 425.544 137.648 423.795 137.466C420.976 137.181 417.687 134.766 416.617 134.844C416.33 134.87 414.163 135.727 414.033 135.805C413.928 135.882 410.352 138.79 410.666 139.465C410.77 139.699 411.553 139.414 411.762 139.284C412.388 138.894 413.772 137.518 414.372 137.233C415.338 136.791 417.035 136.583 417.035 136.583C417.035 136.583 415.364 137.362 414.868 137.7C413.981 138.297 412.414 139.829 411.788 140.686C411.553 140.997 411.501 141.283 411.658 141.335C411.892 141.439 412.284 141.309 412.702 141.101C413.432 140.79 414.346 139.699 414.555 139.517C414.764 139.336 416.46 138.479 416.46 138.479C416.46 138.479 414.659 140.374 414.32 140.841C413.928 141.413 412.832 143.048 413.224 143.23C413.432 143.334 413.772 143.048 414.163 142.737C415.051 142.062 415.573 141.049 415.964 140.816C416.356 140.582 417.635 139.829 417.974 139.751C417.974 139.751 417.165 140.452 416.93 140.919C416.747 141.283 416.278 142.425 416.278 142.425C416.278 142.425 416.043 144.113 416.565 143.983C417.113 143.827 417.504 142.192 417.504 142.192C417.504 142.192 417.844 141.984 418.131 141.517C418.131 141.517 420.193 142.218 422.046 142.269C423.899 142.321 424.787 141.568 424.787 141.568C424.943 142.14 444.911 148.111 446.895 148.527C448.931 148.942 450.497 147.592 450.654 146.891C451.437 143.36 446.999 132.585 444.076 125.108C441.466 118.253 436.794 123.342 436.585 124.64Z" fill="#FFCAB8"/>
<path fill-rule="evenodd" clip-rule="evenodd" d="M436.585 124.64C436.01 128.717 441.179 138.401 442.64 141.049C443.423 141.127 444.389 141.023 445.59 140.478C448.122 139.284 451.437 143.178 447.678 145.515C445.172 147.099 441.205 145.749 425.1 140.478C423.586 139.985 421.942 141.101 420.871 141.075C420.323 141.075 419.07 140.374 418.366 140.816C417.191 141.569 417.008 142.399 416.591 143.698C416.565 143.801 416.486 143.879 416.408 143.931C416.46 144.009 416.512 144.061 416.617 144.035C417.165 143.879 417.556 142.244 417.556 142.244C417.556 142.244 417.896 142.036 418.183 141.569C418.183 141.569 420.245 142.27 422.098 142.322C423.951 142.373 424.839 141.621 424.839 141.621C424.995 142.192 444.963 148.163 446.947 148.579C448.983 148.994 450.549 147.644 450.706 146.943C451.489 143.412 447.052 132.637 444.128 125.16C441.466 118.253 436.794 123.342 436.585 124.64Z" fill="#FFC3AB"/>
<path fill-rule="evenodd" clip-rule="evenodd" d="M438.412 119.396C433.165 120.434 432.669 126.951 441.727 140.322C441.727 140.322 447.312 139.933 450.288 137.155C450.314 137.129 444.285 118.227 438.412 119.396Z" fill="url(#paint48_linear)"/>
<path fill-rule="evenodd" clip-rule="evenodd" d="M439.534 119.422C439.743 119.681 439.9 119.993 439.978 120.356C440.892 124.744 440.082 129.625 437.629 133.572C438.673 135.597 440.03 137.83 441.727 140.322C441.727 140.322 447.313 139.933 450.288 137.155C450.314 137.129 445.016 120.59 439.534 119.422Z" fill="#FD4B1B"/>
<path fill-rule="evenodd" clip-rule="evenodd" d="M429.981 116.28L430.242 117.812C430.242 117.812 426.692 123.082 423.142 122.693C423.142 122.693 425.987 125.108 426.77 127.133C426.77 127.133 431.103 123.212 431.625 119.603C431.991 117.059 429.981 116.28 429.981 116.28Z" fill="white"/>
<path d="M411.892 151.201C411.892 151.98 412.519 152.603 413.276 152.603H446.007C446.764 152.603 447.391 151.98 447.391 151.227H411.892V151.201Z" fill="#42445D"/>
<path d="M408.342 122.486C408.029 121.369 406.985 120.59 405.837 120.642H385.738V152.266L413.485 152.603C415.181 152.603 415.286 151.305 415.181 150.838L408.342 122.486Z" fill="#42445D"/>
<path d="M406.907 121.213C406.803 120.876 406.489 120.616 406.124 120.616H370.678C370.13 120.616 369.738 121.135 369.895 121.655L376.551 149.669C377.047 151.409 378.613 152.603 380.44 152.603H413.459C414.007 152.603 414.398 152.084 414.242 151.565L406.907 121.213Z" fill="#D0DDFD"/>
<path d="M332.178 224.107C329.933 224.081 327.662 224.236 325.417 224.626C312.601 226.807 302.082 235.271 297.253 247.266L252.828 357.481H300.072C300.072 357.481 350.658 243.839 351.858 242.047C353.033 240.282 379.474 231.818 379.474 231.818V224.107H332.178Z" fill="url(#paint49_linear)"/>
<path d="M443.815 172.699C441.779 172.673 439.743 172.829 437.707 173.218C427.319 175.139 418.81 182.124 414.947 191.912L399.051 232.129C402.026 235.764 407.638 257.496 432.356 257.496C441.91 257.496 464.122 191.938 464.122 191.938L490.642 172.673L443.815 172.699Z" fill="url(#paint50_linear)"/>
<path d="M558.062 140.374C561.743 137.025 573.593 126.614 603.688 155.044L625.196 47.5287H575.707L558.062 140.374Z" fill="url(#paint51_linear)"/>
<path d="M526.845 128.82C525.983 128.846 525.122 128.898 524.261 129.028C515.673 130.222 508.808 136.09 506.355 144.347L497.271 174.932C500.691 177.035 504.136 179.06 507.817 180.644C508.208 180.799 530.838 202.245 531.126 202.531L538.121 197.805L575.003 128.82H526.845Z" fill="url(#paint52_linear)"/>
<path d="M594.292 152.058C590.507 152.006 587.871 148.397 587.479 144.295C587.427 143.775 587.401 143.256 587.401 142.737C587.062 142.27 586.749 141.828 586.435 141.413C585.809 140.556 585.626 139.517 585.757 138.479H560.333V165.195H603.662V157.536C600.113 157.406 596.98 155.044 594.292 152.058Z" fill="#C3391C"/>
<path d="M506.146 183.993H473.884L466.732 210.709H531.23V203.05C527.654 202.894 506.016 185.031 506.146 183.993Z" fill="#C3391C"/>
<path d="M386.025 229.221L355.956 241.139L346.847 267.855H428.832V260.222C424.291 260.04 385.843 230.26 386.025 229.221Z" fill="#C3391C"/>
<path d="M603.192 151.616C603.166 151.798 603.062 152.317 602.331 152.473C601.626 152.603 601.339 152.162 601.235 152.006L592.961 138.946C588.34 131.65 580.145 127.86 571.531 129.028C562.943 130.222 556.079 136.09 553.625 144.347L539.608 191.6C538.695 194.69 536.241 196.975 533.083 197.702C529.925 198.429 526.714 197.442 524.522 195.053L512.958 182.513C505.807 174.776 495.34 171.297 484.951 173.218C474.563 175.139 466.054 182.124 462.191 191.912L440.317 247.266C438.699 251.342 435.175 254.224 430.842 254.951C426.509 255.704 422.203 254.198 419.305 250.901L406.802 236.699C398.241 226.988 385.477 222.471 372.661 224.652C359.845 226.833 349.326 235.297 344.498 247.292L300.072 357.507H313.958L356.452 252.069C359.61 244.254 366.475 238.724 374.828 237.296C383.18 235.868 391.507 238.802 397.093 245.163L409.595 259.365C415.494 266.038 424.239 269.127 433.061 267.595C441.857 266.064 449.061 260.222 452.324 251.939L474.197 196.585C476.416 190.951 481.323 186.927 487.327 185.81C493.33 184.694 499.359 186.693 503.484 191.159L515.047 203.699C520.424 209.541 528.254 211.93 536.006 210.164C543.759 208.373 549.736 202.791 551.981 195.183L565.997 147.93C567.015 144.502 569.756 142.166 573.306 141.672C576.856 141.179 580.118 142.685 582.05 145.723L590.324 158.782C593.404 163.638 599.068 166.104 604.758 165.04C610.449 163.975 614.808 159.613 615.878 153.979L636.028 48.022H622.899L603.192 151.616Z" fill="#FD4B1B"/>
<path d="M603.688 13.3088L571.218 48.2297H659.468L619.924 13.3088H603.688Z" fill="#C3391C"/>
<path d="M554.957 48.2297H643.233L603.689 13.3088L554.957 48.2297Z" fill="url(#paint53_linear)"/>
<path fill-rule="evenodd" clip-rule="evenodd" d="M206.993 210.45C203.939 210.787 201.747 213.565 202.165 216.603C202.582 219.485 205.192 221.536 208.116 221.251C214.615 220.601 224.769 219.018 231.085 216.006L229.937 209.307C226.857 209.853 217.121 209.359 206.993 210.45Z" fill="#333242"/>
<path fill-rule="evenodd" clip-rule="evenodd" d="M250.479 189.809C250.845 189.16 250.636 188.329 249.931 187.991C250.349 187.29 249.722 186.797 249.096 186.719C249.774 185.603 250.244 184.642 249.252 184.382C248.756 184.253 247.086 187.238 246.355 188.251C245.102 189.965 244.189 188.588 243.327 190.172C242.388 191.86 242.727 193.21 242.779 194.768C242.831 195.806 242.231 196.404 241.787 197.208C239.856 200.558 233.382 205.621 228.032 210.45C226.204 212.111 228.188 216.343 230.067 216.266C234.792 216.032 242.831 203.024 246.016 198.818C248.443 195.599 249.513 193.47 250.427 192.301C251.314 191.185 251.393 190.354 250.479 189.809Z" fill="#FFCAB8"/>
<path fill-rule="evenodd" clip-rule="evenodd" d="M250.479 189.809C250.844 189.16 250.636 188.329 249.931 187.991C250.349 187.29 249.722 186.797 249.096 186.719C249.774 185.603 250.244 184.642 249.252 184.382C248.756 184.253 247.086 187.238 246.355 188.251C245.833 188.978 244.972 191.574 247.112 192.95C248.443 193.807 250.087 192.717 250.427 192.275C251.314 191.185 251.393 190.354 250.479 189.809Z" fill="#FFC3AB"/>
<path fill-rule="evenodd" clip-rule="evenodd" d="M241.187 196.663C239.255 200.012 232.051 205.439 226.7 210.294C224.873 211.956 227.875 216.707 229.754 216.603C234.452 216.369 243.327 204.011 246.59 199.675C245.154 199.259 242.596 197.182 241.552 196.118C241.422 196.3 241.291 196.481 241.187 196.663Z" fill="#333242"/>
<path fill-rule="evenodd" clip-rule="evenodd" d="M243.562 201.908C239.725 205.049 233.174 210.709 229.598 213.332C225.421 216.421 221.689 215.642 216.938 216.24C211.901 216.889 208.09 219.719 203.417 219.355C204.67 221.199 206.419 221.406 208.116 221.225C214.171 220.627 223.385 219.199 229.728 216.577C233.591 216.395 240.273 208.009 244.319 202.635C244.737 202.141 244.058 201.492 243.562 201.908Z" fill="#42445D"/>
<path fill-rule="evenodd" clip-rule="evenodd" d="M244.528 184.979C244.006 186.771 243.588 187.524 243.249 188.199L242.727 191.99L244.476 190.795C244.789 190.094 245.024 189.004 244.763 187.913C245.494 186.693 245.363 185.603 244.528 184.979Z" fill="#FFCAB8"/>
<path d="M205.949 202.297C207.411 199.883 203.809 198.169 201.147 197.104C199.554 196.481 197.962 195.91 196.318 195.443C196.004 195.365 195.639 195.287 195.404 195.495C195.117 195.754 195.3 196.222 195.456 196.559C196.683 198.844 196.187 206.841 195.247 210.008C195.195 210.216 206.419 211.878 206.419 211.878C206.419 211.878 204.174 205.257 205.949 202.297Z" fill="#FFCAB8"/>
<path d="M202.504 198.091C201.146 197.572 197.727 195.858 196.344 195.443C196.031 195.365 195.665 195.287 195.43 195.495C195.143 195.754 195.326 196.222 195.482 196.559C196.709 198.844 196.213 206.841 195.274 210.008C195.221 210.164 200.624 210.995 203.939 211.514C202.425 209.177 201.46 201.518 202.504 198.091Z" fill="#FFC3AB"/>
<path d="M210.491 191.289C208.559 190.146 206.628 187.057 205.923 185.317C204.096 180.825 197.362 182.669 195.117 187.472C193.942 189.939 194.099 192.847 194.882 195.443C195.874 198.766 198.014 201.908 201.199 203.258C202.217 203.699 207.307 204.608 208.507 203.881C210.178 202.868 210.126 195.703 210.909 193.755C211.639 192.042 210.987 191.574 210.491 191.289Z" fill="#FFCAB8"/>
<path d="M198.301 197.961C195.717 194.82 194.882 190.977 196.292 187.083C196.761 185.784 197.492 184.694 198.406 183.837C197.049 184.668 195.848 185.914 195.117 187.446C193.942 189.913 194.099 192.821 194.882 195.417C195.874 198.74 198.014 201.882 201.199 203.232C202.164 203.647 206.68 204.452 208.22 203.985C207.594 203.959 206.941 203.881 206.262 203.725C203.261 202.998 200.259 200.35 198.301 197.961Z" fill="#FFC3AB"/>
<path d="M200.311 180.851C189.401 178.904 187.025 186.459 187.234 192.171C187.469 198.039 193.499 203.05 195.926 203.829C196.239 203.933 200.781 204.141 203.287 198.662C203.783 197.572 204.096 196.481 203.522 196.17C201.538 195.053 200.781 191.834 201.616 191.029C202.895 189.757 203.496 191.886 204.331 191.263C205.088 190.692 206.08 186.719 204.957 184.59C204.174 182.954 202.347 181.215 200.311 180.851Z" fill="#FFB725"/>
<path d="M194.282 194.404C194.386 193.496 195.013 191.522 195.195 190.614C196.03 186.641 192.481 183.422 189.14 185.421C187.156 186.615 185.616 193.418 189.87 198.792C191.437 200.791 194.752 203.855 196.526 203.829C198.38 203.855 193.89 198.117 194.282 194.404Z" fill="url(#paint54_linear)"/>
<path d="M186.817 183.941C183.476 183.941 180.787 186.641 180.787 189.939C180.787 193.236 183.476 195.936 186.817 195.936C190.132 195.936 191.306 193.262 191.306 189.939C191.306 186.641 190.132 183.941 186.817 183.941Z" fill="#FFB725"/>
<path d="M239.647 351.977C236.697 350.912 232.782 348.757 231.529 347.641C230.72 346.888 230.537 345.746 230.485 344.629C229.597 345.045 228.553 345.2 227.535 345.2C226.491 345.2 225.447 344.993 224.56 344.681C224.481 346.369 224.508 348.056 224.299 349.718C224.194 350.523 224.012 351.406 224.403 352.107C224.951 353.041 226.256 353.145 227.327 353.145C229.78 353.171 232.234 353.327 234.661 353.587C236.775 353.794 238.942 354.106 240.952 353.431C241.369 353.301 241.839 352.989 241.683 352.574C241.16 352.47 240.43 352.262 239.647 351.977Z" fill="#FFCAB8"/>
<path d="M239.647 351.977C239.594 351.977 239.516 351.951 239.464 351.926C238.576 352.107 237.637 352.185 236.697 352.133C232.625 351.926 228.606 349.147 227.561 345.201C226.517 345.201 225.473 344.993 224.586 344.682C224.508 346.369 224.534 348.057 224.325 349.719C224.22 350.523 224.038 351.406 224.429 352.107C224.977 353.042 226.282 353.146 227.353 353.146C229.806 353.172 232.26 353.328 234.687 353.587C236.801 353.795 238.968 354.106 240.978 353.431C241.395 353.302 241.865 352.99 241.709 352.575C241.16 352.471 240.43 352.263 239.647 351.977Z" fill="#FFC3AB"/>
<path d="M242.309 352.288C241.865 352.107 238.028 350.731 235.836 349.952C235.027 349.666 234.374 350.783 234.374 351.432C229.389 351.406 225.056 348.056 224.377 348.55C223.124 349.484 222.132 352.392 224.638 353.535C224.978 353.69 225.761 353.768 228.397 353.794C230.772 353.794 233.121 355.17 234.583 355.17C237.115 355.17 241.63 355.196 242.309 355.196C243.144 355.196 243.693 352.86 242.309 352.288Z" fill="#333242"/>
<path d="M241.265 353.483C238.054 353.976 234.426 353.249 231.242 352.756C228.162 352.262 225.891 351.354 223.385 349.874C222.837 351.12 222.889 352.756 224.612 353.535C224.951 353.69 225.734 353.768 228.371 353.794C230.746 353.794 233.095 355.17 234.557 355.17C237.089 355.17 241.604 355.196 242.283 355.196C243.014 355.196 243.536 353.379 242.674 352.548C242.413 353.015 241.97 353.379 241.265 353.483Z" fill="#FFB725"/>
<path d="M228.945 353.69L223.202 352.029L224.403 355.144L229.258 355.17C229.258 355.144 228.814 354.262 228.945 353.69Z" fill="#FFB725"/>
<path d="M226.622 344.214C226.544 344.24 226.465 344.318 226.361 344.344C226.439 344.318 226.517 344.266 226.622 344.214Z" fill="#D0AECF"/>
<path d="M200.755 347.667C199.372 346.421 199.789 343.954 199.685 342.37C199.58 340.527 194.021 342.085 193.995 342.37C193.629 344.811 193.864 347.303 193.551 349.77C193.447 350.575 193.264 351.458 193.681 352.159C194.23 353.093 195.535 353.197 196.631 353.197C199.084 353.223 201.538 353.353 203.966 353.613C206.08 353.82 208.246 354.132 210.256 353.457C210.648 353.327 211.117 352.989 210.987 352.6C208.272 352.159 202.347 349.121 200.755 347.667Z" fill="#FFCAB8"/>
<path d="M196.422 342.111C196.5 341.929 196.605 341.773 196.683 341.591C195.326 341.799 193.995 342.241 193.995 342.37C193.629 344.811 193.864 347.303 193.551 349.77C193.447 350.575 193.264 351.458 193.681 352.159C194.23 353.093 195.535 353.197 196.631 353.197C198.902 353.223 201.173 353.353 203.443 353.561C198.954 351.484 194.256 347.407 196.422 342.111Z" fill="#FFC3AB"/>
<path d="M211.535 352.288C211.091 352.107 207.254 350.731 205.062 349.978C204.253 349.692 203.6 350.808 203.6 351.458C198.615 351.458 194.282 348.108 193.603 348.627C192.35 349.562 191.358 352.496 193.864 353.613C194.203 353.768 194.986 353.846 197.623 353.846C199.998 353.846 202.347 355.196 203.809 355.196C206.341 355.196 210.856 355.196 211.535 355.196C212.396 355.196 212.944 352.86 211.535 352.288Z" fill="#333242"/>
<path d="M210.23 353.353C208.899 353.716 207.437 353.69 206.106 353.353C205.166 353.093 199.633 352.444 197.858 352.34C195.717 352.236 193.943 351.198 192.898 349.484C192.115 350.756 191.907 352.756 193.89 353.638C194.23 353.794 195.013 353.872 197.649 353.872C200.024 353.872 202.373 355.222 203.835 355.222H211.561C212.292 355.222 212.788 353.405 211.953 352.574C211.457 352.911 210.883 353.171 210.23 353.353Z" fill="#FFB725"/>
<path d="M194.021 294.598C194.726 305.918 192.533 309.033 191.985 315.55C191.411 322.171 193.081 347.174 193.081 347.174C193.081 347.174 197.153 348.264 200.494 347.174L211.692 263.779L191.411 262.013C191.411 262.013 193.316 283.277 194.021 294.598Z" fill="#C3391C"/>
<path d="M194.021 294.597C194.726 305.918 192.533 309.033 191.985 315.55C191.411 322.171 193.081 347.174 193.081 347.174C193.081 347.174 194.778 347.641 196.892 347.667C196.161 338.372 194.465 329.674 198.432 321.885C199.685 319.419 200.181 312.227 200.181 309.267C200.181 303.321 198.51 293.17 201.094 284.757C202.086 281.538 202.373 263.104 202.373 263.104L191.411 262.039C191.411 262.013 193.316 283.277 194.021 294.597Z" fill="#FD4B1B"/>
<path d="M199.424 264.194C199.085 265.207 199.293 266.557 199.763 267.751C200.964 270.841 212.579 300.491 212.423 303.269C211.796 313.836 218.53 323.651 223.907 347.459C225.969 348.16 229.963 348.731 231.947 346.551C230.798 333.699 220.227 271.516 219.079 264.791C218.948 264.713 204.827 266.09 199.424 264.194Z" fill="#C3391C"/>
<path d="M223.438 323.079C221.819 319.289 217.878 311.396 216.99 307.423C215.972 302.802 216.364 289.742 215.45 285.614C214.824 282.836 214.589 279.954 213.206 277.565C212.266 275.956 210.856 274.917 209.891 273.359C208.272 270.763 208.064 268.79 208.612 266.297C205.01 265.648 201.46 264.921 199.424 264.194C199.085 265.207 199.293 266.557 199.763 267.751C200.964 270.841 212.579 300.491 212.423 303.269C211.796 313.836 218.53 323.651 223.907 347.459C225.082 347.875 226.752 348.524 228.214 348.082C226.857 344.214 226.544 338.632 225.865 335.127C225.004 330.713 225.186 327.104 223.438 323.079Z" fill="#FD4B1B"/>
<path d="M219.47 226.703C219.47 223.535 212.553 213.955 208.455 211.41C204.357 208.866 202.895 207.386 197.675 208.321C192.037 209.333 193.159 217.59 193.159 233.817C193.159 235.089 190.549 262.922 190.132 265.285C194.673 268.452 215.294 268.53 220.436 266.791C220.436 252.64 218.165 242.359 218.165 235.686C218.191 233.35 219.47 231.636 219.47 226.703Z" fill="#333242"/>
<path d="M197.701 208.321C191.802 209.956 193.159 217.59 193.159 233.817C193.159 235.089 190.549 262.922 190.132 265.285C192.089 266.635 196.996 267.388 202.347 267.673C202.347 261.26 197.806 258.898 197.806 253.29C197.806 249.81 202.008 246.15 201.747 243.372C201.251 238.179 199.998 225.119 202.347 217.356C203.13 214.864 199.528 207.827 197.701 208.321Z" fill="#42445D"/>
<path d="M192.428 352.107L193.655 355.196H198.51C198.51 355.196 198.04 354.314 198.171 353.742L192.428 352.107Z" fill="#FFB725"/>
<path fill-rule="evenodd" clip-rule="evenodd" d="M201.825 214.734C200.442 217.304 201.355 220.498 203.887 221.978C209.525 225.275 218.661 229.948 225.552 231.247L228.606 225.171C225.787 223.769 218.191 217.668 209.395 212.605C206.706 211.047 203.287 212.034 201.825 214.734Z" fill="#333242"/>
<path fill-rule="evenodd" clip-rule="evenodd" d="M256.848 216.941C254.812 217.59 255.908 215.435 254.29 216.188C252.541 217.018 251.053 218.109 250.087 220.082C249.643 221.017 233.565 224.132 226.335 224.911C223.855 225.171 222.967 229.767 224.534 230.805C228.501 233.401 245.232 226.781 250.296 225.249C254.159 224.081 256.273 222.99 257.735 222.601C259.092 222.237 259.64 221.614 259.249 220.627C259.928 220.316 260.267 219.537 259.875 218.836C260.632 218.524 260.606 217.668 260.163 217.226C261.363 216.733 262.799 216.188 262.172 215.383C261.676 214.734 258.048 216.551 256.848 216.941Z" fill="#FFCAB8"/>
<path fill-rule="evenodd" clip-rule="evenodd" d="M245.154 221.536C241.604 223.094 232.573 223.276 225.369 224.029C222.889 224.288 222.524 229.896 224.09 230.909C228.005 233.479 242.544 228.702 247.712 227.118C246.798 225.924 245.963 222.756 245.754 221.302C245.546 221.38 245.363 221.432 245.154 221.536Z" fill="#333242"/>
<path fill-rule="evenodd" clip-rule="evenodd" d="M246.564 224.859C240.508 228.313 233.826 229.455 227.248 227.845C226.726 227.715 224.508 227.014 223.959 226.807C223.751 226.729 223.542 226.651 223.333 226.547C216.39 223.795 207.802 220.498 203.026 214.915C202.895 214.76 201.773 213.046 201.668 212.89C200.99 211.774 198.928 219.148 201.434 220.627C206.68 223.691 217.408 229.273 224.09 230.909C228.005 233.479 242.544 228.702 247.712 227.118C247.321 226.625 246.955 225.742 246.642 224.808C246.616 224.834 246.59 224.859 246.564 224.859Z" fill="#42445D"/>
<path fill-rule="evenodd" clip-rule="evenodd" d="M254.368 215.071L251.471 218.135L253.794 217.901C254.446 217.512 255.308 216.785 255.725 215.746C257.056 215.201 257.579 214.24 257.291 213.254C255.856 214.37 255.047 214.734 254.368 215.071Z" fill="#FFCAB8"/>
<path fill-rule="evenodd" clip-rule="evenodd" d="M249.565 184.46C249.33 184.278 248.939 184.434 248.652 184.954C247.947 186.226 247.79 186.537 247.19 187.861C246.616 189.108 247.321 189.237 247.895 188.433C248.6 187.42 249.096 186.641 249.67 185.525C249.983 184.876 249.8 184.616 249.565 184.46Z" fill="#FFCAB8"/>
<path fill-rule="evenodd" clip-rule="evenodd" d="M249.8 186.901C249.435 186.667 249.017 186.823 248.73 187.316C248.051 188.588 247.529 189.471 246.851 190.769C246.198 191.99 246.851 192.093 247.477 191.366C248.286 190.406 249.2 189.082 249.852 187.991C250.218 187.368 250.035 187.031 249.8 186.901Z" fill="#FFCAB8"/>
<path fill-rule="evenodd" clip-rule="evenodd" d="M249.565 188.822C248.887 189.939 248.391 190.588 247.738 191.704C247.112 192.769 247.764 193.002 248.365 192.379C249.148 191.548 250.035 190.406 250.688 189.471C251.053 188.926 250.87 188.666 250.636 188.485C250.401 188.303 249.826 188.381 249.565 188.822Z" fill="#FFCAB8"/>
<path fill-rule="evenodd" clip-rule="evenodd" d="M251.314 189.809C251.053 189.705 250.766 189.575 250.505 190.016C249.826 191.133 249.644 191.6 249.383 192.016C248.756 193.08 249.409 193.21 250.009 192.587C250.792 191.756 250.792 191.652 251.419 190.717C251.784 190.198 251.549 189.887 251.314 189.809Z" fill="#FFCAB8"/>
<path fill-rule="evenodd" clip-rule="evenodd" d="M264.757 214.059C263.556 214.396 261.677 214.993 260.502 215.513C259.849 215.824 260.867 215.824 260.92 216.084C260.998 216.369 260.476 217.044 261.024 216.811C262.381 216.266 263.608 215.591 264.913 214.941C266.166 214.318 265.67 213.799 264.757 214.059Z" fill="#FFCAB8"/>
<path d="M448.696 286.471L450.889 276.371C450.889 276.371 447.495 268.972 444.102 269.257C440.709 269.543 438.725 270.477 438.725 270.477C438.725 270.477 440.474 265.57 436.454 261.961C432.435 258.352 422.229 254.38 413.458 249.603C413.458 249.603 413.458 249.603 413.458 249.629C413.824 250.148 420.402 260.144 422.438 272.736C424.682 286.523 443.658 274.424 444.781 309.371C445.251 324.17 438.386 329.596 438.986 337.749C439.117 339.644 439.665 341.695 440.787 344.032C440.787 344.032 457.962 318.276 453.055 284.55L448.696 286.471Z" fill="#0A429F"/>
<path d="M413.485 317.316C413.485 317.316 420.454 312.045 424.056 320.016C430.399 334.114 435.071 345.408 439.691 345.408C453.342 345.408 440.265 315.342 436.298 311.084C427.867 302.075 413.485 317.316 413.485 317.316Z" fill="#333242"/>
<path d="M425.726 276.968C426.092 278.344 423.664 283.044 423.664 283.044C423.664 283.044 421.237 276.397 419.958 274.709C418.705 273.048 402.6 270.841 402.104 270.789C405.759 275.151 406.228 278.734 406.228 278.734C406.228 278.734 400.695 270.607 392.29 271.075C383.859 271.542 372.74 266.894 372.74 266.894C372.74 266.894 372.74 266.894 372.792 266.946C388.531 285.432 391.272 285.51 401.034 291.144C410.822 296.778 421.498 298.154 427.214 302.361C435.306 308.332 439.299 315.29 441.205 321.392C442.954 326.974 442.954 331.829 442.745 334.581V334.607C442.64 335.827 442.51 336.632 442.458 336.866C442.588 336.399 442.693 335.931 442.797 335.464C452.637 294.208 425.361 275.592 425.726 276.968Z" fill="#0D5BD9"/>
<path d="M495.862 320.561C465.871 311.162 443.084 336.425 443.084 336.425L449.348 341.851C451.358 333.491 472.944 323.235 488.423 323.235C506.381 323.235 518.962 338.528 518.962 338.528C513.611 327.805 501.421 322.301 495.862 320.561Z" fill="#333242"/>
<path d="M427.423 270.711C422.96 260.741 413.981 250.122 413.485 249.603C413.85 250.122 420.428 260.118 422.464 272.71C424.708 286.497 443.684 274.398 444.807 309.345C445.277 324.144 441.962 330.869 442.536 339.021C445.564 331.699 449.061 311.344 446.973 296.83C444.337 278.5 432.591 282.317 427.423 270.711Z" fill="url(#paint55_linear)"/>
<path d="M494.87 331.206C468.69 319.211 445.59 342.318 445.59 342.318L450.366 346.628C454.986 339.047 474.85 331.959 487.901 333.231C504.136 334.815 514.003 351.172 514.003 351.172C510.192 339.982 499.725 333.439 494.87 331.206Z" fill="#0D5BD9"/>
<path d="M459.737 300.621C455.404 305.736 432.67 345.408 448.252 345.408C453.577 345.408 465.427 323.988 472.292 314.589C478.243 306.437 485.056 306.515 485.056 306.515C485.056 306.515 468.951 289.768 459.737 300.621Z" fill="#0A429F"/>
<path d="M426.744 334.711C432.017 338.372 433.165 343.539 427.919 346.628H446.608C440.265 326.818 426.744 334.711 426.744 334.711Z" fill="#333242"/>
<path d="M420.715 329.57C419.958 329.155 409.595 327 402.626 331.518C394.065 337.074 392.603 347.303 398.059 358.598C398.085 358.649 398.111 358.675 398.111 358.727C398.111 358.727 412.754 352.6 421.916 339.488C430.503 327.156 445.459 338.71 446.477 346.628H450.34C448.826 342.76 440.709 325.208 420.715 329.57Z" fill="#0D5BD9"/>
<path d="M402.626 331.518C394.013 336.97 392.603 347.303 398.059 358.598C398.554 353.976 397.537 346.109 403.436 337.489C406.02 333.699 412.467 330.167 419.88 329.311C417.348 328.584 409.726 327.026 402.626 331.518Z" fill="#0A429F"/>
<path d="M420.35 304.853C420.35 304.853 416.043 300.465 407.951 304.308C399.86 308.176 399.573 318.847 405.028 326.429C405.028 326.429 415.39 323.858 420.454 316.017C425.518 308.176 436.794 311.578 436.794 311.578C436.794 311.578 432.095 301.348 420.35 304.853Z" fill="#0D5BD9"/>
<path d="M407.925 304.334C399.833 308.202 399.546 318.873 405.002 326.455C410.718 304.905 420.323 304.879 420.323 304.879C420.323 304.879 416.017 300.465 407.925 304.334Z" fill="url(#paint56_linear)"/>
<path d="M491.242 292.339C481.715 288.314 476.964 293.611 476.964 293.611C465.975 289.067 458.354 302.231 458.354 302.231C458.354 302.231 468.298 295.117 477.434 306.489C484.168 314.901 495.784 317.679 495.784 317.679C501.683 308.67 500.795 296.389 491.242 292.339Z" fill="url(#paint57_linear)"/>
<path d="M491.242 292.339C481.715 288.314 476.964 293.611 476.964 293.611C476.964 293.611 488.031 293.118 495.758 317.679C501.683 308.67 500.795 296.389 491.242 292.339Z" fill="#0D5BD9"/>
<path d="M403.67 283.303C388.505 282.057 373.679 267.803 372.766 266.92C388.505 285.406 391.246 285.484 401.008 291.118C410.796 296.752 421.472 298.129 427.188 302.335C435.28 308.306 439.273 315.264 441.179 321.366C434.993 282.55 417.791 284.446 403.67 283.303Z" fill="url(#paint58_linear)"/>
<path d="M675.912 130.768H649.967C650.567 135.441 644.72 140.686 642.789 144.814C640.805 149.072 640.048 162.962 663.148 162.962C686.222 162.962 685.596 148.657 683.064 144.814C680.532 140.997 675.312 135.441 675.912 130.768Z" fill="#42445D"/>
<path d="M682.02 143.334C682.62 146.839 682.202 151.253 678.679 153.512C671.188 158.315 662.887 154.135 658.372 147.956C657.432 146.683 654.561 153.018 654.561 153.018C654.561 153.018 648.74 140.27 654.091 130.768H649.941C650.541 135.441 644.694 140.686 642.763 144.814C640.779 149.072 640.022 162.962 663.122 162.962C686.196 162.962 685.57 148.657 683.038 144.814C682.725 144.347 682.385 143.853 682.02 143.334Z" fill="#333242"/>
<path fill-rule="evenodd" clip-rule="evenodd" d="M659.807 278.89C659.598 281.382 658.894 283.407 658.763 285.484C658.607 287.639 659.024 289.82 659.129 292.624C659.416 295.61 658.058 297.895 657.536 300.465C654.9 313.577 657.693 321.6 654.796 331.596C653.856 334.867 652.864 336.009 652.368 337.411C651.716 339.307 652.316 341.643 651.637 345.408C650.75 350.289 648.349 355.222 649.158 357.974C649.941 360.545 655.918 363.063 658.163 363.063C660.851 363.063 659.546 360 659.416 358.078C659.207 355.067 660.303 337.957 661.295 334.192C664.192 323.339 670.744 307.138 672.075 296.804C673.328 287.016 672.493 285.173 674.737 273.697C674.998 272.373 679.723 241.58 680.088 229.169L659.964 239.269C660.486 251.238 660.799 266.401 659.807 278.89Z" fill="#FFC3AB"/>
<path fill-rule="evenodd" clip-rule="evenodd" d="M668.995 269.647C671.475 280.11 669.126 290.469 665.915 300.595C662.313 311.941 660.825 325.754 658.476 332.426C655.422 341.072 657.928 342.526 653.438 350.445C649.21 357.923 657.093 363.011 658.215 363.011C660.903 363.011 659.598 359.948 659.468 358.026C659.259 355.015 660.355 337.905 661.347 334.14C664.244 323.287 670.796 307.086 672.127 296.752C673.38 286.964 672.545 285.121 674.79 273.645C675.051 272.321 679.775 241.528 680.14 229.117L666.385 236.024C668.421 247.214 666.359 258.612 668.995 269.647Z" fill="#FFCAB8"/>
<path fill-rule="evenodd" clip-rule="evenodd" d="M659.442 355.015C658.998 357.066 654.926 358.156 652.942 355.456C651.637 353.691 651.141 351.38 650.802 349.381C650.776 349.303 650.75 349.225 650.75 349.121C649.732 352.652 648.583 355.923 649.184 357.949C649.967 360.545 655.944 363.037 658.189 363.037C660.877 363.037 659.572 359.974 659.442 358.052C659.39 357.481 659.416 356.391 659.442 355.015Z" fill="url(#paint59_linear)"/>
<path fill-rule="evenodd" clip-rule="evenodd" d="M653.673 356.702C653.621 356.495 653.595 356.287 653.595 356.105C653.36 355.923 653.151 355.716 652.969 355.456C651.664 353.691 651.168 351.38 650.828 349.381C650.802 349.303 650.776 349.225 650.776 349.121C649.758 352.652 648.61 355.923 649.21 357.949C649.993 360.545 655.97 363.037 658.215 363.037C659.39 363.037 659.781 362.414 659.86 361.583C658.868 361.739 654.796 360.623 653.673 356.702Z" fill="#FFB725"/>
<path fill-rule="evenodd" clip-rule="evenodd" d="M678.705 161.638C676.538 161.119 672.362 159.925 669.804 158.938C665.393 157.225 666.15 153.382 667.168 147.93L658.998 145.074C658.215 150.863 659.572 157.484 653.569 155.848C646.417 153.901 642.998 155.225 640.753 164.572L673.902 180.072C673.902 186.537 676.512 192.561 678.052 197.883L684.995 195.131C684.265 187.732 682.646 162.573 678.705 161.638Z" fill="#FFCAB8"/>
<path fill-rule="evenodd" clip-rule="evenodd" d="M629.816 187.031L635.376 192.249C639.056 187.628 649.184 164.572 649.184 164.572L639.735 160.626C634.985 168.597 631.565 182.747 629.816 187.031Z" fill="#FFCAB8"/>
<path fill-rule="evenodd" clip-rule="evenodd" d="M644.485 162.988C643.572 166.26 637.177 164.287 635.872 168.908C635.376 170.674 637.203 174.101 637.856 175.581C638.195 176.334 638.769 183.084 636.394 187.524C635.898 188.433 632.948 188.926 632.27 189.341L635.376 192.249C639.056 187.628 649.184 164.572 649.184 164.572L644.538 162.625C644.512 162.755 644.512 162.859 644.485 162.988Z" fill="#FFC3AB"/>
<path fill-rule="evenodd" clip-rule="evenodd" d="M653.595 155.848C649.654 154.758 646.835 154.706 644.747 156.42C646.443 155.9 648.27 155.745 649.836 155.952C652.238 156.238 654.143 158.627 656.231 158.886C660.094 159.354 664.453 154.265 666.672 150.967C666.829 150.033 667.011 149.02 667.194 147.956L659.024 145.1C658.267 150.889 659.598 157.51 653.595 155.848Z" fill="#FFC3AB"/>
<path fill-rule="evenodd" clip-rule="evenodd" d="M677.478 180.903C677.243 181.293 675.025 183.5 674.007 183.863C674.189 188.848 676.852 193.651 678.105 197.909L680.767 197.364C679.801 193.677 677.817 188.926 677.713 184.928C677.661 183.526 677.556 182.201 677.478 180.903Z" fill="#FFC3AB"/>
<path fill-rule="evenodd" clip-rule="evenodd" d="M665.106 123.394C662.13 122.979 659.834 123.368 658.059 124.329C654.378 126.302 653.047 130.768 653.073 135.623C653.073 135.805 653.073 135.986 653.073 136.194C653.073 136.376 653.073 136.532 653.073 136.713C653.099 136.947 653.099 137.181 653.099 137.44C653.178 138.505 653.256 139.44 653.36 140.322C653.621 142.296 653.961 143.853 654.509 145.151C655.187 146.813 659.807 152.759 663.436 152.655C666.777 152.551 671.292 146.917 672.023 145.619C672.884 144.035 673.302 142.373 673.511 140.608C673.667 139.336 673.72 138.012 673.772 136.584V136.532C673.798 136.194 673.798 135.857 673.798 135.545C673.85 129.781 671.866 124.329 665.106 123.394Z" fill="#FFCAB8"/>
<path fill-rule="evenodd" clip-rule="evenodd" d="M672.388 341.799C671.893 340.397 670.77 340.683 669.831 337.411C666.933 327.415 669.857 317.965 667.22 304.853C666.698 302.283 665.341 299.998 665.628 297.012C665.733 294.208 666.15 292.027 665.994 289.872C665.837 287.821 665.132 285.77 664.95 283.277C664.323 275.281 664.219 272.139 664.349 260.533C664.558 243.008 665.967 234.674 659.546 221.562L646.208 221.614L644.642 233.557C645.06 247.136 647.383 261.208 650.385 276.579C652.603 288.055 651.977 292.598 653.23 302.387C654.561 312.694 665.184 341.825 665.498 345.798C665.576 346.888 665.811 360.623 666.02 362.466C666.228 364.361 666.02 368.905 668.604 368.905C670.848 368.905 675.025 364.076 675.599 362.336C676.46 359.636 674.033 354.677 673.119 349.796C672.415 346.005 673.041 343.694 672.388 341.799Z" fill="#FFCAB8"/>
<path fill-rule="evenodd" clip-rule="evenodd" d="M668.081 362.362C667.168 362.362 666.541 361.35 665.915 360.805C665.941 361.583 665.993 362.181 666.019 362.466C666.228 364.362 666.019 368.905 668.603 368.905C670.848 368.905 675.024 364.076 675.599 362.336C676.251 360.337 675.077 357.144 674.085 353.639C673.902 354.288 672.701 362.362 668.081 362.362Z" fill="url(#paint60_linear)"/>
<path fill-rule="evenodd" clip-rule="evenodd" d="M669.596 363.635C669.491 363.037 669.491 362.518 669.543 362.025C669.1 362.233 668.604 362.336 668.056 362.336C667.142 362.336 666.516 361.324 665.889 360.779C665.915 361.557 665.967 362.155 665.994 362.44C666.202 364.336 665.994 368.879 668.578 368.879C670.039 368.879 672.31 366.828 673.902 364.933C673.511 365.114 673.093 365.27 672.676 365.374C671.501 365.712 669.804 365.011 669.596 363.635Z" fill="#FFB725"/>
<path fill-rule="evenodd" clip-rule="evenodd" d="M640.022 207.594C639.944 208.165 638.795 217.72 638.717 218.239C636.733 235.738 643.389 259.884 648.244 283.044C660.199 287.016 677.113 282.343 677.113 282.343C677.113 282.343 684.682 246.591 684.682 228.754C684.682 216.525 677.739 209.281 677.061 205.439C668.238 210.554 644.016 208.632 640.022 207.594Z" fill="#0A429F"/>
<path fill-rule="evenodd" clip-rule="evenodd" d="M657.98 270.919C656.701 266.349 654.3 257.807 654.717 253.082C655.631 242.93 642.162 237.192 646.913 232.83C649.132 230.805 655.553 227.845 657.197 224.626C658.502 222.03 653.177 209.489 653.177 209.489C653.177 209.489 640.048 207.853 639.97 207.802C639.97 207.802 638.769 217.746 638.717 218.239C636.733 235.738 643.389 259.884 648.244 283.044C657.328 286.056 669.23 284.108 674.45 282.992C669.935 277.436 659.938 277.955 657.98 270.919Z" fill="#0D5BD9"/>
<path fill-rule="evenodd" clip-rule="evenodd" d="M673.328 159.795L663.122 162.962C663.122 162.962 657.954 158.704 654.43 155.511C654.43 155.511 645.556 150.24 636.603 161.716C635.585 163.014 641.667 165.351 640.883 171.946C639.578 183.058 636.629 204.27 639.631 207.827C642.476 211.177 676.408 212.371 677.4 206.633C677.974 203.284 674.92 201.544 673.98 197.728C673.302 195.027 673.563 192.042 674.398 186.979C676.591 185.187 680.741 182.851 678.548 176.957C676.956 172.673 685.1 172.829 684.708 169.635C683.482 160.132 673.328 159.795 673.328 159.795Z" fill="#0A429F"/>
<path fill-rule="evenodd" clip-rule="evenodd" d="M647.539 200.428C644.981 198.507 646.73 196.663 649.288 198.61C652.133 200.765 660.486 204.244 660.486 200.739C660.486 192.483 668.316 187.186 670.405 184.85C672.388 182.643 664.923 175.243 668.421 173.114C668.682 172.958 669.126 171.92 669.073 171.479C668.76 168.077 672.101 168.129 669.987 166.078C667.873 164.001 666.489 164.936 663.801 165.689C658.058 167.272 641.614 165.325 640.857 171.92C639.552 183.032 636.603 204.244 639.605 207.801C641.849 210.424 663.201 211.722 672.78 209.411C670.848 208.58 667.56 207.853 665.497 207.827C656.988 207.698 652.264 204.037 647.539 200.428ZM645.947 181.189C646.443 179.164 645.504 176.853 644.381 175.191C643.52 173.945 647.539 174.101 649.732 172.829C651.142 172.024 653.882 169.064 655.944 171.53C658.346 174.386 655.005 177.502 659.859 180.15C664.062 182.435 661.321 186.044 658.137 186.563C654.587 187.161 651.82 182.643 650.254 183.655C647.566 185.421 645.19 184.305 645.947 181.189Z" fill="#0D5BD9"/>
<path fill-rule="evenodd" clip-rule="evenodd" d="M663.409 143.801C662.444 143.827 661.504 144.243 661.452 144.425C661.295 144.84 661.922 144.97 662.287 144.97C662.417 144.97 662.705 144.996 662.887 145.048C663.2 145.1 663.514 145.1 663.827 145.022C664.01 144.97 664.297 144.918 664.427 144.892C664.793 144.866 665.497 144.632 665.21 144.295C665.028 144.061 664.323 143.775 663.409 143.801Z" fill="#FFC3AB"/>
<path d="M665.106 122.122C662.13 121.706 659.834 122.096 658.059 123.057C654.378 125.03 653.047 129.496 653.073 134.351C653.7 132.429 654.822 130.067 656.78 128.483C656.78 128.483 660.042 131.599 664.323 133.286C664.323 133.286 661.661 129.288 661.165 127.678C661.478 127.86 666.176 130.949 673.537 139.284C673.694 137.986 673.746 136.635 673.798 135.207C674.059 129.158 672.258 123.108 665.106 122.122Z" fill="#FFC3AB"/>
<path d="M663.488 117.189C657.328 117.189 655.031 122.304 655.031 122.304C655.031 122.304 650.672 123.16 649.915 127.159C649.262 130.586 650.619 134.091 653.151 136.739C653.151 136.739 653.778 130.742 657.589 127.704C657.589 127.704 660.851 130.82 665.132 132.507C665.132 132.507 662.47 128.483 661.974 126.873C661.974 126.873 667.22 130.171 675.468 139.777C674.946 135.597 675.938 133.546 675.938 128.794C675.912 123.394 671.188 117.189 663.488 117.189Z" fill="#42445D"/>
<path d="M659.886 125.419C660.878 128.483 663.383 131.832 665.106 132.507C665.106 132.507 662.444 128.483 661.948 126.873C661.948 126.873 667.194 130.171 675.442 139.777C675.416 139.699 669.256 125.419 659.886 125.419Z" fill="#333242"/>
<path d="M650.567 125.419C650.28 125.913 650.045 126.484 649.915 127.159C649.262 130.586 650.619 134.091 653.125 136.739C653.125 136.739 653.282 135.207 653.934 133.286C650.437 132.377 649.314 128.353 650.567 125.419Z" fill="#333242"/>
<path d="M669.23 141.439C667.09 141.517 665.289 139.985 665.21 138.063C665.158 136.454 666.307 135.727 669.021 135.649C669.595 135.623 670.091 135.649 670.535 135.701C670.378 135.545 670.274 135.363 670.144 135.207C669.752 135.182 669.36 135.182 668.995 135.182C667.559 135.233 665.732 135.467 665.028 136.713V136.687C664.871 136.921 664.297 137.051 664.14 137.051C664.01 137.051 663.435 137.077 663.096 137.077C662.757 137.077 662.156 137.103 662.026 137.103C661.895 137.103 661.295 137.025 661.112 136.791V136.843C660.329 135.649 658.502 135.545 657.067 135.597C656.257 135.623 655.318 135.727 654.535 136.012C654.561 136.012 654.561 135.986 654.587 135.96C654.169 136.064 653.517 136.142 653.047 136.168C653.047 136.35 653.047 136.506 653.047 136.687C653.073 136.921 653.073 137.155 653.073 137.414C653.151 138.479 653.23 139.414 653.334 140.296C654.117 141.543 655.605 142.373 657.275 142.296C659.598 142.218 661.426 140.504 661.504 138.427V138.479C661.765 137.882 662.626 137.7 663.096 137.674C663.54 137.674 664.427 137.778 664.714 138.349V138.297C664.949 140.348 666.881 141.932 669.204 141.88C671.214 141.802 672.858 140.504 673.302 138.79C673.302 138.842 673.302 138.868 673.302 138.868C673.328 138.842 673.328 138.79 673.328 138.764C673.171 138.583 673.041 138.401 672.91 138.219C672.806 139.959 671.214 141.361 669.23 141.439ZM657.328 141.854C655.187 141.932 653.36 140.426 653.308 138.479C653.256 136.869 654.378 136.142 657.119 136.064C659.833 135.96 661.034 136.61 661.086 138.219C661.165 140.141 659.468 141.776 657.328 141.854Z" fill="#FFC3AB"/>
<path d="M669.387 134.792C667.507 134.844 665.028 135.233 665.106 137.7C665.184 139.907 667.22 141.62 669.622 141.543C672.023 141.465 673.928 139.595 673.85 137.414C673.798 134.922 671.266 134.714 669.387 134.792ZM669.622 141.049C667.481 141.127 665.68 139.621 665.602 137.674C665.55 136.064 666.698 135.337 669.413 135.259C672.153 135.156 673.328 135.805 673.38 137.414C673.459 139.362 671.762 140.971 669.622 141.049Z" fill="white"/>
<path d="M673.902 135.104C673.589 135.104 672.467 135.13 671.866 135C671.866 135 672.597 135.285 673.25 136.038C673.746 136.635 673.746 138.505 673.746 138.505C673.981 137.856 674.007 136.999 674.007 136.609C674.007 136.246 674.085 136.142 674.242 136.142C674.398 136.116 674.424 136.038 674.424 135.934C674.424 135.831 674.398 135.389 674.398 135.233C674.398 135.104 674.242 135.104 673.902 135.104Z" fill="white"/>
<path d="M657.484 135.208C655.605 135.259 653.125 135.649 653.203 138.115C653.282 140.322 655.318 142.036 657.719 141.958C660.146 141.88 662.026 140.011 661.947 137.83C661.869 135.337 659.363 135.13 657.484 135.208ZM657.693 141.465C655.553 141.543 653.752 140.037 653.673 138.089C653.621 136.48 654.77 135.753 657.484 135.675C660.225 135.571 661.399 136.22 661.452 137.83C661.53 139.777 659.833 141.387 657.693 141.465Z" fill="white"/>
<path d="M652.525 136.012C652.525 136.168 652.551 136.61 652.551 136.713C652.551 136.817 652.577 136.895 652.734 136.895C652.89 136.895 652.995 136.999 652.995 137.362C652.995 137.726 653.099 138.609 653.386 139.232C653.386 139.232 653.256 137.362 653.699 136.739C654.274 135.935 655.004 135.597 655.004 135.597C654.404 135.779 653.308 135.831 652.969 135.857C652.681 135.831 652.525 135.883 652.525 136.012Z" fill="white"/>
<path d="M663.487 136.687C663.148 136.687 662.574 136.713 662.417 136.713C662.287 136.713 661.687 136.636 661.504 136.402L661.922 138.141C662.183 137.544 663.044 137.363 663.487 137.337C663.957 137.311 664.819 137.44 665.106 138.012L665.419 136.246C665.262 136.48 664.662 136.61 664.531 136.61C664.427 136.661 663.827 136.661 663.487 136.687Z" fill="white"/>
<path fill-rule="evenodd" clip-rule="evenodd" d="M677.609 196.455C669.126 197.909 663.07 201.752 658.528 202.012C657.458 202.064 656.44 202.427 655.475 201.7C653.413 200.168 651.246 200.246 648.975 200.324C646.887 200.402 649.184 202.038 646.73 202.453C645.269 202.687 640.936 202.92 640.805 203.492C640.57 204.66 641.902 204.634 643.416 204.504C643.155 205.179 643.624 206.088 644.564 206.01C644.538 206.945 645.295 207.594 646.182 207.542C646.261 208.788 647.2 209.126 648.793 208.788C650.515 208.451 653.282 208.451 657.954 207.62C664.062 206.529 665.289 207.334 669.726 206.945C674.085 206.555 680.741 206.062 684.369 203.466C685.648 202.531 685.674 198.481 684.943 194.456C682.072 195.079 680.48 195.962 677.609 196.455Z" fill="#FFCAB8"/>
<path fill-rule="evenodd" clip-rule="evenodd" d="M643.546 198.403C643.781 199.597 644.851 200.298 646.521 200.168C647.122 200.739 647.513 201.363 647.931 201.7L652.316 200.402L647.592 198.766C646.704 198.766 645.686 198.818 643.546 198.403Z" fill="#FFCAB8"/>
<path fill-rule="evenodd" clip-rule="evenodd" d="M628.537 187.446C621.177 192.639 605.698 203.881 603.297 202.998C600.713 202.038 598.468 202.115 596.145 202.791C594.005 203.414 596.824 204.504 594.37 205.569C592.935 206.192 588.523 207.568 588.549 208.191C588.628 209.463 589.985 209.074 591.499 208.554C591.421 209.333 592.125 210.138 593.091 209.827C593.326 210.787 594.266 211.255 595.179 210.995C595.597 212.241 596.641 212.371 598.207 211.618C599.878 210.813 602.775 210.112 607.343 208.009C613.346 205.283 629.947 201.674 636.081 192.171C637.36 190.224 631.043 185.655 628.537 187.446Z" fill="#FFCAB8"/>
<path fill-rule="evenodd" clip-rule="evenodd" d="M634.254 188.718C633.157 189.315 630.547 191.626 630.13 191.938C626.554 194.612 623.291 197.65 619.219 199.415C615.121 201.207 609.718 205.127 605.594 206.841C604.263 207.386 601.914 206.607 599.825 205.802C598.52 205.309 597.137 205.127 595.78 205.309C595.179 205.387 594.683 205.413 594.396 205.543C592.961 206.166 588.549 207.542 588.576 208.165C588.654 209.437 590.011 209.048 591.525 208.528C591.447 209.307 592.152 210.112 593.117 209.801C593.352 210.761 594.292 211.229 595.205 210.969C595.623 212.215 596.667 212.345 598.233 211.592C599.225 211.125 605.516 208.84 607.369 207.983C613.372 205.257 629.973 201.648 636.107 192.145C637.099 190.64 635.402 189.341 634.254 188.718Z" fill="#FFC3AB"/>
<path fill-rule="evenodd" clip-rule="evenodd" d="M590.846 202.505C591.395 203.673 592.7 204.115 594.396 203.543C595.649 204.167 596.745 204.452 597.685 204.27L600.374 202.271L595.127 201.804C594.187 202.038 593.17 202.375 590.846 202.505Z" fill="#FFCAB8"/>
<path d="M605.437 210.45L605.907 207.1L525.096 197.26L605.437 210.45Z" fill="#333242"/>
<path fill-rule="evenodd" clip-rule="evenodd" d="M593.222 206.529C591.447 206.997 591.055 207.126 589.333 207.75C588.654 207.983 588.367 208.451 588.549 208.762C588.706 209.074 588.993 209.333 589.855 209.074C591.368 208.606 592.413 208.165 593.796 207.49C594.866 206.971 594.892 206.088 593.222 206.529Z" fill="#FFCAB8"/>
<path fill-rule="evenodd" clip-rule="evenodd" d="M596.876 206.686C595.153 207.283 593.639 208.01 591.917 208.581C591.238 208.815 591.29 209.204 591.499 209.516C591.682 209.828 592.021 210.113 592.83 209.776C594.292 209.178 596.119 208.348 597.476 207.543C598.52 206.946 598.52 206.115 596.876 206.686Z" fill="#FFCAB8"/>
<path fill-rule="evenodd" clip-rule="evenodd" d="M597.894 207.957C596.38 208.554 595.153 209.255 593.639 209.853C593.039 210.086 593.143 210.528 593.326 210.865C593.509 211.177 593.822 211.462 594.553 211.125C595.858 210.528 597.45 209.671 598.625 208.866C599.512 208.243 599.329 207.386 597.894 207.957Z" fill="#FFCAB8"/>
<path fill-rule="evenodd" clip-rule="evenodd" d="M599.304 209.411C597.79 210.008 597.059 210.346 595.545 210.943C594.944 211.177 595.023 211.566 595.206 211.878C595.388 212.189 595.701 212.475 596.432 212.137C597.737 211.54 598.729 211.073 599.904 210.294C600.791 209.697 600.739 208.866 599.304 209.411Z" fill="#FFCAB8"/>
<path d="M648.505 201.285C648.505 201.311 648.505 201.311 648.505 201.285C648.505 202.167 649.236 202.894 650.098 202.894H687.789C688.676 202.894 689.381 202.167 689.381 201.311H648.505V201.285Z" fill="#42445D"/>
<path d="M644.433 168.233C644.068 166.935 642.893 166.052 641.536 166.104H618.41V202.505L650.332 202.894C652.29 202.894 652.394 201.388 652.264 200.869L644.433 168.233Z" fill="#42445D"/>
<path d="M642.763 166.779C642.658 166.363 642.267 166.104 641.849 166.104H601.026C600.4 166.104 599.956 166.701 600.112 167.298L607.76 199.545C608.308 201.544 610.136 202.92 612.224 202.92H650.228C650.854 202.92 651.298 202.323 651.141 201.726L642.763 166.779Z" fill="url(#paint61_linear)"/>
<path d="M537.781 330.661L538.773 326.091C538.773 326.091 537.233 322.742 535.719 322.872C534.179 323.002 533.292 323.417 533.292 323.417C533.292 323.417 534.075 321.184 532.274 319.575C530.473 317.939 525.853 316.147 521.859 313.992C522.016 314.226 524.992 318.744 525.931 324.456C526.949 330.687 535.537 325.209 536.033 341.021C536.241 347.719 533.135 350.16 533.396 353.847C533.449 354.703 533.71 355.638 534.206 356.677C534.206 356.677 541.958 345.019 539.765 329.778L537.781 330.661Z" fill="url(#paint62_linear)"/>
<path d="M521.859 344.603C521.859 344.603 525.018 342.215 526.636 345.824C529.507 352.211 531.621 357.299 533.71 357.299C539.896 357.299 533.971 343.694 532.17 341.773C528.359 337.697 521.859 344.603 521.859 344.603Z" fill="#333242"/>
<path d="M527.393 326.351C527.549 326.974 526.453 329.103 526.453 329.103C526.453 329.103 525.357 326.091 524.783 325.338C524.235 324.585 516.926 323.599 516.717 323.573C518.362 325.546 518.57 327.156 518.57 327.156C518.57 327.156 516.065 323.469 512.254 323.677C508.443 323.884 503.405 321.781 503.405 321.781C503.405 321.781 503.405 321.781 503.431 321.807C510.557 330.167 511.784 330.219 516.195 332.764C520.606 335.308 525.435 335.931 528.045 337.827C531.7 340.527 533.501 343.668 534.362 346.447C535.145 348.965 535.145 351.172 535.067 352.418C535.015 352.963 534.962 353.327 534.936 353.457C534.988 353.249 535.041 353.041 535.093 352.834C539.556 334.166 527.21 325.728 527.393 326.351Z" fill="#0D5BD9"/>
<path d="M559.133 346.083C545.56 341.851 535.25 353.275 535.25 353.275L538.095 355.742C539.008 351.951 548.77 347.329 555.765 347.329C563.883 347.329 569.573 354.262 569.573 354.262C567.146 349.355 561.638 346.862 559.133 346.083Z" fill="#333242"/>
<path d="M528.15 323.521C526.14 319.003 522.068 314.2 521.833 313.966C521.99 314.2 524.965 318.718 525.905 324.43C526.923 330.661 535.511 325.182 536.007 340.994C536.215 347.693 534.728 350.731 534.989 354.417C536.346 351.094 537.938 341.903 536.998 335.334C535.824 327.052 530.499 328.765 528.15 323.521Z" fill="#0A429F"/>
<path d="M558.663 350.886C546.813 345.46 536.372 355.923 536.372 355.923L538.538 357.871C540.626 354.443 549.632 351.224 555.504 351.821C562.839 352.548 567.303 359.948 567.303 359.948C565.606 354.859 560.855 351.899 558.663 350.886Z" fill="#0D5BD9"/>
<path d="M542.767 337.048C540.809 339.359 530.525 357.299 537.573 357.299C539.974 357.299 545.351 347.615 548.431 343.357C551.119 339.67 554.199 339.696 554.199 339.696C554.199 339.696 546.943 332.141 542.767 337.048Z" fill="#0D5BD9"/>
<path d="M527.863 352.47C530.238 354.132 530.76 356.469 528.385 357.871H536.842C533.97 348.913 527.863 352.47 527.863 352.47Z" fill="#333242"/>
<path d="M525.122 350.133C524.783 349.952 520.084 348.965 516.926 351.016C513.063 353.535 512.384 358.156 514.864 363.271C514.864 363.297 514.89 363.297 514.89 363.323C514.89 363.323 521.52 360.545 525.644 354.625C529.533 349.043 536.293 354.288 536.763 357.871H538.512C537.833 356.105 534.179 348.16 525.122 350.133Z" fill="#0D5BD9"/>
<path d="M516.952 351.016C513.063 353.483 512.411 358.156 514.89 363.271C515.125 361.194 514.655 357.611 517.318 353.716C518.492 352.003 521.416 350.419 524.757 350.004C523.608 349.692 520.163 348.991 516.952 351.016Z" fill="url(#paint63_linear)"/>
<path d="M524.965 338.969C524.965 338.969 523.008 336.97 519.354 338.735C515.699 340.475 515.569 345.304 518.049 348.731C518.049 348.731 522.721 347.563 525.018 344.032C527.315 340.501 532.404 342.007 532.404 342.007C532.404 342.007 530.264 337.385 524.965 338.969Z" fill="#0D5BD9"/>
<path d="M519.354 338.735C515.699 340.475 515.569 345.304 518.048 348.731C520.633 338.969 524.965 338.969 524.965 338.969C524.965 338.969 523.008 336.996 519.354 338.735Z" fill="url(#paint64_linear)"/>
<path d="M557.045 333.309C552.738 331.492 550.597 333.88 550.597 333.88C545.638 331.829 542.193 337.775 542.193 337.775C542.193 337.775 546.682 334.555 550.832 339.696C553.886 343.513 559.133 344.759 559.133 344.759C561.743 340.683 561.351 335.126 557.045 333.309Z" fill="url(#paint65_linear)"/>
<path d="M557.045 333.309C552.738 331.492 550.597 333.88 550.597 333.88C550.597 333.88 555.609 333.673 559.107 344.759C561.743 340.683 561.351 335.126 557.045 333.309Z" fill="#0D5BD9"/>
<path d="M517.422 329.207C510.557 328.636 503.849 322.197 503.431 321.807C510.557 330.168 511.784 330.219 516.195 332.764C520.606 335.308 525.435 335.931 528.045 337.827C531.7 340.527 533.501 343.669 534.362 346.447C531.595 328.869 523.817 329.726 517.422 329.207Z" fill="url(#paint66_linear)"/>
</g>
<circle cx="54.2207" cy="37.9051" r="3" fill="#42FFC5"/>
<circle cx="54.2207" cy="59.9051" r="3" fill="#42FFC5"/>
<circle cx="54.2207" cy="48.9051" r="3" fill="#42FFC5"/>
<circle cx="54.2207" cy="37.9051" r="3" fill="#42FFC5"/>
<circle cx="54.2207" cy="59.9051" r="3" fill="#42FFC5"/>
<circle cx="54.2207" cy="48.9051" r="3" fill="#42FFC5"/>
<circle cx="76.2207" cy="37.9051" r="3" fill="#42FFC5"/>
<circle cx="76.2207" cy="59.9051" r="3" fill="#42FFC5"/>
<circle cx="76.2207" cy="48.9051" r="3" fill="#42FFC5"/>
<circle cx="65.2207" cy="37.9051" r="3" fill="#42FFC5"/>
<circle cx="65.2207" cy="59.9051" r="3" fill="#42FFC5"/>
<circle cx="65.2207" cy="48.9051" r="3" fill="#42FFC5"/>
<circle cx="65.2207" cy="37.9051" r="3" fill="#42FFC5"/>
<circle cx="65.2207" cy="59.9051" r="3" fill="#42FFC5"/>
<circle cx="65.2207" cy="48.9051" r="3" fill="#42FFC5"/>
<circle cx="87.2207" cy="37.9051" r="3" fill="#42FFC5"/>
<circle cx="87.2207" cy="48.9051" r="3" fill="#42FFC5"/>
</g>
<defs>
<filter id="filter0_d" x="37.7031" y="-128.288" width="804.816" height="802.743" filterUnits="userSpaceOnUse" color-interpolation-filters="sRGB">
<feFlood flood-opacity="0" result="BackgroundImageFix"/>
<feColorMatrix in="SourceAlpha" type="matrix" values="0 0 0 0 0 0 0 0 0 0 0 0 0 0 0 0 0 0 127 0"/>
<feOffset dy="4"/>
<feGaussianBlur stdDeviation="10"/>
<feColorMatrix type="matrix" values="0 0 0 0 0.247059 0 0 0 0 0.215686 0 0 0 0 0.682353 0 0 0 0.4 0"/>
<feBlend mode="normal" in2="BackgroundImageFix" result="effect1_dropShadow"/>
<feBlend mode="normal" in="SourceGraphic" in2="effect1_dropShadow" result="shape"/>
</filter>
<filter id="filter1_d" x="4.4248" y="-168.546" width="787.932" height="787.638" filterUnits="userSpaceOnUse" color-interpolation-filters="sRGB">
<feFlood flood-opacity="0" result="BackgroundImageFix"/>
<feColorMatrix in="SourceAlpha" type="matrix" values="0 0 0 0 0 0 0 0 0 0 0 0 0 0 0 0 0 0 127 0"/>
<feOffset dy="4"/>
<feGaussianBlur stdDeviation="9"/>
<feColorMatrix type="matrix" values="0 0 0 0 0 0 0 0 0 0 0 0 0 0 0 0 0 0 0.4 0"/>
<feBlend mode="normal" in2="BackgroundImageFix" result="effect1_dropShadow"/>
<feBlend mode="normal" in="SourceGraphic" in2="effect1_dropShadow" result="shape"/>
</filter>
<filter id="filter2_d" x="141.034" y="12.4867" width="601.373" height="373.624" filterUnits="userSpaceOnUse" color-interpolation-filters="sRGB">
<feFlood flood-opacity="0" result="BackgroundImageFix"/>
<feColorMatrix in="SourceAlpha" type="matrix" values="0 0 0 0 0 0 0 0 0 0 0 0 0 0 0 0 0 0 127 0"/>
<feOffset dy="4"/>
<feGaussianBlur stdDeviation="8"/>
<feColorMatrix type="matrix" values="0 0 0 0 0 0 0 0 0 0 0 0 0 0 0 0 0 0 0.08 0"/>
<feBlend mode="normal" in2="BackgroundImageFix" result="effect1_dropShadow"/>
<feBlend mode="normal" in="SourceGraphic" in2="effect1_dropShadow" result="shape"/>
</filter>
<linearGradient id="paint0_linear" x1="593.713" y1="413.601" x2="202.849" y2="26.6634" gradientUnits="userSpaceOnUse">
<stop stop-color="#EE0979"/>
<stop offset="1" stop-color="#FF6A00"/>
</linearGradient>
<linearGradient id="paint1_linear" x1="208.932" y1="247.132" x2="328.991" y2="247.132" gradientUnits="userSpaceOnUse">
<stop stop-color="#FB6B14"/>
<stop offset="1" stop-color="#FDB522"/>
</linearGradient>
<linearGradient id="paint2_linear" x1="387.417" y1="323.482" x2="412.82" y2="334.942" gradientUnits="userSpaceOnUse">
<stop stop-color="#FB6B14"/>
<stop offset="1" stop-color="#FDB522"/>
</linearGradient>
<linearGradient id="paint3_linear" x1="402.393" y1="280.924" x2="393.071" y2="287.244" gradientUnits="userSpaceOnUse">
<stop offset="2.5e-07" stop-color="#EFF6FF"/>
<stop offset="1" stop-color="#8AA8DA"/>
</linearGradient>
<linearGradient id="paint4_linear" x1="264.849" y1="275.609" x2="245.338" y2="262.369" gradientUnits="userSpaceOnUse">
<stop offset="2.5e-07" stop-color="#EFF6FF"/>
<stop offset="1" stop-color="#8AA8DA"/>
</linearGradient>
<linearGradient id="paint5_linear" x1="588.345" y1="267.809" x2="627.472" y2="221.518" gradientUnits="userSpaceOnUse">
<stop stop-color="#FB6B14"/>
<stop offset="1" stop-color="#FDB522"/>
</linearGradient>
<linearGradient id="paint6_linear" x1="548.591" y1="319.811" x2="529.574" y2="314.458" gradientUnits="userSpaceOnUse">
<stop stop-color="#FB6B14"/>
<stop offset="1" stop-color="#FDB522"/>
</linearGradient>
<linearGradient id="paint7_linear" x1="615.751" y1="274.164" x2="630.61" y2="269.972" gradientUnits="userSpaceOnUse">
<stop offset="2.5e-07" stop-color="#EFF6FF"/>
<stop offset="1" stop-color="#8AA8DA"/>
</linearGradient>
<linearGradient id="paint8_linear" x1="547.061" y1="298.369" x2="547.061" y2="223.623" gradientUnits="userSpaceOnUse">
<stop offset="1.5e-07" stop-color="#EFF6FF"/>
<stop offset="1" stop-color="#C4D8FB"/>
</linearGradient>
<linearGradient id="paint9_linear" x1="547.061" y1="298.37" x2="547.061" y2="223.624" gradientUnits="userSpaceOnUse">
<stop offset="1.5e-07" stop-color="#EFF6FF"/>
<stop offset="1" stop-color="#C4D8FB"/>
</linearGradient>
<linearGradient id="paint10_linear" x1="547.061" y1="298.37" x2="547.061" y2="223.624" gradientUnits="userSpaceOnUse">
<stop offset="1.5e-07" stop-color="#EFF6FF"/>
<stop offset="1" stop-color="#C4D8FB"/>
</linearGradient>
<linearGradient id="paint11_linear" x1="547.061" y1="298.37" x2="547.061" y2="223.624" gradientUnits="userSpaceOnUse">
<stop offset="1.5e-07" stop-color="#EFF6FF"/>
<stop offset="1" stop-color="#C4D8FB"/>
</linearGradient>
<linearGradient id="paint12_linear" x1="547.061" y1="298.37" x2="547.061" y2="223.623" gradientUnits="userSpaceOnUse">
<stop offset="1.5e-07" stop-color="#EFF6FF"/>
<stop offset="1" stop-color="#C4D8FB"/>
</linearGradient>
<linearGradient id="paint13_linear" x1="547.061" y1="298.37" x2="547.061" y2="223.623" gradientUnits="userSpaceOnUse">
<stop offset="1.5e-07" stop-color="#EFF6FF"/>
<stop offset="1" stop-color="#C4D8FB"/>
</linearGradient>
<linearGradient id="paint14_linear" x1="547.061" y1="298.37" x2="547.061" y2="223.623" gradientUnits="userSpaceOnUse">
<stop offset="1.5e-07" stop-color="#EFF6FF"/>
<stop offset="1" stop-color="#C4D8FB"/>
</linearGradient>
<linearGradient id="paint15_linear" x1="547.061" y1="298.37" x2="547.061" y2="223.623" gradientUnits="userSpaceOnUse">
<stop offset="1.5e-07" stop-color="#EFF6FF"/>
<stop offset="1" stop-color="#C4D8FB"/>
</linearGradient>
<linearGradient id="paint16_linear" x1="547.061" y1="298.37" x2="547.061" y2="223.624" gradientUnits="userSpaceOnUse">
<stop offset="1.5e-07" stop-color="#EFF6FF"/>
<stop offset="1" stop-color="#C4D8FB"/>
</linearGradient>
<linearGradient id="paint17_linear" x1="603.692" y1="298.37" x2="603.692" y2="223.623" gradientUnits="userSpaceOnUse">
<stop offset="1.5e-07" stop-color="#EFF6FF"/>
<stop offset="1" stop-color="#C4D8FB"/>
</linearGradient>
<linearGradient id="paint18_linear" x1="603.692" y1="298.37" x2="603.692" y2="223.623" gradientUnits="userSpaceOnUse">
<stop offset="1.5e-07" stop-color="#EFF6FF"/>
<stop offset="1" stop-color="#C4D8FB"/>
</linearGradient>
<linearGradient id="paint19_linear" x1="603.692" y1="298.37" x2="603.692" y2="223.623" gradientUnits="userSpaceOnUse">
<stop offset="1.5e-07" stop-color="#EFF6FF"/>
<stop offset="1" stop-color="#C4D8FB"/>
</linearGradient>
<linearGradient id="paint20_linear" x1="603.692" y1="298.37" x2="603.692" y2="223.623" gradientUnits="userSpaceOnUse">
<stop offset="1.5e-07" stop-color="#EFF6FF"/>
<stop offset="1" stop-color="#C4D8FB"/>
</linearGradient>
<linearGradient id="paint21_linear" x1="603.692" y1="298.37" x2="603.692" y2="223.623" gradientUnits="userSpaceOnUse">
<stop offset="1.5e-07" stop-color="#EFF6FF"/>
<stop offset="1" stop-color="#C4D8FB"/>
</linearGradient>
<linearGradient id="paint22_linear" x1="603.692" y1="298.37" x2="603.692" y2="223.624" gradientUnits="userSpaceOnUse">
<stop offset="1.5e-07" stop-color="#EFF6FF"/>
<stop offset="1" stop-color="#C4D8FB"/>
</linearGradient>
<linearGradient id="paint23_linear" x1="603.692" y1="298.37" x2="603.692" y2="223.624" gradientUnits="userSpaceOnUse">
<stop offset="1.5e-07" stop-color="#EFF6FF"/>
<stop offset="1" stop-color="#C4D8FB"/>
</linearGradient>
<linearGradient id="paint24_linear" x1="603.692" y1="298.369" x2="603.692" y2="223.623" gradientUnits="userSpaceOnUse">
<stop offset="1.5e-07" stop-color="#EFF6FF"/>
<stop offset="1" stop-color="#C4D8FB"/>
</linearGradient>
<linearGradient id="paint25_linear" x1="603.692" y1="298.371" x2="603.692" y2="223.624" gradientUnits="userSpaceOnUse">
<stop offset="1.5e-07" stop-color="#EFF6FF"/>
<stop offset="1" stop-color="#C4D8FB"/>
</linearGradient>
<linearGradient id="paint26_linear" x1="603.692" y1="298.37" x2="603.692" y2="223.624" gradientUnits="userSpaceOnUse">
<stop offset="1.5e-07" stop-color="#EFF6FF"/>
<stop offset="1" stop-color="#C4D8FB"/>
</linearGradient>
<linearGradient id="paint27_linear" x1="603.692" y1="298.37" x2="603.692" y2="223.623" gradientUnits="userSpaceOnUse">
<stop offset="1.5e-07" stop-color="#EFF6FF"/>
<stop offset="1" stop-color="#C4D8FB"/>
</linearGradient>
<linearGradient id="paint28_linear" x1="603.692" y1="298.37" x2="603.692" y2="223.624" gradientUnits="userSpaceOnUse">
<stop offset="1.5e-07" stop-color="#EFF6FF"/>
<stop offset="1" stop-color="#C4D8FB"/>
</linearGradient>
<linearGradient id="paint29_linear" x1="603.692" y1="298.371" x2="603.692" y2="223.624" gradientUnits="userSpaceOnUse">
<stop offset="1.5e-07" stop-color="#EFF6FF"/>
<stop offset="1" stop-color="#C4D8FB"/>
</linearGradient>
<linearGradient id="paint30_linear" x1="603.692" y1="298.369" x2="603.692" y2="223.623" gradientUnits="userSpaceOnUse">
<stop offset="1.5e-07" stop-color="#EFF6FF"/>
<stop offset="1" stop-color="#C4D8FB"/>
</linearGradient>
<linearGradient id="paint31_linear" x1="603.692" y1="298.37" x2="603.692" y2="223.624" gradientUnits="userSpaceOnUse">
<stop offset="1.5e-07" stop-color="#EFF6FF"/>
<stop offset="1" stop-color="#C4D8FB"/>
</linearGradient>
<linearGradient id="paint32_linear" x1="485.867" y1="298.37" x2="485.867" y2="223.624" gradientUnits="userSpaceOnUse">
<stop offset="1.5e-07" stop-color="#EFF6FF"/>
<stop offset="1" stop-color="#C4D8FB"/>
</linearGradient>
<linearGradient id="paint33_linear" x1="485.867" y1="298.37" x2="485.867" y2="223.623" gradientUnits="userSpaceOnUse">
<stop offset="1.5e-07" stop-color="#EFF6FF"/>
<stop offset="1" stop-color="#C4D8FB"/>
</linearGradient>
<linearGradient id="paint34_linear" x1="485.867" y1="298.37" x2="485.867" y2="223.623" gradientUnits="userSpaceOnUse">
<stop offset="1.5e-07" stop-color="#EFF6FF"/>
<stop offset="1" stop-color="#C4D8FB"/>
</linearGradient>
<linearGradient id="paint35_linear" x1="485.867" y1="298.37" x2="485.867" y2="223.624" gradientUnits="userSpaceOnUse">
<stop offset="1.5e-07" stop-color="#EFF6FF"/>
<stop offset="1" stop-color="#C4D8FB"/>
</linearGradient>
<linearGradient id="paint36_linear" x1="485.867" y1="298.37" x2="485.867" y2="223.623" gradientUnits="userSpaceOnUse">
<stop offset="1.5e-07" stop-color="#EFF6FF"/>
<stop offset="1" stop-color="#C4D8FB"/>
</linearGradient>
<linearGradient id="paint37_linear" x1="485.867" y1="298.37" x2="485.867" y2="223.623" gradientUnits="userSpaceOnUse">
<stop offset="1.5e-07" stop-color="#EFF6FF"/>
<stop offset="1" stop-color="#C4D8FB"/>
</linearGradient>
<linearGradient id="paint38_linear" x1="485.867" y1="298.37" x2="485.867" y2="223.624" gradientUnits="userSpaceOnUse">
<stop offset="1.5e-07" stop-color="#EFF6FF"/>
<stop offset="1" stop-color="#C4D8FB"/>
</linearGradient>
<linearGradient id="paint39_linear" x1="379.489" y1="298.371" x2="379.489" y2="223.623" gradientUnits="userSpaceOnUse">
<stop offset="1.5e-07" stop-color="#EFF6FF"/>
<stop offset="1" stop-color="#C4D8FB"/>
</linearGradient>
<linearGradient id="paint40_linear" x1="379.489" y1="298.37" x2="379.489" y2="223.624" gradientUnits="userSpaceOnUse">
<stop offset="1.5e-07" stop-color="#EFF6FF"/>
<stop offset="1" stop-color="#C4D8FB"/>
</linearGradient>
<linearGradient id="paint41_linear" x1="379.489" y1="298.37" x2="379.489" y2="223.623" gradientUnits="userSpaceOnUse">
<stop offset="1.5e-07" stop-color="#EFF6FF"/>
<stop offset="1" stop-color="#C4D8FB"/>
</linearGradient>
<linearGradient id="paint42_linear" x1="379.489" y1="298.37" x2="379.489" y2="223.623" gradientUnits="userSpaceOnUse">
<stop offset="1.5e-07" stop-color="#EFF6FF"/>
<stop offset="1" stop-color="#C4D8FB"/>
</linearGradient>
<linearGradient id="paint43_linear" x1="379.489" y1="298.37" x2="379.489" y2="223.624" gradientUnits="userSpaceOnUse">
<stop offset="1.5e-07" stop-color="#EFF6FF"/>
<stop offset="1" stop-color="#C4D8FB"/>
</linearGradient>
<linearGradient id="paint44_linear" x1="431.387" y1="146.491" x2="407.988" y2="128.412" gradientUnits="userSpaceOnUse">
<stop stop-color="#FB6B14"/>
<stop offset="1" stop-color="#FDB522"/>
</linearGradient>
<linearGradient id="paint45_linear" x1="431.857" y1="145.881" x2="408.458" y2="127.803" gradientUnits="userSpaceOnUse">
<stop stop-color="#FB6B14"/>
<stop offset="1" stop-color="#FDB522"/>
</linearGradient>
<linearGradient id="paint46_linear" x1="383.99" y1="155.461" x2="418.586" y2="165.873" gradientUnits="userSpaceOnUse">
<stop offset="2.5e-07" stop-color="#EFF6FF"/>
<stop offset="1" stop-color="#8AA8DA"/>
</linearGradient>
<linearGradient id="paint47_linear" x1="415.134" y1="163.333" x2="435.033" y2="165.793" gradientUnits="userSpaceOnUse">
<stop offset="2.5e-07" stop-color="#EFF6FF"/>
<stop offset="1" stop-color="#8AA8DA"/>
</linearGradient>
<linearGradient id="paint48_linear" x1="443.013" y1="131.442" x2="419.614" y2="113.363" gradientUnits="userSpaceOnUse">
<stop stop-color="#FB6B14"/>
<stop offset="1" stop-color="#FDB522"/>
</linearGradient>
<linearGradient id="paint49_linear" x1="316.144" y1="318.276" x2="316.144" y2="255.53" gradientUnits="userSpaceOnUse">
<stop stop-color="#FB6B14"/>
<stop offset="1" stop-color="#FDB522"/>
</linearGradient>
<linearGradient id="paint50_linear" x1="444.825" y1="237.789" x2="444.825" y2="177.746" gradientUnits="userSpaceOnUse">
<stop stop-color="#FB6B14"/>
<stop offset="1" stop-color="#FDB522"/>
</linearGradient>
<linearGradient id="paint51_linear" x1="591.631" y1="120.087" x2="591.631" y2="19.6613" gradientUnits="userSpaceOnUse">
<stop stop-color="#FB6B14"/>
<stop offset="1" stop-color="#FDB522"/>
</linearGradient>
<linearGradient id="paint52_linear" x1="536.159" y1="180.669" x2="536.159" y2="132.619" gradientUnits="userSpaceOnUse">
<stop stop-color="#FB6B14"/>
<stop offset="1" stop-color="#FDB522"/>
</linearGradient>
<linearGradient id="paint53_linear" x1="599.103" y1="120.087" x2="599.103" y2="19.6615" gradientUnits="userSpaceOnUse">
<stop stop-color="#FB6B14"/>
<stop offset="1" stop-color="#FDB522"/>
</linearGradient>
<linearGradient id="paint54_linear" x1="187.166" y1="194.33" x2="196.98" y2="194.33" gradientUnits="userSpaceOnUse">
<stop stop-color="#FB6B14"/>
<stop offset="1" stop-color="#FDB522"/>
</linearGradient>
<linearGradient id="paint55_linear" x1="421.225" y1="278.023" x2="439.788" y2="307.969" gradientUnits="userSpaceOnUse">
<stop offset="2.5e-07" stop-color="#EFF6FF"/>
<stop offset="1" stop-color="#8AA8DA"/>
</linearGradient>
<linearGradient id="paint56_linear" x1="403.999" y1="309.129" x2="410.255" y2="313.867" gradientUnits="userSpaceOnUse">
<stop offset="2.5e-07" stop-color="#EFF6FF"/>
<stop offset="1" stop-color="#8AA8DA"/>
</linearGradient>
<linearGradient id="paint57_linear" x1="458.374" y1="304.264" x2="499.483" y2="304.264" gradientUnits="userSpaceOnUse">
<stop offset="1.5e-07" stop-color="#EFF6FF"/>
<stop offset="1" stop-color="#C4D8FB"/>
</linearGradient>
<linearGradient id="paint58_linear" x1="372.764" y1="294.16" x2="441.159" y2="294.16" gradientUnits="userSpaceOnUse">
<stop stop-color="#FB6B14"/>
<stop offset="1" stop-color="#FDB522"/>
</linearGradient>
<linearGradient id="paint59_linear" x1="649.011" y1="356.072" x2="659.864" y2="356.072" gradientUnits="userSpaceOnUse">
<stop stop-color="#FB6B14"/>
<stop offset="1" stop-color="#FDB522"/>
</linearGradient>
<linearGradient id="paint60_linear" x1="665.907" y1="361.268" x2="675.772" y2="361.268" gradientUnits="userSpaceOnUse">
<stop stop-color="#FB6B14"/>
<stop offset="1" stop-color="#FDB522"/>
</linearGradient>
<linearGradient id="paint61_linear" x1="600.104" y1="184.493" x2="651.21" y2="184.493" gradientUnits="userSpaceOnUse">
<stop offset="1.5e-07" stop-color="#EFF6FF"/>
<stop offset="1" stop-color="#C4D8FB"/>
</linearGradient>
<linearGradient id="paint62_linear" x1="528.238" y1="320.935" x2="536.752" y2="342.278" gradientUnits="userSpaceOnUse">
<stop offset="2.5e-07" stop-color="#EFF6FF"/>
<stop offset="1" stop-color="#8AA8DA"/>
</linearGradient>
<linearGradient id="paint63_linear" x1="513.413" y1="356.457" x2="524.742" y2="356.457" gradientUnits="userSpaceOnUse">
<stop stop-color="#FB6B14"/>
<stop offset="1" stop-color="#FDB522"/>
</linearGradient>
<linearGradient id="paint64_linear" x1="516.354" y1="343.372" x2="524.955" y2="343.372" gradientUnits="userSpaceOnUse">
<stop offset="1.5e-07" stop-color="#EFF6FF"/>
<stop offset="1" stop-color="#C4D8FB"/>
</linearGradient>
<linearGradient id="paint65_linear" x1="542.162" y1="338.698" x2="560.757" y2="338.698" gradientUnits="userSpaceOnUse">
<stop offset="1.5e-07" stop-color="#EFF6FF"/>
<stop offset="1" stop-color="#C4D8FB"/>
</linearGradient>
<linearGradient id="paint66_linear" x1="503.433" y1="334.129" x2="534.374" y2="334.129" gradientUnits="userSpaceOnUse">
<stop stop-color="#FB6B14"/>
<stop offset="1" stop-color="#FDB522"/>
</linearGradient>
<clipPath id="clip0">
<rect width="844" height="397" fill="white"/>
</clipPath>
<clipPath id="clip1">
<rect width="508.594" height="355.596" fill="white" transform="translate(180.787 13.3088)"/>
</clipPath>
</defs>
</svg>
