<svg width="603" height="375" viewBox="0 0 603 375" fill="none" xmlns="http://www.w3.org/2000/svg">
<g filter="url(#filter0_d)">
<rect x="16.8134" y="12.5816" width="569.373" height="341.624" rx="44" fill="white"/>
</g>
<rect x="24.4982" y="20.2664" width="554.004" height="326.953" rx="44" fill="#F8F8F8"/>
<g clip-path="url(#clip0)">
<path d="M255.75 161.91L294.093 305.592H297.904L259.56 161.91H255.75Z" fill="#0D5BD9"/>
<path d="M300.331 161.91L338.675 305.592H342.486L304.142 161.91H300.331Z" fill="#0D5BD9"/>
<path d="M263.606 182.629L264.102 185.745H308.214L307.718 182.629H263.606Z" fill="#0D5BD9"/>
<path d="M270.497 208.541L270.967 211.63H315.079L314.609 208.541H270.497Z" fill="#0D5BD9"/>
<path d="M277.388 234.426L277.858 237.516H321.97L321.5 234.426H277.388Z" fill="#0D5BD9"/>
<path d="M284.253 260.338L284.749 263.427H328.861L328.365 260.338H284.253Z" fill="#0D5BD9"/>
<path d="M291.144 286.223L291.639 289.339H335.752L335.256 286.223H291.144Z" fill="#0D5BD9"/>
<path d="M209.889 305.592H213.673L252.017 161.91H248.232L209.889 305.592Z" fill="#7BC3F4"/>
<path d="M253.009 305.592H256.82L295.163 161.91H291.379L253.009 305.592Z" fill="#7BC3F4"/>
<path d="M216.049 291.079H258.699L259.195 287.989H216.545L216.049 291.079Z" fill="#7BC3F4"/>
<path d="M222.94 265.193H265.59L266.086 262.103H223.409L222.94 265.193Z" fill="#7BC3F4"/>
<path d="M229.804 239.281H272.481L272.977 236.192H230.3L229.804 239.281Z" fill="#7BC3F4"/>
<path d="M236.695 213.396H279.372L279.868 210.306H237.191L236.695 213.396Z" fill="#7BC3F4"/>
<path d="M243.586 187.484H286.262L286.732 184.395H244.082L243.586 187.484Z" fill="#7BC3F4"/>
<path d="M310.746 154.173H270.106V161.91H310.746V154.173Z" fill="#0D5BD9"/>
<path d="M299.026 154.173H243.351V161.91H299.026V154.173Z" fill="#7BC3F4"/>
<path d="M212.734 205.087C212.734 205.087 208.949 190.262 202.58 189.665C196.237 189.068 192.244 190.107 192.244 190.107C192.244 190.107 197.125 181.616 190.913 173.62C184.7 165.623 167.16 154.874 152.517 143.139C152.491 143.139 152.491 143.139 152.491 143.139C152.491 143.139 152.491 143.165 152.517 143.19C152.987 144.281 161.809 164.948 161.365 188.912C160.895 215.135 200.048 199.064 190.417 264.051C186.319 291.598 171.832 299.335 170.162 314.602C169.77 318.133 170.083 322.105 171.362 326.804C171.362 326.804 211.742 284.873 213.987 220.873L205.269 223.054L212.734 205.087Z" fill="#0D5BD9"/>
<path d="M208.818 269.321C202.032 276.591 175.8 321.326 199.213 321.326C207.122 321.326 221.791 302.087 232.623 288.612C241.994 276.929 256.141 278.694 256.141 278.694C256.141 278.694 223.227 253.899 208.818 269.321Z" fill="#333242"/>
<path d="M163.323 191.223C163.532 193.897 157.502 201.764 157.502 201.764C157.502 201.764 155.205 188.679 153.457 185.122C151.734 181.642 122.656 172.218 121.743 171.932C127.041 181.201 126.676 187.978 126.676 187.978C126.676 187.978 119.185 171.127 103.445 169.18C87.7061 167.259 68.704 154.978 68.704 154.978C68.704 154.978 68.7301 155.004 68.7823 155.082C91.6736 194.442 96.7112 195.533 112.868 209.19C129.051 222.872 148.419 228.844 157.502 238.606C186.789 270.1 175.434 303.255 173.033 307.851C173.033 307.877 177.47 315.406 177.47 315.406C209.549 242.475 163.114 188.575 163.323 191.223Z" fill="url(#paint0_linear)"/>
<path d="M89.7942 286.431C79.3535 289.703 56.4622 300.036 46.3608 320.236C46.3608 320.236 70.0091 291.494 103.759 291.494C132.836 291.494 173.398 310.733 177.183 326.467L188.955 316.263C188.955 316.263 146.148 268.802 89.7942 286.431Z" fill="#42445D"/>
<path d="M171.206 186.809C166.299 166.921 153.248 144.281 152.491 143.165C152.961 144.255 161.783 164.922 161.339 188.887C160.869 215.11 200.022 199.038 190.391 264.025C186.293 291.572 176.922 298.894 175.251 314.135C183.291 301.594 197.569 269.14 198.587 241.618C199.892 206.853 176.922 209.969 171.206 186.809Z" fill="#0A429F"/>
<path d="M78.4661 328.388C78.4139 328.155 78.3878 327.947 78.3356 327.713C78.3878 328.155 78.4661 328.388 78.4661 328.388Z" fill="#0D5BD9"/>
<path d="M97.3376 258.079C97.3376 258.079 115.322 256.677 126.519 271.995C139.414 289.651 170.344 325.117 180.367 325.558C209.967 326.908 165.907 258.546 157.737 248.966C140.38 228.584 97.3376 258.079 97.3376 258.079Z" fill="#0A429F"/>
<path d="M182.377 335.372H215.553C210.672 331.296 208.322 315.381 215.553 306.735C215.553 306.735 182.142 317.561 182.377 335.372Z" fill="#333242"/>
<path d="M264.99 307.02C251.652 298.582 237.504 303.307 232.597 302.84C182.351 298.089 178.201 328.129 175.33 335.372H182.586C184.518 320.495 215.762 297.258 229.126 323.066C231.631 327.895 234.633 332.101 237.87 335.762H279.58C280.076 323.741 275.3 313.537 264.99 307.02Z" fill="#0D5BD9"/>
<path d="M264.989 307.02C251.651 298.582 237.322 301.516 232.597 302.84C244.63 303.853 258.647 311.123 263.502 318.237C267.913 324.701 270.758 330.439 272.455 335.788H279.606C280.076 323.741 275.3 313.537 264.989 307.02Z" fill="url(#paint1_linear)"/>
<path d="M256.115 259.222C242.255 252.601 234.868 260.13 234.868 260.13C218.607 254.444 206.704 271.632 206.704 271.632C206.704 271.632 226.02 265.842 234.685 279.239C243.377 292.662 261.1 297.076 261.1 297.076C270.471 284.094 269.975 265.842 256.115 259.222Z" fill="#0A429F"/>
<path d="M256.115 259.222C242.255 252.601 234.868 260.13 234.868 260.13C234.868 260.13 251.312 260.156 261.1 297.076C270.471 284.094 269.975 265.842 256.115 259.222Z" fill="url(#paint2_linear)"/>
<path d="M125.293 235.802C125.293 235.802 116.392 225.858 98.4862 233.414C80.5803 240.969 78.8837 264.051 89.977 281.005C89.977 281.005 112.659 276.461 124.431 259.974C136.177 243.514 160.269 251.952 160.269 251.952C160.269 251.952 145.913 227.286 125.293 235.802Z" fill="url(#paint3_linear)"/>
<path d="M98.46 233.44C80.5542 240.995 78.8576 264.077 89.9509 281.031C104.49 234.894 125.267 235.802 125.267 235.802C125.267 235.802 116.366 225.858 98.46 233.44Z" fill="#0D5BD9"/>
<path d="M120.412 195.637C92.7698 188.315 70.1656 157.055 68.7822 155.108C91.6735 194.468 96.7111 195.559 112.868 209.216C129.051 222.898 148.34 228.948 157.502 238.632C170.449 252.367 175.512 266.543 176.974 278.486C178.619 204.672 146.174 202.465 120.412 195.637Z" fill="#0D5BD9"/>
<path d="M97.7814 303.385C88.3586 306.345 75.5427 314.498 78.3094 327.739C77.944 324.779 78.1267 312.862 104.803 310.24C129.312 307.825 164.445 321.17 173.163 335.398H177.34L184.283 327.324C184.283 327.298 146.2 288.223 97.7814 303.385Z" fill="#0D5BD9"/>
<path d="M433.894 207.606C430.005 212.617 433.059 217.965 433.059 217.965C433.059 217.965 430.553 217.29 426.56 217.68C422.566 218.043 420.191 227.364 420.191 227.364L424.863 238.632L419.382 237.256C420.791 277.422 440.054 304.45 440.054 304.45C440.863 301.516 447.128 298.348 446.893 296.116C445.849 286.535 436.766 281.68 434.181 264.388C428.126 223.599 452.714 233.673 452.427 217.212C452.139 202.18 457.699 189.198 457.986 188.497C457.986 188.471 457.986 188.471 457.986 188.471C448.798 195.844 437.783 202.595 433.894 207.606Z" fill="#0D5BD9"/>
<path d="M392.941 273.605C392.941 273.605 401.815 272.515 407.714 279.836C414.501 288.301 423.715 300.374 428.7 300.374C443.395 300.374 426.925 272.281 422.671 267.711C413.587 258.027 392.941 273.605 392.941 273.605Z" fill="#333242"/>
<path d="M474.222 216.641C474.222 216.641 473.987 212.383 477.328 206.567C476.753 206.749 458.508 212.643 457.412 214.85C456.29 217.083 454.854 225.287 454.854 225.287C454.854 225.287 451.069 220.354 451.2 218.666C451.33 217.005 422.175 250.835 442.325 296.661C442.325 296.661 445.118 291.935 445.092 291.935C443.578 289.053 436.452 268.231 454.828 248.447C460.544 242.319 472.682 238.554 482.861 229.96C493.015 221.393 496.173 220.692 510.555 195.974C510.581 195.922 510.607 195.922 510.607 195.922C510.607 195.922 498.653 203.633 488.786 204.828C478.92 206.074 474.222 216.641 474.222 216.641Z" fill="url(#paint4_linear)"/>
<path d="M497.374 278.46C461.98 267.4 435.095 297.18 435.095 297.18L442.482 303.593C444.857 293.727 470.332 281.628 488.578 281.628C509.772 281.628 524.624 299.673 524.624 299.673C518.307 287.002 503.951 280.511 497.374 278.46Z" fill="#0D5BD9"/>
<path d="M429.039 250.316C429.666 267.608 438.645 287.989 443.682 295.856C442.638 286.276 436.765 281.68 434.181 264.388C428.126 223.6 452.714 233.674 452.426 217.213C452.139 202.18 457.699 189.198 457.986 188.497C457.516 189.198 449.32 203.4 446.24 215.889C442.69 230.428 428.256 228.481 429.039 250.316Z" fill="#0A429F"/>
<path d="M492.362 289.105C461.954 279.577 438.044 304.138 438.044 304.138L442.403 309.201H445.014C450.469 300.27 472.551 291.883 487.951 293.415C504.682 295.051 504.813 302.528 504.578 304.398C506.327 296.064 498.287 290.949 492.362 289.105Z" fill="#0A429F"/>
<path d="M504.578 304.372C504.552 304.502 504.526 304.658 504.5 304.787C504.5 304.787 504.552 304.658 504.578 304.372Z" fill="#0D5BD9"/>
<path d="M454.75 254.911C449.634 260.935 421.966 303.853 440.55 303.022C446.841 302.736 466.261 280.459 474.352 269.373C481.373 259.767 492.676 260.623 492.676 260.623C492.676 260.623 465.608 242.137 454.75 254.911Z" fill="#42445D"/>
<path d="M418.416 291.208C422.957 296.635 421.47 306.631 418.416 309.201H439.245C439.402 298.011 418.416 291.208 418.416 291.208Z" fill="#333242"/>
<path d="M407.714 288.742C404.634 289.027 395.76 286.068 387.381 291.364C377.201 297.803 375.557 309.98 381.978 323.299C382.004 323.351 382.03 323.403 382.056 323.429C382.056 323.429 400.954 318.678 409.907 301.438C418.312 285.237 437.914 299.802 439.141 309.175H443.709C441.881 304.632 439.271 285.782 407.714 288.742Z" fill="url(#paint5_linear)"/>
<path d="M387.381 291.364C377.201 297.803 375.557 309.98 381.978 323.299C380.568 316.004 381.351 308.552 388.32 298.4C391.374 293.935 400.171 289.365 407.74 288.742C404.739 287.911 395.76 286.068 387.381 291.364Z" fill="#7BC3F4"/>
<path d="M406.279 261.948C406.279 261.948 401.632 257.222 392.94 261.376C384.249 265.53 383.935 277.006 389.808 285.159C389.808 285.159 400.954 282.381 406.409 273.969C411.864 265.556 423.976 269.191 423.976 269.191C423.976 269.191 416.484 258.365 406.279 261.948Z" fill="#0A429F"/>
<path d="M392.94 261.376C384.249 265.53 383.935 277.006 389.808 285.159C395.942 261.973 406.279 261.948 406.279 261.948C406.279 261.948 401.632 257.222 392.94 261.376Z" fill="#0D5BD9"/>
<path d="M491.945 245.175C480.695 240.424 475.109 246.681 475.109 246.681C462.163 241.332 453.157 256.833 453.157 256.833C453.157 256.833 468.27 251.536 475.657 261.87C483.044 272.229 497.296 275.085 497.296 275.085C504.239 264.414 503.169 249.926 491.945 245.175Z" fill="url(#paint6_linear)"/>
<path d="M491.945 245.175C480.695 240.424 475.109 246.681 475.109 246.681C475.109 246.681 488.16 246.11 497.295 275.085C504.239 264.414 503.168 249.926 491.945 245.175Z" fill="#0D5BD9"/>
<path d="M478.163 221.444C461.98 225.728 441.62 227.105 442.638 273.475C443.552 265.972 446.736 257.066 454.88 248.447C460.622 242.345 472.734 238.554 482.913 229.961C493.067 221.393 496.225 220.692 510.607 195.974C509.72 197.221 495.521 216.849 478.163 221.444Z" fill="#0D5BD9"/>
<path d="M409.985 149.24H403.668V154.744H409.985V149.24Z" fill="url(#paint7_linear)"/>
<path d="M409.985 242.241H403.668V253.795H409.985V242.241Z" fill="url(#paint8_linear)"/>
<path d="M409.985 262.051H403.668V273.605H409.985V262.051Z" fill="url(#paint9_linear)"/>
<path d="M409.985 281.888H403.668V293.441H409.985V281.888Z" fill="url(#paint10_linear)"/>
<path d="M409.985 163.001H403.668V174.554H409.985V163.001Z" fill="url(#paint11_linear)"/>
<path d="M409.985 222.431H403.668V233.985H409.985V222.431Z" fill="url(#paint12_linear)"/>
<path d="M409.985 182.811H403.668V194.365H409.985V182.811Z" fill="url(#paint13_linear)"/>
<path d="M409.985 202.621H403.668V214.175H409.985V202.621Z" fill="url(#paint14_linear)"/>
<path d="M409.985 301.698H403.668V307.202H409.985V301.698Z" fill="url(#paint15_linear)"/>
<path d="M466.626 35.5976H460.309V41.1019H466.626V35.5976Z" fill="url(#paint16_linear)"/>
<path d="M466.626 224.015H460.309V235.335H466.626V224.015Z" fill="url(#paint17_linear)"/>
<path d="M466.626 204.568H460.309V215.888H466.626V204.568Z" fill="url(#paint18_linear)"/>
<path d="M466.626 282.277H460.309V293.597H466.626V282.277Z" fill="url(#paint19_linear)"/>
<path d="M466.626 185.147H460.309V196.467H466.626V185.147Z" fill="url(#paint20_linear)"/>
<path d="M466.626 243.436H460.309V254.756H466.626V243.436Z" fill="url(#paint21_linear)"/>
<path d="M466.626 262.856H460.309V274.176H466.626V262.856Z" fill="url(#paint22_linear)"/>
<path d="M466.626 88.0439H460.309V99.364H466.626V88.0439Z" fill="url(#paint23_linear)"/>
<path d="M466.626 68.6231H460.309V79.9433H466.626V68.6231Z" fill="url(#paint24_linear)"/>
<path d="M466.626 49.2025H460.309V60.5226H466.626V49.2025Z" fill="url(#paint25_linear)"/>
<path d="M466.626 146.306H460.309V157.626H466.626V146.306Z" fill="url(#paint26_linear)"/>
<path d="M466.626 107.465H460.309V118.785H466.626V107.465Z" fill="url(#paint27_linear)"/>
<path d="M466.626 165.727H460.309V177.047H466.626V165.727Z" fill="url(#paint28_linear)"/>
<path d="M466.626 126.885H460.309V138.205H466.626V126.885Z" fill="url(#paint29_linear)"/>
<path d="M466.626 301.698H460.309V307.202H466.626V301.698Z" fill="url(#paint30_linear)"/>
<path d="M348.802 190.859H342.486V196.364H348.802V190.859Z" fill="url(#paint31_linear)"/>
<path d="M348.802 204.464H342.486V215.81H348.802V204.464Z" fill="url(#paint32_linear)"/>
<path d="M348.802 262.804H342.486V274.15H348.802V262.804Z" fill="url(#paint33_linear)"/>
<path d="M348.802 282.251H342.486V293.597H348.802V282.251Z" fill="url(#paint34_linear)"/>
<path d="M348.802 223.911H342.486V235.257H348.802V223.911Z" fill="url(#paint35_linear)"/>
<path d="M348.802 243.358H342.486V254.704H348.802V243.358Z" fill="url(#paint36_linear)"/>
<path d="M348.802 301.698H342.486V307.202H348.802V301.698Z" fill="url(#paint37_linear)"/>
<path d="M242.412 241.644H236.095V247.148H242.412V241.644Z" fill="url(#paint38_linear)"/>
<path d="M242.412 285.73H236.095V295.051H242.412V285.73Z" fill="url(#paint39_linear)"/>
<path d="M242.412 269.763H236.095V279.083H242.412V269.763Z" fill="url(#paint40_linear)"/>
<path d="M242.412 253.795H236.095V263.116H242.412V253.795Z" fill="url(#paint41_linear)"/>
<path d="M242.412 301.698H236.095V307.202H242.412V301.698Z" fill="url(#paint42_linear)"/>
<path fill-rule="evenodd" clip-rule="evenodd" d="M273.264 108.971C267.6 110.502 264.598 119.044 261.988 124.055C261.988 124.055 263.737 127.664 270.262 128.132C270.262 128.132 276.97 117.487 276.996 114.812C277.022 112.112 274.412 108.659 273.264 108.971Z" fill="url(#paint43_linear)"/>
<path fill-rule="evenodd" clip-rule="evenodd" d="M273.264 108.971C272.924 109.074 272.611 109.178 272.298 109.308C272.481 109.594 272.611 109.957 272.585 110.399C272.481 116.11 268.722 121.848 264.259 126.34C265.538 127.171 267.443 127.95 270.236 128.132C270.236 128.132 276.944 117.487 276.97 114.812C277.022 112.112 274.412 108.659 273.264 108.971Z" fill="#42445D"/>
<path fill-rule="evenodd" clip-rule="evenodd" d="M270.889 110.009C269.14 111.203 270.732 131.143 269.088 134.233C266.451 139.166 263.241 145.138 263.241 145.138C270.105 149.162 296.494 149.162 296.494 149.162C296.494 149.162 297.93 144.437 299.052 136.648C300.357 127.586 300.801 107.854 300.279 107.724C289.212 104.842 273.969 107.958 270.889 110.009Z" fill="url(#paint44_linear)"/>
<path fill-rule="evenodd" clip-rule="evenodd" d="M289.421 95.9109L280.677 101.311C280.859 101.701 281.329 105.05 280.677 106.66C280.129 108.036 279.58 110.139 282.687 110.788C285.558 111.411 290.909 108.763 290.204 106.4C288.925 102.298 289.421 95.9109 289.421 95.9109Z" fill="#FFCAB8"/>
<path fill-rule="evenodd" clip-rule="evenodd" d="M289.422 95.9109L280.678 101.311C280.861 101.701 281.33 105.05 280.678 106.66C280.6 106.867 280.495 107.127 280.443 107.361C280.469 107.361 281.957 107.179 283.497 106.115C285.063 105.024 286.812 105.621 288.013 107.127C288.456 107.698 288.665 108.425 288.639 109.178C289.761 108.373 290.492 107.361 290.205 106.4C288.926 102.298 289.422 95.9109 289.422 95.9109Z" fill="#FFC3AB"/>
<path fill-rule="evenodd" clip-rule="evenodd" d="M298.896 107.387C295.476 106.893 289.551 112.268 289.264 120.81C289.186 123.069 288.533 125.977 286.628 129.534C285.558 131.533 281.173 133.194 279.293 133.844C277.414 134.493 277.153 135.323 278.249 135.895C279.345 136.466 287.985 137.868 286.915 139.192C285.793 140.594 275.274 142.905 277.179 147.422C278.119 149.603 294.067 148.046 297.016 147.396C297.982 145.631 298.087 141.347 298.739 138.647C300.044 133.091 299.627 121.173 300.436 114.812C300.827 110.554 302.628 107.932 298.896 107.387Z" fill="#FD4B1B"/>
<path fill-rule="evenodd" clip-rule="evenodd" d="M263.528 153.68C263.058 153.732 256.193 153.238 253.479 153.576C250.738 153.887 249.642 153.965 248.023 155.757C246.405 157.548 246.953 160.638 247.814 162.819C248.676 165 249.824 165.026 251.965 164.429C254.079 163.831 256.402 162.144 258.568 161.936C260.709 161.728 261.257 162.092 262.771 161.676C264.285 161.235 264.572 161.728 264.415 160.638C264.206 159.573 263.528 153.68 263.528 153.68Z" fill="#0A429F"/>
<path fill-rule="evenodd" clip-rule="evenodd" d="M263.528 153.68C263.058 153.732 256.193 153.238 253.479 153.576C250.738 153.887 249.642 153.965 248.023 155.757C247.162 156.743 246.901 158.094 247.005 159.47C248.65 159.885 250.007 159.781 251.704 159.418C253.113 159.132 254.601 158.561 256.037 158.846C257.577 159.132 259.456 160.326 260.03 161.91C261.074 161.91 261.675 162.014 262.745 161.702C264.259 161.261 264.546 161.754 264.389 160.664C264.206 159.573 263.528 153.68 263.528 153.68Z" fill="#333242"/>
<path fill-rule="evenodd" clip-rule="evenodd" d="M251.077 154.381C251.991 153.784 253.244 153.706 254.758 153.498C254.288 153.524 253.844 153.55 253.479 153.576C250.738 153.887 249.642 153.965 248.023 155.757C246.405 157.548 246.953 160.638 247.814 162.819C248.571 164.792 249.616 165 251.364 164.584C248.493 162.222 247.423 156.769 251.077 154.381Z" fill="white"/>
<path fill-rule="evenodd" clip-rule="evenodd" d="M300.253 153.887C298.687 153.628 293.467 153.68 289.447 153.108C289.447 153.108 285.192 159.106 285.088 159.236C284.983 159.366 288.272 161.157 289.63 162.222C290.987 163.286 296.364 165.104 297.852 164.818C299.339 164.532 302.106 158.639 302.654 156.51C303.255 154.381 301.819 154.147 300.253 153.887Z" fill="#0A429F"/>
<path fill-rule="evenodd" clip-rule="evenodd" d="M300.253 153.887C298.687 153.628 293.467 153.68 289.447 153.108C289.447 153.108 285.74 158.327 285.166 159.132C287.019 159.158 288.794 158.197 290.674 158.483C291.613 158.639 292.736 159.885 295.503 159.547C297.173 159.34 296.86 162.144 295.398 163.546C295.085 163.831 294.772 164.065 294.458 164.247C295.894 164.662 297.225 164.922 297.852 164.792C299.34 164.506 302.106 158.613 302.654 156.484C303.255 154.381 301.819 154.147 300.253 153.887Z" fill="#333242"/>
<path fill-rule="evenodd" clip-rule="evenodd" d="M250.111 140.412C246.275 141.217 244.787 144.125 244.813 147.371C244.813 149.292 246.536 151.395 248.676 152.044C250.816 152.693 284.227 160.274 285.166 160.508C286.106 160.742 290.099 151.083 290.099 151.083C288.899 150.642 257.342 138.881 250.111 140.412Z" fill="#D0DDFD"/>
<path fill-rule="evenodd" clip-rule="evenodd" d="M260.213 149.5C253.218 149.733 250.947 148.773 244.943 145.631C244.839 146.202 244.787 146.773 244.787 147.371C244.787 149.292 246.509 151.395 248.65 152.044C250.79 152.693 284.2 160.274 285.14 160.508C286.08 160.742 290.073 151.083 290.073 151.083C289.63 150.928 280.155 147.604 274.23 145.605C269.531 147.916 265.433 149.318 260.213 149.5Z" fill="url(#paint45_linear)"/>
<path fill-rule="evenodd" clip-rule="evenodd" d="M271.254 86.0707C271.254 86.0707 269.74 87.3429 269.557 89.1603C269.375 90.9778 271.437 93.8597 271.437 93.8597C271.437 93.8597 273.368 88.9267 273.107 87.4987C273.029 87.239 271.254 86.0707 271.254 86.0707Z" fill="#333242"/>
<path fill-rule="evenodd" clip-rule="evenodd" d="M280.311 107.776L280.546 106.971C280.546 106.971 278.902 106.893 278.615 108.996C278.145 112.528 279.92 115.124 279.92 115.124C280.207 113.254 282.974 110.788 282.974 110.788C280.494 109.723 280.311 107.776 280.311 107.776Z" fill="white"/>
<path fill-rule="evenodd" clip-rule="evenodd" d="M292.475 92.925C291.561 91.2893 289.995 92.6654 289.995 92.6654C289.995 92.6654 289.656 88.5112 286.68 85.811C283.705 83.1108 280.703 84.2532 275.378 85.811C270.027 87.3688 271.071 89.0565 271.071 89.0565C271.071 89.0565 271.254 93.3664 272.063 97.8321C272.402 99.6496 274.465 102.142 276.657 104.842C278.797 107.465 281.799 105.985 285.662 103.726C289.551 101.467 289.316 99.2082 289.29 98.7928C289.29 98.7928 289.943 99.1044 291.17 98.2216C292.396 97.3388 293.414 94.9761 292.527 93.1068C292.527 93.0289 292.501 92.977 292.475 92.925Z" fill="#FFCAB8"/>
<path fill-rule="evenodd" clip-rule="evenodd" d="M292.475 92.9251C291.561 91.2894 289.995 92.6655 289.995 92.6655C289.995 92.6655 289.656 88.5113 286.68 85.8111C286.001 85.188 282.556 86.3304 283 88.1219C283.496 90.1211 285.114 91.4712 285.427 93.3405C285.793 95.5215 286.367 99.5458 285.036 101.363C283.13 104.012 279.841 106.115 276.553 104.713C276.579 104.764 276.631 104.79 276.657 104.842C278.797 107.465 281.799 105.985 285.662 103.726C289.551 101.467 289.316 99.2083 289.29 98.7929C289.29 98.7929 289.943 99.1044 291.17 98.2217C292.396 97.3389 293.414 94.9762 292.527 93.1069C292.527 93.029 292.501 92.977 292.475 92.9251Z" fill="#FFC3AB"/>
<path fill-rule="evenodd" clip-rule="evenodd" d="M270.68 85.188C270.001 86.59 269.322 91.2115 273.159 92.25C277.388 93.3924 284.827 88.0959 286.471 91.1596C287.829 93.678 286.21 95.3397 287.411 96.3263C288.037 96.8456 288.847 96.6638 289.16 95.9628C289.264 95.7291 289.108 93.8598 289.995 92.6395C290.047 92.5616 290.726 92.1202 291.326 92.1202C291.326 92.1202 292.162 89.1344 290.961 86.3563C286.915 76.8277 273.525 79.2163 270.68 85.188Z" fill="#42445D"/>
<path fill-rule="evenodd" clip-rule="evenodd" d="M282.321 80.0471C285.036 81.9425 281.564 86.4082 284.279 88.5891C286.68 90.5364 287.776 91.1335 287.724 92.5875C287.698 93.5481 287.333 95.8589 287.254 96.1445C287.306 96.2224 287.359 96.2743 287.437 96.3262C288.063 96.8455 288.873 96.6638 289.186 95.9627C289.29 95.7291 289.134 93.8597 290.021 92.6394C290.073 92.5615 290.752 92.1202 291.352 92.1202C291.352 92.1202 292.187 89.1344 290.987 86.3563C289.264 82.3319 285.871 80.4366 282.321 80.0471Z" fill="#333242"/>
<path fill-rule="evenodd" clip-rule="evenodd" d="M300.984 141.191C297.147 138.958 290.23 141.685 282.556 144.099C276.526 145.995 259.847 151.681 259.847 151.681C259.847 151.681 258.177 158.743 262.745 163.053C262.745 163.053 285.793 157.548 300.618 151.239C301.715 150.772 303.333 150.123 303.803 147.708C304.299 145.319 303.098 142.438 300.984 141.191Z" fill="#D0DDFD"/>
<path fill-rule="evenodd" clip-rule="evenodd" d="M301.506 141.555C302.054 142.905 302.054 144.515 301.245 146.384C300.123 148.902 297.408 150.252 294.719 149.863C293.545 149.707 292.736 148.85 291.666 148.669C289.812 148.331 289.029 149.214 287.62 150.382C285.506 152.148 283.783 153.758 280.99 154.329C279.424 154.64 277.962 154.277 276.422 154.407C274.464 154.562 273.029 155.679 271.15 156.198C267.104 157.366 263.293 156.406 259.586 155.03C259.639 157.444 260.265 160.638 262.771 163.001C262.771 163.001 285.819 157.496 300.645 151.187C301.741 150.72 303.359 150.071 303.829 147.656C304.273 145.527 303.281 142.931 301.506 141.555Z" fill="url(#paint46_linear)"/>
<path fill-rule="evenodd" clip-rule="evenodd" d="M290.204 94.1713C290.021 94.6906 289.943 94.8983 290.126 95.3397C290.308 95.807 290.413 95.5733 290.465 96.0147C290.491 96.4561 290.021 96.2484 289.891 96.7157C289.76 97.1831 289.865 97.5206 290.36 97.6245C290.856 97.7543 291.431 97.2869 291.848 96.3263C292.266 95.3397 292.423 94.0675 291.979 93.4963C291.457 92.8472 290.465 93.4703 290.204 94.1713Z" fill="#FFC3AB"/>
<path fill-rule="evenodd" clip-rule="evenodd" d="M300.514 153.939C301.767 154.926 298.321 163.338 295.529 164.532C296.547 164.766 297.408 164.896 297.878 164.818C299.366 164.532 302.132 158.639 302.68 156.51C303.229 154.511 301.976 154.173 300.514 153.939Z" fill="white"/>
<path fill-rule="evenodd" clip-rule="evenodd" d="M296.364 112.735C295.685 117.487 302.811 129.819 302.811 129.819C302.811 129.819 285.323 125.743 283.574 125.561C280.755 125.276 277.466 122.861 276.396 122.939C276.109 122.965 273.942 123.822 273.812 123.899C273.707 123.977 270.132 126.885 270.445 127.56C270.549 127.794 271.332 127.508 271.541 127.379C272.167 126.989 273.551 125.613 274.151 125.327C275.117 124.886 276.814 124.678 276.814 124.678C276.814 124.678 275.143 125.457 274.647 125.795C273.76 126.392 272.194 127.924 271.567 128.781C271.332 129.092 271.28 129.378 271.437 129.43C271.672 129.534 272.063 129.404 272.481 129.196C273.212 128.884 274.125 127.794 274.334 127.612C274.543 127.431 276.239 126.574 276.239 126.574C276.239 126.574 274.438 128.469 274.099 128.936C273.707 129.508 272.611 131.143 273.003 131.325C273.212 131.429 273.551 131.143 273.942 130.832C274.83 130.157 275.352 129.144 275.743 128.91C276.135 128.677 277.414 127.924 277.753 127.846C277.753 127.846 276.944 128.547 276.709 129.014C276.526 129.378 276.057 130.52 276.057 130.52C276.057 130.52 275.822 132.208 276.344 132.078C276.892 131.922 277.283 130.287 277.283 130.287C277.283 130.287 277.623 130.079 277.91 129.611C277.91 129.611 279.972 130.312 281.825 130.364C283.678 130.416 284.566 129.663 284.566 129.663C284.722 130.235 304.69 136.206 306.674 136.622C308.71 137.037 310.276 135.687 310.433 134.986C311.216 131.455 306.778 120.68 303.855 113.203C301.245 106.348 296.573 111.437 296.364 112.735Z" fill="#FFCAB8"/>
<path fill-rule="evenodd" clip-rule="evenodd" d="M296.364 112.735C295.79 116.812 300.958 126.496 302.419 129.144C303.203 129.222 304.168 129.118 305.369 128.573C307.901 127.379 311.216 131.273 307.457 133.61C304.951 135.194 300.984 133.844 284.879 128.573C283.365 128.08 281.721 129.196 280.651 129.17C280.102 129.17 278.85 128.469 278.145 128.911C276.97 129.663 276.787 130.494 276.37 131.793C276.344 131.896 276.265 131.974 276.187 132.026C276.239 132.104 276.292 132.156 276.396 132.13C276.944 131.974 277.336 130.339 277.336 130.339C277.336 130.339 277.675 130.131 277.962 129.663C277.962 129.663 280.024 130.365 281.877 130.416C283.731 130.468 284.618 129.715 284.618 129.715C284.775 130.287 304.743 136.258 306.726 136.674C308.762 137.089 310.328 135.739 310.485 135.038C311.268 131.507 306.831 120.732 303.907 113.255C301.245 106.348 296.573 111.437 296.364 112.735Z" fill="#FFC3AB"/>
<path fill-rule="evenodd" clip-rule="evenodd" d="M298.191 107.491C292.945 108.529 292.449 115.046 301.506 128.417C301.506 128.417 307.092 128.028 310.067 125.25C310.093 125.224 304.064 106.322 298.191 107.491Z" fill="url(#paint47_linear)"/>
<path fill-rule="evenodd" clip-rule="evenodd" d="M299.313 107.517C299.522 107.776 299.679 108.088 299.757 108.451C300.671 112.839 299.862 117.72 297.408 121.667C298.452 123.692 299.809 125.925 301.506 128.417C301.506 128.417 307.092 128.028 310.067 125.25C310.093 125.224 304.795 108.685 299.313 107.517Z" fill="#FD4B1B"/>
<path fill-rule="evenodd" clip-rule="evenodd" d="M289.76 104.375L290.021 105.907C290.021 105.907 286.471 111.177 282.921 110.788C282.921 110.788 285.766 113.203 286.55 115.228C286.55 115.228 290.882 111.307 291.405 107.698C291.77 105.154 289.76 104.375 289.76 104.375Z" fill="white"/>
<path d="M271.672 139.296C271.672 140.075 272.298 140.698 273.055 140.698H305.787C306.544 140.698 307.17 140.075 307.17 139.322H271.672V139.296Z" fill="#42445D"/>
<path d="M268.122 110.58C267.809 109.464 266.764 108.685 265.616 108.737H245.518V140.361L273.264 140.698C274.96 140.698 275.065 139.4 274.96 138.933L268.122 110.58Z" fill="#42445D"/>
<path d="M266.686 109.308C266.582 108.971 266.269 108.711 265.903 108.711H230.457C229.909 108.711 229.517 109.23 229.674 109.749L236.33 137.764C236.826 139.504 238.392 140.698 240.219 140.698H273.238C273.786 140.698 274.177 140.179 274.021 139.659L266.686 109.308Z" fill="#D0DDFD"/>
<path d="M191.957 212.202C189.712 212.176 187.441 212.331 185.196 212.721C172.38 214.902 161.861 223.366 157.033 235.361L112.607 345.576H159.852C159.852 345.576 210.437 231.934 211.638 230.142C212.812 228.377 239.253 219.913 239.253 219.913V212.202H191.957Z" fill="url(#paint48_linear)"/>
<path d="M303.594 160.794C301.558 160.768 299.522 160.924 297.486 161.313C287.098 163.234 278.589 170.218 274.726 180.007L258.83 220.224C261.805 223.859 267.417 245.591 292.135 245.591C301.689 245.591 323.901 180.033 323.901 180.033L350.421 160.768L303.594 160.794Z" fill="url(#paint49_linear)"/>
<path d="M417.842 128.469C421.522 125.12 433.372 114.708 463.468 143.139L484.976 35.6236H435.487L417.842 128.469Z" fill="url(#paint50_linear)"/>
<path d="M386.624 116.915C385.763 116.941 384.901 116.993 384.04 117.123C375.452 118.317 368.588 124.185 366.134 132.442L357.051 163.027C360.47 165.13 363.915 167.155 367.596 168.739C367.987 168.894 390.618 190.34 390.905 190.626L397.9 185.9L434.782 116.915H386.624Z" fill="url(#paint51_linear)"/>
<path d="M454.071 140.153C450.286 140.101 447.65 136.492 447.258 132.39C447.206 131.87 447.18 131.351 447.18 130.832C446.841 130.365 446.528 129.923 446.214 129.508C445.588 128.651 445.405 127.612 445.536 126.574H420.113V153.29H463.442V145.631C459.892 145.501 456.759 143.139 454.071 140.153Z" fill="#C3391C"/>
<path d="M365.925 172.088H333.663L326.511 198.804H391.009V191.145C387.433 190.989 365.795 173.126 365.925 172.088Z" fill="#C3391C"/>
<path d="M245.805 217.316L215.735 229.234L206.626 255.95H288.612V248.317C284.07 248.135 245.622 218.355 245.805 217.316Z" fill="#C3391C"/>
<path d="M462.972 139.711C462.946 139.893 462.841 140.412 462.11 140.568C461.406 140.698 461.118 140.257 461.014 140.101L452.74 127.041C448.12 119.745 439.924 115.955 431.31 117.123C422.723 118.317 415.858 124.185 413.404 132.442L399.388 179.695C398.474 182.785 396.021 185.07 392.862 185.797C389.704 186.524 386.493 185.537 384.301 183.148L372.738 170.608C365.586 162.871 355.119 159.392 344.731 161.313C334.342 163.234 325.833 170.218 321.97 180.007L300.096 235.361C298.478 239.437 294.954 242.319 290.622 243.046C286.289 243.799 281.982 242.293 279.085 238.996L266.582 224.794C258.02 215.083 245.257 210.566 232.441 212.747C219.625 214.928 209.106 223.392 204.277 235.387L159.852 345.602H173.738L216.231 240.164C219.39 232.349 226.255 226.819 234.607 225.391C242.96 223.963 251.286 226.897 256.872 233.258L269.375 247.46C275.274 254.133 284.018 257.222 292.84 255.69C301.637 254.159 308.841 248.317 312.103 240.034L333.977 184.68C336.195 179.046 341.102 175.022 347.106 173.905C353.109 172.789 359.139 174.788 363.263 179.254L374.826 191.794C380.203 197.636 388.033 200.025 395.786 198.259C403.538 196.468 409.515 190.885 411.76 183.278L425.777 136.025C426.795 132.597 429.535 130.261 433.085 129.767C436.635 129.274 439.898 130.78 441.829 133.818L450.104 146.877C453.184 151.732 458.848 154.199 464.538 153.134C470.228 152.07 474.587 147.708 475.657 142.074L495.808 36.1169H482.679L462.972 139.711Z" fill="#FD4B1B"/>
<path d="M463.468 1.40369L430.997 36.3246H519.247L479.703 1.40369H463.468Z" fill="#C3391C"/>
<path d="M414.736 36.3246H503.012L463.468 1.40369L414.736 36.3246Z" fill="url(#paint52_linear)"/>
<path fill-rule="evenodd" clip-rule="evenodd" d="M66.7725 198.545C63.7186 198.882 61.526 201.66 61.9436 204.698C62.3613 207.58 64.9714 209.631 67.8948 209.345C74.3942 208.696 84.5478 207.113 90.8644 204.101L89.7159 197.402C86.6359 197.948 76.9 197.454 66.7725 198.545Z" fill="#333242"/>
<path fill-rule="evenodd" clip-rule="evenodd" d="M110.258 177.904C110.623 177.255 110.415 176.424 109.71 176.086C110.128 175.385 109.501 174.892 108.875 174.814C109.553 173.698 110.023 172.737 109.031 172.477C108.535 172.347 106.865 175.333 106.134 176.346C104.881 178.059 103.967 176.683 103.106 178.267C102.166 179.955 102.506 181.305 102.558 182.863C102.61 183.901 102.01 184.498 101.566 185.303C99.6346 188.653 93.1613 193.715 87.8105 198.545C85.9834 200.206 87.9671 204.438 89.8464 204.36C94.5708 204.127 102.61 191.119 105.795 186.913C108.222 183.694 109.292 181.565 110.206 180.396C111.093 179.28 111.172 178.449 110.258 177.904Z" fill="#FFCAB8"/>
<path fill-rule="evenodd" clip-rule="evenodd" d="M110.258 177.904C110.623 177.255 110.415 176.424 109.71 176.086C110.128 175.385 109.501 174.892 108.875 174.814C109.553 173.698 110.023 172.737 109.031 172.477C108.535 172.347 106.865 175.333 106.134 176.346C105.612 177.073 104.751 179.669 106.891 181.045C108.222 181.902 109.867 180.812 110.206 180.37C111.093 179.28 111.172 178.449 110.258 177.904Z" fill="#FFC3AB"/>
<path fill-rule="evenodd" clip-rule="evenodd" d="M100.966 184.758C99.0342 188.107 91.8301 193.534 86.4793 198.389C84.6522 200.051 87.6539 204.802 89.5332 204.698C94.2315 204.464 103.106 192.106 106.369 187.77C104.933 187.354 102.375 185.277 101.331 184.213C101.201 184.395 101.07 184.576 100.966 184.758Z" fill="#333242"/>
<path fill-rule="evenodd" clip-rule="evenodd" d="M103.341 190.003C99.5041 193.144 92.9526 198.804 89.3766 201.427C85.2003 204.516 81.4678 203.737 76.7173 204.335C71.6796 204.984 67.8688 207.814 63.1965 207.45C64.4494 209.294 66.1982 209.501 67.8949 209.32C73.9505 208.722 83.1644 207.294 89.5071 204.672C93.3702 204.49 100.052 196.104 104.098 190.73C104.516 190.236 103.837 189.587 103.341 190.003Z" fill="#42445D"/>
<path fill-rule="evenodd" clip-rule="evenodd" d="M104.307 173.074C103.785 174.866 103.367 175.619 103.028 176.294L102.506 180.085L104.255 178.89C104.568 178.189 104.803 177.099 104.542 176.008C105.273 174.788 105.142 173.698 104.307 173.074Z" fill="#FFCAB8"/>
<path d="M65.7284 190.392C67.1901 187.977 63.5881 186.264 60.9257 185.199C59.3335 184.576 57.7413 184.005 56.0968 183.538C55.7836 183.46 55.4182 183.382 55.1833 183.59C54.8962 183.849 55.0789 184.317 55.2355 184.654C56.4623 186.939 55.9663 194.936 55.0267 198.103C54.9745 198.311 66.1982 199.973 66.1982 199.973C66.1982 199.973 63.9535 193.352 65.7284 190.392Z" fill="#FFCAB8"/>
<path d="M62.2829 186.186C60.9256 185.667 57.5063 183.953 56.1229 183.538C55.8097 183.46 55.4443 183.382 55.2094 183.59C54.9222 183.849 55.1049 184.317 55.2616 184.654C56.4883 186.939 55.9924 194.936 55.0527 198.103C55.0005 198.259 60.4036 199.09 63.7185 199.609C62.2046 197.272 61.2389 189.613 62.2829 186.186Z" fill="#FFC3AB"/>
<path d="M70.2701 179.384C68.3386 178.241 66.4071 175.152 65.7023 173.412C63.8752 168.92 57.1409 170.764 54.8962 175.567C53.7216 178.034 53.8782 180.941 54.6613 183.538C55.6531 186.861 57.7935 190.003 60.9779 191.353C61.9959 191.794 67.0857 192.703 68.2864 191.976C69.9569 190.963 69.9047 183.797 70.6878 181.85C71.4186 180.137 70.7661 179.669 70.2701 179.384Z" fill="#FFCAB8"/>
<path d="M58.0806 186.056C55.4965 182.915 54.6613 179.072 56.0708 175.177C56.5406 173.879 57.2714 172.789 58.185 171.932C56.8277 172.763 55.627 174.009 54.8962 175.541C53.7216 178.007 53.8782 180.915 54.6613 183.512C55.6531 186.835 57.7935 189.977 60.9779 191.327C61.9437 191.742 66.4593 192.547 67.9993 192.08C67.3728 192.054 66.7203 191.976 66.0416 191.82C63.0399 191.093 60.0382 188.445 58.0806 186.056Z" fill="#FFC3AB"/>
<path d="M60.0904 168.946C49.1798 166.999 46.8046 174.554 47.0134 180.266C47.2483 186.134 53.2778 191.145 55.7053 191.924C56.0185 192.028 60.5602 192.236 63.066 186.757C63.5619 185.667 63.8751 184.576 63.3009 184.265C61.3172 183.148 60.5602 179.929 61.3955 179.124C62.6745 177.852 63.2748 179.981 64.1101 179.358C64.867 178.786 65.8589 174.814 64.7365 172.685C63.9535 171.049 62.1263 169.31 60.0904 168.946Z" fill="#FFB725"/>
<path d="M54.061 182.499C54.1654 181.591 54.7918 179.617 54.9745 178.709C55.8098 174.736 52.2599 171.517 48.9189 173.516C46.9352 174.71 45.3952 181.513 49.6498 186.887C51.2159 188.886 54.5308 191.95 56.3057 191.924C58.159 191.95 53.6694 186.212 54.061 182.499Z" fill="url(#paint53_linear)"/>
<path d="M46.5958 172.036C43.2548 172.036 40.5663 174.736 40.5663 178.034C40.5663 181.331 43.2548 184.031 46.5958 184.031C49.9107 184.031 51.0853 181.357 51.0853 178.034C51.0853 174.736 49.9107 172.036 46.5958 172.036Z" fill="#FFB725"/>
<path d="M99.4257 340.072C96.4762 339.007 92.561 336.852 91.3081 335.736C90.4989 334.983 90.3162 333.84 90.264 332.724C89.3766 333.139 88.3325 333.295 87.3145 333.295C86.2704 333.295 85.2264 333.088 84.3389 332.776C84.2606 334.464 84.2867 336.151 84.0779 337.813C83.9735 338.618 83.7908 339.501 84.1823 340.202C84.7304 341.136 86.0355 341.24 87.1057 341.24C89.5593 341.266 92.0128 341.422 94.4403 341.681C96.5545 341.889 98.721 342.201 100.731 341.526C101.148 341.396 101.618 341.084 101.462 340.669C100.94 340.565 100.209 340.357 99.4257 340.072Z" fill="#FFCAB8"/>
<path d="M99.4259 340.072C99.3737 340.072 99.2954 340.046 99.2432 340.02C98.3557 340.202 97.416 340.28 96.4764 340.228C92.4045 340.02 88.3848 337.242 87.3408 333.296C86.2967 333.296 85.2526 333.088 84.3652 332.777C84.2868 334.464 84.3129 336.152 84.1041 337.814C83.9997 338.618 83.817 339.501 84.2085 340.202C84.7567 341.137 86.0618 341.241 87.1319 341.241C89.5855 341.267 92.0391 341.422 94.4665 341.682C96.5808 341.89 98.7472 342.201 100.757 341.526C101.175 341.396 101.645 341.085 101.488 340.669C100.94 340.566 100.209 340.358 99.4259 340.072Z" fill="#FFC3AB"/>
<path d="M102.088 340.383C101.644 340.202 97.8075 338.826 95.6149 338.047C94.8058 337.761 94.1532 338.877 94.1532 339.527C89.1678 339.501 84.8349 336.151 84.1562 336.645C82.9033 337.579 81.9115 340.487 84.4172 341.63C84.7566 341.785 85.5396 341.863 88.1759 341.889C90.5512 341.889 92.9003 343.265 94.362 343.265C96.8939 343.265 101.41 343.291 102.088 343.291C102.923 343.291 103.472 340.955 102.088 340.383Z" fill="#333242"/>
<path d="M101.044 341.578C97.8336 342.071 94.2055 341.344 91.021 340.851C87.941 340.357 85.6702 339.449 83.1644 337.969C82.6163 339.215 82.6685 340.851 84.3912 341.63C84.7305 341.785 85.5136 341.863 88.1498 341.889C90.5251 341.889 92.8743 343.265 94.336 343.265C96.8678 343.265 101.383 343.291 102.062 343.291C102.793 343.291 103.315 341.474 102.454 340.643C102.193 341.11 101.749 341.474 101.044 341.578Z" fill="#FFB725"/>
<path d="M88.7241 341.785L82.9817 340.124L84.1824 343.239L89.0373 343.265C89.0373 343.239 88.5936 342.357 88.7241 341.785Z" fill="#FFB725"/>
<path d="M86.401 332.309C86.3227 332.335 86.2444 332.413 86.14 332.439C86.2183 332.413 86.2966 332.361 86.401 332.309Z" fill="#D0AECF"/>
<path d="M60.5342 335.762C59.1508 334.516 59.5684 332.049 59.464 330.465C59.3596 328.622 53.7999 330.18 53.7738 330.465C53.4084 332.906 53.6433 335.398 53.3301 337.865C53.2257 338.67 53.043 339.553 53.4606 340.254C54.0087 341.188 55.3138 341.292 56.4101 341.292C58.8637 341.318 61.3172 341.448 63.7447 341.708C65.8589 341.915 68.0254 342.227 70.0352 341.552C70.4268 341.422 70.8966 341.084 70.7661 340.695C68.0515 340.254 62.1264 337.216 60.5342 335.762Z" fill="#FFCAB8"/>
<path d="M56.2013 330.206C56.2796 330.024 56.384 329.868 56.4623 329.686C55.105 329.894 53.7738 330.335 53.7738 330.465C53.4084 332.906 53.6433 335.398 53.3301 337.865C53.2257 338.67 53.043 339.552 53.4606 340.253C54.0087 341.188 55.3138 341.292 56.4101 341.292C58.681 341.318 60.9518 341.448 63.2227 341.656C58.7332 339.578 54.0348 335.502 56.2013 330.206Z" fill="#FFC3AB"/>
<path d="M71.3142 340.383C70.8705 340.202 67.0335 338.825 64.841 338.073C64.0318 337.787 63.3793 338.903 63.3793 339.552C58.3938 339.552 54.0609 336.203 53.3823 336.722C52.1294 337.657 51.1375 340.591 53.6433 341.708C53.9826 341.863 54.7657 341.941 57.402 341.941C59.7772 341.941 62.1264 343.291 63.5881 343.291C66.12 343.291 70.6356 343.291 71.3142 343.291C72.1756 343.291 72.7237 340.955 71.3142 340.383Z" fill="#333242"/>
<path d="M70.0091 341.448C68.6779 341.811 67.2162 341.785 65.885 341.448C64.9454 341.188 59.4118 340.539 57.6368 340.435C55.4965 340.331 53.7216 339.293 52.6775 337.579C51.8944 338.851 51.6856 340.851 53.6694 341.733C54.0087 341.889 54.7918 341.967 57.428 341.967C59.8033 341.967 62.1525 343.317 63.6142 343.317H71.3403C72.0711 343.317 72.5671 341.5 71.7318 340.669C71.2359 341.006 70.6616 341.266 70.0091 341.448Z" fill="#FFB725"/>
<path d="M53.7999 282.692C54.5046 294.013 52.3121 297.128 51.7639 303.645C51.1897 310.266 52.8602 335.269 52.8602 335.269C52.8602 335.269 56.9321 336.359 60.2731 335.269L71.4708 251.874L51.1897 250.108C51.1897 250.108 53.0951 271.372 53.7999 282.692Z" fill="#C3391C"/>
<path d="M53.7999 282.692C54.5046 294.012 52.3121 297.128 51.7639 303.645C51.1897 310.266 52.8602 335.268 52.8602 335.268C52.8602 335.268 54.5568 335.736 56.6711 335.762C55.9402 326.467 54.2436 317.769 58.2111 309.98C59.464 307.514 59.9599 300.322 59.9599 297.362C59.9599 291.416 58.2894 281.264 60.8735 272.852C61.8653 269.633 62.1524 251.199 62.1524 251.199L51.1897 250.134C51.1897 250.108 53.0951 271.372 53.7999 282.692Z" fill="#FD4B1B"/>
<path d="M59.2029 252.289C58.8636 253.302 59.0724 254.652 59.5423 255.846C60.743 258.936 72.3583 288.586 72.2016 291.364C71.5752 301.931 78.3095 311.746 83.6864 335.554C85.7485 336.255 89.7421 336.826 91.7258 334.645C90.5773 321.793 80.0061 259.611 78.8576 252.886C78.7271 252.808 64.606 254.184 59.2029 252.289Z" fill="#C3391C"/>
<path d="M83.2166 311.174C81.5983 307.384 77.6569 299.491 76.7695 295.518C75.7515 290.897 76.143 277.837 75.2295 273.709C74.603 270.931 74.3681 268.049 72.9847 265.66C72.045 264.051 70.6355 263.012 69.6698 261.454C68.0515 258.858 67.8426 256.885 68.3908 254.392C64.7887 253.743 61.2389 253.016 59.2029 252.289C58.8636 253.302 59.0724 254.652 59.5423 255.846C60.743 258.936 72.3583 288.586 72.2016 291.364C71.5752 301.931 78.3095 311.746 83.6864 335.554C84.861 335.97 86.5315 336.619 87.9932 336.177C86.6359 332.309 86.3227 326.726 85.6441 323.221C84.7827 318.808 84.9654 315.199 83.2166 311.174Z" fill="#FD4B1B"/>
<path d="M79.2492 214.798C79.2492 211.63 72.3322 202.05 68.2342 199.505C64.1362 196.961 62.6745 195.481 57.4542 196.416C51.8162 197.428 52.9386 205.685 52.9386 221.912C52.9386 223.184 50.3284 251.017 49.9108 253.38C54.4525 256.547 75.0729 256.625 80.2149 254.886C80.2149 240.735 77.9441 230.454 77.9441 223.781C77.9702 221.445 79.2492 219.731 79.2492 214.798Z" fill="#333242"/>
<path d="M57.4803 196.416C51.5813 198.051 52.9386 205.685 52.9386 221.912C52.9386 223.184 50.3284 251.017 49.9108 253.38C51.8684 254.73 56.7755 255.483 62.1264 255.768C62.1264 249.355 57.5847 246.993 57.5847 241.385C57.5847 237.905 61.7871 234.245 61.5261 231.466C61.0301 226.274 59.7773 213.214 62.1264 205.451C62.9095 202.958 59.3074 195.922 57.4803 196.416Z" fill="#42445D"/>
<path d="M52.2076 340.201L53.4344 343.291H58.2894C58.2894 343.291 57.8195 342.408 57.95 341.837L52.2076 340.201Z" fill="#FFB725"/>
<path fill-rule="evenodd" clip-rule="evenodd" d="M61.6044 202.829C60.221 205.399 61.1345 208.593 63.6664 210.072C69.3044 213.37 78.44 218.043 85.3309 219.341L88.3848 213.266C85.5658 211.864 77.9702 205.763 69.1739 200.7C66.4854 199.142 63.0661 200.128 61.6044 202.829Z" fill="#333242"/>
<path fill-rule="evenodd" clip-rule="evenodd" d="M116.627 205.035C114.591 205.685 115.687 203.53 114.069 204.283C112.32 205.113 110.832 206.204 109.867 208.177C109.423 209.112 93.3442 212.227 86.114 213.006C83.6343 213.266 82.7469 217.861 84.313 218.9C88.2805 221.496 105.012 214.876 110.075 213.344C113.939 212.175 116.053 211.085 117.514 210.696C118.872 210.332 119.42 209.709 119.028 208.722C119.707 208.411 120.046 207.632 119.655 206.931C120.412 206.619 120.386 205.762 119.942 205.321C121.143 204.828 122.578 204.283 121.952 203.478C121.456 202.829 117.828 204.646 116.627 205.035Z" fill="#FFCAB8"/>
<path fill-rule="evenodd" clip-rule="evenodd" d="M104.933 209.631C101.384 211.189 92.3523 211.371 85.1482 212.124C82.6686 212.383 82.3031 217.991 83.8692 219.004C87.7845 221.574 102.323 216.797 107.491 215.213C106.578 214.019 105.743 210.851 105.534 209.397C105.325 209.475 105.142 209.527 104.933 209.631Z" fill="#333242"/>
<path fill-rule="evenodd" clip-rule="evenodd" d="M106.343 212.954C100.287 216.408 93.6052 217.55 87.0275 215.94C86.5055 215.81 84.2869 215.109 83.7387 214.902C83.5299 214.824 83.3211 214.746 83.1123 214.642C76.1692 211.89 67.5817 208.593 62.8051 203.01C62.6746 202.855 61.5522 201.141 61.4478 200.985C60.7691 199.869 58.7071 207.242 61.2129 208.722C66.4593 211.786 77.1872 217.368 83.8692 219.004C87.7845 221.574 102.323 216.797 107.491 215.213C107.1 214.72 106.734 213.837 106.421 212.902C106.395 212.928 106.369 212.954 106.343 212.954Z" fill="#42445D"/>
<path fill-rule="evenodd" clip-rule="evenodd" d="M114.147 203.166L111.25 206.23L113.573 205.996C114.226 205.607 115.087 204.88 115.505 203.841C116.836 203.296 117.358 202.335 117.071 201.349C115.635 202.465 114.826 202.829 114.147 203.166Z" fill="#FFCAB8"/>
<path fill-rule="evenodd" clip-rule="evenodd" d="M109.345 172.555C109.11 172.373 108.718 172.529 108.431 173.048C107.726 174.321 107.57 174.632 106.969 175.956C106.395 177.203 107.1 177.332 107.674 176.528C108.379 175.515 108.875 174.736 109.449 173.62C109.762 172.971 109.579 172.711 109.345 172.555Z" fill="#FFCAB8"/>
<path fill-rule="evenodd" clip-rule="evenodd" d="M109.579 174.996C109.214 174.762 108.796 174.918 108.509 175.411C107.831 176.683 107.309 177.566 106.63 178.864C105.977 180.085 106.63 180.188 107.256 179.461C108.066 178.501 108.979 177.177 109.632 176.086C109.997 175.463 109.814 175.126 109.579 174.996Z" fill="#FFCAB8"/>
<path fill-rule="evenodd" clip-rule="evenodd" d="M109.345 176.917C108.666 178.033 108.17 178.683 107.517 179.799C106.891 180.863 107.543 181.097 108.144 180.474C108.927 179.643 109.814 178.501 110.467 177.566C110.832 177.021 110.65 176.761 110.415 176.58C110.18 176.398 109.606 176.476 109.345 176.917Z" fill="#FFCAB8"/>
<path fill-rule="evenodd" clip-rule="evenodd" d="M111.093 177.904C110.832 177.8 110.545 177.67 110.284 178.111C109.606 179.228 109.423 179.695 109.162 180.11C108.535 181.175 109.188 181.305 109.788 180.682C110.571 179.851 110.571 179.747 111.198 178.812C111.563 178.293 111.328 177.982 111.093 177.904Z" fill="#FFCAB8"/>
<path fill-rule="evenodd" clip-rule="evenodd" d="M124.536 202.154C123.335 202.491 121.456 203.088 120.281 203.608C119.629 203.919 120.647 203.919 120.699 204.179C120.777 204.464 120.255 205.139 120.803 204.906C122.161 204.36 123.387 203.685 124.692 203.036C125.945 202.413 125.449 201.894 124.536 202.154Z" fill="#FFCAB8"/>
<path d="M308.475 274.566L310.668 264.466C310.668 264.466 307.274 257.066 303.881 257.352C300.488 257.638 298.504 258.572 298.504 258.572C298.504 258.572 300.253 253.665 296.233 250.056C292.214 246.447 282.008 242.475 273.238 237.698C273.238 237.698 273.238 237.698 273.238 237.724C273.603 238.243 280.181 248.239 282.217 260.831C284.461 274.618 303.437 262.519 304.56 297.466C305.03 312.265 298.165 317.691 298.765 325.844C298.896 327.739 299.444 329.79 300.566 332.127C300.566 332.127 317.741 306.371 312.834 272.645L308.475 274.566Z" fill="#0A429F"/>
<path d="M273.264 305.41C273.264 305.41 280.233 300.14 283.835 308.111C290.178 322.209 294.85 333.503 299.47 333.503C313.121 333.503 300.044 303.437 296.077 299.179C287.646 290.17 273.264 305.41 273.264 305.41Z" fill="#333242"/>
<path d="M285.506 265.063C285.871 266.439 283.444 271.139 283.444 271.139C283.444 271.139 281.016 264.492 279.737 262.804C278.484 261.143 262.379 258.936 261.883 258.884C265.538 263.246 266.008 266.829 266.008 266.829C266.008 266.829 260.474 258.702 252.069 259.169C243.638 259.637 232.519 254.989 232.519 254.989C232.519 254.989 232.519 254.989 232.571 255.041C248.311 273.527 251.051 273.605 260.813 279.239C270.601 284.873 281.277 286.249 286.993 290.455C295.085 296.427 299.078 303.385 300.984 309.487C302.733 315.069 302.733 319.924 302.524 322.676V322.702C302.42 323.922 302.289 324.727 302.237 324.961C302.367 324.494 302.472 324.026 302.576 323.559C312.417 282.303 285.14 263.687 285.506 265.063Z" fill="#0D5BD9"/>
<path d="M355.641 308.656C325.65 299.257 302.863 324.52 302.863 324.52L309.128 329.946C311.138 321.586 332.724 311.33 348.202 311.33C366.16 311.33 378.741 326.623 378.741 326.623C373.39 315.9 361.201 310.395 355.641 308.656Z" fill="#333242"/>
<path d="M287.202 258.806C282.739 248.836 273.76 238.217 273.264 237.698C273.629 238.217 280.207 248.213 282.243 260.805C284.488 274.592 303.464 262.493 304.586 297.44C305.056 312.239 301.741 318.963 302.315 327.116C305.343 319.794 308.841 299.439 306.752 284.925C304.116 266.595 292.37 270.412 287.202 258.806Z" fill="url(#paint54_linear)"/>
<path d="M354.649 319.301C328.469 307.306 305.369 330.413 305.369 330.413L310.146 334.723C314.766 327.142 334.629 320.054 347.68 321.326C363.915 322.91 373.782 339.267 373.782 339.267C369.971 328.077 359.504 321.534 354.649 319.301Z" fill="#0D5BD9"/>
<path d="M319.516 288.716C315.183 293.831 292.449 333.503 308.031 333.503C313.356 333.503 325.206 312.083 332.071 302.684C338.022 294.532 344.835 294.61 344.835 294.61C344.835 294.61 328.73 277.863 319.516 288.716Z" fill="#0A429F"/>
<path d="M286.524 322.806C291.796 326.467 292.945 331.634 287.698 334.723H306.387C300.044 314.913 286.524 322.806 286.524 322.806Z" fill="#333242"/>
<path d="M280.494 317.665C279.737 317.25 269.375 315.095 262.405 319.613C253.844 325.169 252.382 335.398 257.838 346.692C257.864 346.744 257.89 346.77 257.89 346.822C257.89 346.822 272.533 340.695 281.695 327.583C290.282 315.251 305.239 326.804 306.257 334.723H310.12C308.606 330.855 300.488 313.303 280.494 317.665Z" fill="#0D5BD9"/>
<path d="M262.405 319.612C253.792 325.065 252.382 335.398 257.838 346.693C258.334 342.071 257.316 334.204 263.215 325.584C265.799 321.793 272.246 318.262 279.659 317.406C277.127 316.679 269.505 315.121 262.405 319.612Z" fill="#0A429F"/>
<path d="M280.129 292.948C280.129 292.948 275.822 288.56 267.73 292.403C259.639 296.271 259.352 306.942 264.807 314.524C264.807 314.524 275.169 311.953 280.233 304.112C285.297 296.271 296.573 299.673 296.573 299.673C296.573 299.673 291.874 289.443 280.129 292.948Z" fill="#0D5BD9"/>
<path d="M267.704 292.429C259.613 296.297 259.325 306.968 264.781 314.55C270.497 293 280.102 292.974 280.102 292.974C280.102 292.974 275.796 288.56 267.704 292.429Z" fill="url(#paint55_linear)"/>
<path d="M351.021 280.434C341.494 276.409 336.743 281.706 336.743 281.706C325.755 277.162 318.133 290.326 318.133 290.326C318.133 290.326 328.078 283.212 337.213 294.584C343.948 302.996 355.563 305.774 355.563 305.774C361.462 296.765 360.574 284.484 351.021 280.434Z" fill="url(#paint56_linear)"/>
<path d="M351.021 280.434C341.494 276.409 336.743 281.706 336.743 281.706C336.743 281.706 347.811 281.212 355.537 305.774C361.462 296.765 360.574 284.484 351.021 280.434Z" fill="#0D5BD9"/>
<path d="M263.45 271.398C248.284 270.152 233.459 255.898 232.545 255.015C248.284 273.501 251.025 273.579 260.787 279.213C270.575 284.847 281.251 286.223 286.967 290.43C295.059 296.401 299.052 303.359 300.958 309.461C294.772 270.645 277.571 272.541 263.45 271.398Z" fill="url(#paint57_linear)"/>
<path d="M535.691 118.863H509.746C510.346 123.536 504.5 128.781 502.568 132.909C500.584 137.167 499.827 151.057 522.927 151.057C546.001 151.057 545.375 136.751 542.843 132.909C540.311 129.092 535.091 123.536 535.691 118.863Z" fill="#42445D"/>
<path d="M541.799 131.429C542.399 134.934 541.982 139.348 538.458 141.607C530.967 146.41 522.666 142.23 518.151 136.05C517.211 134.778 514.34 141.113 514.34 141.113C514.34 141.113 508.519 128.365 513.87 118.863H509.72C510.32 123.536 504.473 128.781 502.542 132.909C500.558 137.167 499.801 151.057 522.901 151.057C545.975 151.057 545.349 136.751 542.817 132.909C542.504 132.442 542.164 131.948 541.799 131.429Z" fill="#333242"/>
<path fill-rule="evenodd" clip-rule="evenodd" d="M519.587 266.984C519.378 269.477 518.673 271.502 518.542 273.579C518.386 275.734 518.803 277.915 518.908 280.719C519.195 283.705 517.838 285.99 517.316 288.56C514.679 301.672 517.472 309.694 514.575 319.69C513.635 322.962 512.643 324.104 512.147 325.506C511.495 327.402 512.095 329.738 511.417 333.503C510.529 338.384 508.128 343.317 508.937 346.069C509.72 348.64 515.697 351.158 517.942 351.158C520.631 351.158 519.325 348.094 519.195 346.173C518.986 343.161 520.082 326.051 521.074 322.287C523.972 311.434 530.523 295.233 531.854 284.899C533.107 275.111 532.272 273.268 534.517 261.792C534.778 260.468 539.502 229.675 539.868 217.264L519.743 227.364C520.265 239.333 520.578 254.496 519.587 266.984Z" fill="#FFC3AB"/>
<path fill-rule="evenodd" clip-rule="evenodd" d="M528.774 257.741C531.254 268.205 528.905 278.564 525.694 288.69C522.092 300.036 520.604 313.849 518.255 320.521C515.201 329.167 517.707 330.621 513.217 338.54C508.989 346.017 516.872 351.106 517.994 351.106C520.683 351.106 519.377 348.043 519.247 346.121C519.038 343.11 520.134 326 521.126 322.235C524.024 311.382 530.575 295.181 531.906 284.847C533.159 275.059 532.324 273.216 534.569 261.74C534.83 260.416 539.554 229.623 539.919 217.212L526.164 224.119C528.2 235.309 526.138 246.707 528.774 257.741Z" fill="#FFCAB8"/>
<path fill-rule="evenodd" clip-rule="evenodd" d="M519.221 343.11C518.777 345.161 514.705 346.251 512.722 343.551C511.416 341.785 510.92 339.475 510.581 337.475C510.555 337.398 510.529 337.32 510.529 337.216C509.511 340.747 508.362 344.018 508.963 346.043C509.746 348.64 515.723 351.132 517.968 351.132C520.656 351.132 519.351 348.069 519.221 346.147C519.169 345.576 519.195 344.486 519.221 343.11Z" fill="url(#paint58_linear)"/>
<path fill-rule="evenodd" clip-rule="evenodd" d="M513.452 344.797C513.4 344.589 513.374 344.382 513.374 344.2C513.139 344.018 512.93 343.811 512.748 343.551C511.442 341.785 510.947 339.475 510.607 337.475C510.581 337.398 510.555 337.32 510.555 337.216C509.537 340.747 508.389 344.018 508.989 346.043C509.772 348.64 515.749 351.132 517.994 351.132C519.169 351.132 519.56 350.509 519.638 349.678C518.647 349.834 514.575 348.718 513.452 344.797Z" fill="#FFB725"/>
<path fill-rule="evenodd" clip-rule="evenodd" d="M538.484 149.733C536.318 149.214 532.141 148.02 529.583 147.033C525.172 145.319 525.929 141.477 526.947 136.025L518.777 133.169C517.994 138.958 519.351 145.579 513.348 143.943C506.196 141.996 502.777 143.32 500.532 152.667L533.681 168.167C533.681 174.632 536.291 180.656 537.831 185.978L544.775 183.226C544.044 175.827 542.425 150.668 538.484 149.733Z" fill="#FFCAB8"/>
<path fill-rule="evenodd" clip-rule="evenodd" d="M489.595 175.126L495.155 180.344C498.835 175.723 508.963 152.667 508.963 152.667L499.514 148.721C494.764 156.691 491.344 170.842 489.595 175.126Z" fill="#FFCAB8"/>
<path fill-rule="evenodd" clip-rule="evenodd" d="M504.264 151.083C503.351 154.355 496.956 152.382 495.651 157.003C495.155 158.769 496.982 162.196 497.635 163.676C497.974 164.429 498.548 171.179 496.173 175.619C495.677 176.528 492.727 177.021 492.049 177.436L495.155 180.344C498.835 175.723 508.963 152.667 508.963 152.667L504.317 150.72C504.291 150.85 504.291 150.954 504.264 151.083Z" fill="#FFC3AB"/>
<path fill-rule="evenodd" clip-rule="evenodd" d="M513.374 143.943C509.433 142.853 506.614 142.801 504.526 144.515C506.222 143.995 508.049 143.84 509.615 144.047C512.017 144.333 513.922 146.721 516.01 146.981C519.873 147.448 524.232 142.36 526.451 139.062C526.608 138.128 526.79 137.115 526.973 136.051L518.803 133.195C518.046 138.984 519.377 145.605 513.374 143.943Z" fill="#FFC3AB"/>
<path fill-rule="evenodd" clip-rule="evenodd" d="M537.257 168.998C537.022 169.388 534.804 171.595 533.786 171.958C533.968 176.943 536.631 181.746 537.884 186.004L540.546 185.459C539.58 181.772 537.596 177.021 537.492 173.022C537.44 171.62 537.335 170.296 537.257 168.998Z" fill="#FFC3AB"/>
<path fill-rule="evenodd" clip-rule="evenodd" d="M524.885 111.489C521.91 111.074 519.613 111.463 517.838 112.424C514.157 114.397 512.826 118.863 512.852 123.718C512.852 123.9 512.852 124.081 512.852 124.289C512.852 124.471 512.852 124.627 512.852 124.808C512.878 125.042 512.878 125.276 512.878 125.535C512.957 126.6 513.035 127.534 513.139 128.417C513.4 130.39 513.74 131.948 514.288 133.246C514.966 134.908 519.586 140.854 523.215 140.75C526.556 140.646 531.071 135.012 531.802 133.714C532.663 132.13 533.081 130.468 533.29 128.703C533.447 127.431 533.499 126.106 533.551 124.678V124.627C533.577 124.289 533.577 123.951 533.577 123.64C533.629 117.876 531.645 112.424 524.885 111.489Z" fill="#FFCAB8"/>
<path fill-rule="evenodd" clip-rule="evenodd" d="M532.168 329.894C531.672 328.492 530.549 328.778 529.61 325.506C526.712 315.51 529.636 306.06 526.999 292.948C526.477 290.378 525.12 288.093 525.407 285.107C525.512 282.303 525.929 280.122 525.773 277.967C525.616 275.916 524.911 273.865 524.729 271.372C524.102 263.376 523.998 260.234 524.128 248.628C524.337 231.103 525.747 222.769 519.325 209.657L505.987 209.709L504.421 221.652C504.839 235.231 507.162 249.303 510.164 264.674C512.382 276.15 511.756 280.693 513.009 290.481C514.34 300.789 524.963 329.92 525.277 333.892C525.355 334.983 525.59 348.718 525.799 350.561C526.008 352.456 525.799 357 528.383 357C530.628 357 534.804 352.171 535.378 350.431C536.239 347.731 533.812 342.772 532.898 337.891C532.194 334.1 532.82 331.789 532.168 329.894Z" fill="#FFCAB8"/>
<path fill-rule="evenodd" clip-rule="evenodd" d="M527.861 350.457C526.947 350.457 526.321 349.445 525.694 348.899C525.72 349.678 525.773 350.275 525.799 350.561C526.008 352.456 525.799 357 528.383 357C530.628 357 534.804 352.171 535.378 350.431C536.031 348.432 534.856 345.239 533.864 341.733C533.681 342.383 532.481 350.457 527.861 350.457Z" fill="url(#paint59_linear)"/>
<path fill-rule="evenodd" clip-rule="evenodd" d="M529.374 351.729C529.27 351.132 529.27 350.613 529.322 350.12C528.878 350.327 528.383 350.431 527.834 350.431C526.921 350.431 526.294 349.419 525.668 348.873C525.694 349.652 525.746 350.25 525.772 350.535C525.981 352.43 525.772 356.974 528.356 356.974C529.818 356.974 532.089 354.923 533.681 353.028C533.29 353.209 532.872 353.365 532.454 353.469C531.28 353.807 529.583 353.105 529.374 351.729Z" fill="#FFB725"/>
<path fill-rule="evenodd" clip-rule="evenodd" d="M499.801 195.689C499.723 196.26 498.574 205.814 498.496 206.334C496.512 223.833 503.168 247.979 508.023 271.139C519.978 275.111 536.892 270.438 536.892 270.438C536.892 270.438 544.461 234.686 544.461 216.849C544.461 204.62 537.518 197.376 536.84 193.534C528.017 198.648 503.795 196.727 499.801 195.689Z" fill="#0A429F"/>
<path fill-rule="evenodd" clip-rule="evenodd" d="M517.759 259.014C516.48 254.444 514.079 245.902 514.496 241.177C515.41 231.025 501.941 225.287 506.692 220.925C508.911 218.9 515.332 215.94 516.976 212.721C518.281 210.124 512.956 197.584 512.956 197.584C512.956 197.584 499.827 195.948 499.749 195.896C499.749 195.896 498.548 205.84 498.496 206.334C496.512 223.833 503.168 247.979 508.023 271.139C517.107 274.15 529.009 272.203 534.229 271.087C529.714 265.531 519.717 266.05 517.759 259.014Z" fill="#0D5BD9"/>
<path fill-rule="evenodd" clip-rule="evenodd" d="M533.107 147.89L522.901 151.057C522.901 151.057 517.733 146.799 514.209 143.606C514.209 143.606 505.335 138.335 496.382 149.811C495.364 151.109 501.446 153.446 500.663 160.041C499.357 171.153 496.408 192.365 499.41 195.922C502.255 199.272 536.187 200.466 537.179 194.728C537.753 191.379 534.699 189.639 533.76 185.823C533.081 183.122 533.342 180.137 534.177 175.074C536.37 173.282 540.52 170.945 538.327 165.052C536.735 160.768 544.879 160.924 544.487 157.73C543.261 148.227 533.107 147.89 533.107 147.89Z" fill="#0A429F"/>
<path fill-rule="evenodd" clip-rule="evenodd" d="M507.319 188.523C504.761 186.601 506.509 184.758 509.067 186.705C511.912 188.86 520.265 192.339 520.265 188.834C520.265 180.578 528.096 175.281 530.184 172.945C532.167 170.738 524.702 163.338 528.2 161.209C528.461 161.053 528.905 160.015 528.852 159.573C528.539 156.172 531.88 156.224 529.766 154.173C527.652 152.096 526.268 153.031 523.58 153.784C517.838 155.367 501.393 153.42 500.636 160.015C499.331 171.127 496.382 192.339 499.384 195.896C501.628 198.519 522.98 199.817 532.559 197.506C530.627 196.675 527.339 195.948 525.277 195.922C516.767 195.793 512.043 192.132 507.319 188.523ZM505.726 169.284C506.222 167.259 505.283 164.948 504.16 163.286C503.299 162.04 507.319 162.196 509.511 160.924C510.921 160.119 513.661 157.159 515.723 159.625C518.125 162.481 514.784 165.597 519.639 168.245C523.841 170.53 521.1 174.139 517.916 174.658C514.366 175.255 511.599 170.738 510.033 171.75C507.345 173.516 504.969 172.399 505.726 169.284Z" fill="#0D5BD9"/>
<path fill-rule="evenodd" clip-rule="evenodd" d="M523.188 131.896C522.223 131.922 521.283 132.338 521.231 132.519C521.074 132.935 521.701 133.065 522.066 133.065C522.196 133.065 522.484 133.091 522.666 133.143C522.98 133.195 523.293 133.195 523.606 133.117C523.789 133.065 524.076 133.013 524.206 132.987C524.572 132.961 525.276 132.727 524.989 132.39C524.807 132.156 524.102 131.87 523.188 131.896Z" fill="#FFC3AB"/>
<path d="M524.885 110.217C521.91 109.801 519.613 110.191 517.838 111.151C514.157 113.125 512.826 117.59 512.852 122.446C513.479 120.524 514.601 118.162 516.559 116.578C516.559 116.578 519.821 119.693 524.102 121.381C524.102 121.381 521.44 117.383 520.944 115.773C521.257 115.955 525.955 119.044 533.316 127.379C533.473 126.081 533.525 124.73 533.577 123.302C533.838 117.253 532.037 111.203 524.885 110.217Z" fill="#FFC3AB"/>
<path d="M523.267 105.284C517.107 105.284 514.81 110.399 514.81 110.399C514.81 110.399 510.451 111.255 509.694 115.254C509.041 118.681 510.398 122.186 512.93 124.834C512.93 124.834 513.557 118.837 517.368 115.799C517.368 115.799 520.63 118.915 524.911 120.602C524.911 120.602 522.249 116.578 521.753 114.968C521.753 114.968 526.999 118.265 535.247 127.872C534.725 123.692 535.717 121.641 535.717 116.889C535.691 111.489 530.967 105.284 523.267 105.284Z" fill="#42445D"/>
<path d="M519.665 113.514C520.656 116.578 523.162 119.927 524.885 120.602C524.885 120.602 522.223 116.578 521.727 114.968C521.727 114.968 526.973 118.265 535.221 127.872C535.195 127.794 529.035 113.514 519.665 113.514Z" fill="#333242"/>
<path d="M510.346 113.514C510.059 114.007 509.824 114.579 509.694 115.254C509.041 118.681 510.399 122.186 512.904 124.834C512.904 124.834 513.061 123.302 513.713 121.381C510.216 120.472 509.093 116.448 510.346 113.514Z" fill="#333242"/>
<path d="M529.009 129.534C526.869 129.612 525.068 128.08 524.989 126.158C524.937 124.549 526.086 123.822 528.8 123.744C529.374 123.718 529.87 123.744 530.314 123.796C530.158 123.64 530.053 123.458 529.923 123.302C529.531 123.276 529.14 123.276 528.774 123.276C527.338 123.328 525.511 123.562 524.807 124.808V124.782C524.65 125.016 524.076 125.146 523.919 125.146C523.789 125.146 523.214 125.172 522.875 125.172C522.536 125.172 521.935 125.198 521.805 125.198C521.674 125.198 521.074 125.12 520.891 124.886V124.938C520.108 123.744 518.281 123.64 516.846 123.692C516.036 123.718 515.097 123.822 514.314 124.107C514.34 124.107 514.34 124.081 514.366 124.055C513.948 124.159 513.296 124.237 512.826 124.263C512.826 124.445 512.826 124.601 512.826 124.782C512.852 125.016 512.852 125.25 512.852 125.509C512.93 126.574 513.009 127.508 513.113 128.391C513.896 129.637 515.384 130.468 517.054 130.39C519.377 130.313 521.205 128.599 521.283 126.522V126.574C521.544 125.977 522.405 125.795 522.875 125.769C523.319 125.769 524.206 125.873 524.493 126.444V126.392C524.728 128.443 526.66 130.027 528.983 129.975C530.993 129.897 532.637 128.599 533.081 126.885C533.081 126.937 533.081 126.963 533.081 126.963C533.107 126.937 533.107 126.885 533.107 126.859C532.95 126.678 532.82 126.496 532.689 126.314C532.585 128.054 530.993 129.456 529.009 129.534ZM517.107 129.949C514.966 130.027 513.139 128.521 513.087 126.574C513.035 124.964 514.157 124.237 516.898 124.159C519.612 124.055 520.813 124.704 520.865 126.314C520.944 128.235 519.247 129.871 517.107 129.949Z" fill="#FFC3AB"/>
<path d="M529.166 122.887C527.286 122.939 524.807 123.328 524.885 125.795C524.963 128.002 526.999 129.715 529.401 129.638C531.802 129.56 533.707 127.69 533.629 125.509C533.577 123.017 531.045 122.809 529.166 122.887ZM529.401 129.144C527.26 129.222 525.459 127.716 525.381 125.769C525.329 124.159 526.477 123.432 529.192 123.354C531.933 123.25 533.107 123.9 533.159 125.509C533.238 127.457 531.541 129.066 529.401 129.144Z" fill="white"/>
<path d="M533.681 123.199C533.368 123.199 532.246 123.224 531.645 123.095C531.645 123.095 532.376 123.38 533.029 124.133C533.525 124.73 533.525 126.6 533.525 126.6C533.76 125.951 533.786 125.094 533.786 124.704C533.786 124.341 533.864 124.237 534.021 124.237C534.177 124.211 534.203 124.133 534.203 124.029C534.203 123.925 534.177 123.484 534.177 123.328C534.177 123.199 534.021 123.199 533.681 123.199Z" fill="white"/>
<path d="M517.263 123.302C515.384 123.354 512.904 123.744 512.983 126.21C513.061 128.417 515.097 130.131 517.498 130.053C519.926 129.975 521.805 128.106 521.726 125.925C521.648 123.432 519.142 123.225 517.263 123.302ZM517.472 129.56C515.332 129.638 513.531 128.132 513.452 126.184C513.4 124.575 514.549 123.848 517.263 123.77C520.004 123.666 521.178 124.315 521.231 125.925C521.309 127.872 519.612 129.482 517.472 129.56Z" fill="white"/>
<path d="M512.304 124.107C512.304 124.263 512.33 124.704 512.33 124.808C512.33 124.912 512.356 124.99 512.513 124.99C512.669 124.99 512.774 125.094 512.774 125.457C512.774 125.821 512.878 126.704 513.165 127.327C513.165 127.327 513.035 125.457 513.478 124.834C514.053 124.029 514.783 123.692 514.783 123.692C514.183 123.874 513.087 123.926 512.748 123.952C512.461 123.926 512.304 123.977 512.304 124.107Z" fill="white"/>
<path d="M523.267 124.782C522.927 124.782 522.353 124.808 522.197 124.808C522.066 124.808 521.466 124.73 521.283 124.497L521.701 126.236C521.962 125.639 522.823 125.457 523.267 125.431C523.737 125.406 524.598 125.535 524.885 126.107L525.198 124.341C525.042 124.575 524.441 124.704 524.311 124.704C524.206 124.756 523.606 124.756 523.267 124.782Z" fill="white"/>
<path fill-rule="evenodd" clip-rule="evenodd" d="M537.388 184.55C528.905 186.004 522.849 189.847 518.308 190.107C517.237 190.158 516.219 190.522 515.254 189.795C513.192 188.263 511.025 188.341 508.754 188.419C506.666 188.497 508.963 190.132 506.509 190.548C505.048 190.782 500.715 191.015 500.584 191.586C500.349 192.755 501.681 192.729 503.195 192.599C502.934 193.274 503.403 194.183 504.343 194.105C504.317 195.04 505.074 195.689 505.961 195.637C506.04 196.883 506.979 197.221 508.572 196.883C510.294 196.546 513.061 196.545 517.733 195.715C523.841 194.624 525.068 195.429 529.505 195.04C533.864 194.65 540.52 194.157 544.148 191.56C545.427 190.626 545.453 186.575 544.723 182.551C541.851 183.174 540.259 184.057 537.388 184.55Z" fill="#FFCAB8"/>
<path fill-rule="evenodd" clip-rule="evenodd" d="M503.325 186.498C503.56 187.692 504.63 188.393 506.301 188.263C506.901 188.834 507.292 189.457 507.71 189.795L512.095 188.497L507.371 186.861C506.483 186.861 505.465 186.913 503.325 186.498Z" fill="#FFCAB8"/>
<path fill-rule="evenodd" clip-rule="evenodd" d="M488.316 175.541C480.956 180.734 465.477 191.976 463.076 191.093C460.492 190.133 458.247 190.21 455.924 190.885C453.784 191.509 456.603 192.599 454.149 193.664C452.714 194.287 448.302 195.663 448.328 196.286C448.407 197.558 449.764 197.169 451.278 196.649C451.2 197.428 451.904 198.233 452.87 197.922C453.105 198.882 454.045 199.35 454.958 199.09C455.376 200.336 456.42 200.466 457.986 199.713C459.657 198.908 462.554 198.207 467.122 196.104C473.125 193.378 489.726 189.769 495.86 180.266C497.139 178.319 490.822 173.75 488.316 175.541Z" fill="#FFCAB8"/>
<path fill-rule="evenodd" clip-rule="evenodd" d="M494.033 176.813C492.936 177.41 490.326 179.721 489.909 180.033C486.333 182.707 483.07 185.745 478.998 187.51C474.9 189.302 469.497 193.222 465.373 194.936C464.042 195.481 461.693 194.702 459.604 193.897C458.299 193.404 456.916 193.222 455.559 193.404C454.958 193.482 454.462 193.508 454.175 193.638C452.74 194.261 448.329 195.637 448.355 196.26C448.433 197.532 449.79 197.143 451.304 196.623C451.226 197.402 451.931 198.207 452.896 197.896C453.131 198.856 454.071 199.324 454.984 199.064C455.402 200.31 456.446 200.44 458.012 199.687C459.004 199.22 465.295 196.935 467.148 196.078C473.151 193.352 489.752 189.743 495.886 180.24C496.878 178.735 495.181 177.436 494.033 176.813Z" fill="#FFC3AB"/>
<path fill-rule="evenodd" clip-rule="evenodd" d="M450.625 190.6C451.174 191.768 452.479 192.21 454.175 191.638C455.428 192.261 456.524 192.547 457.464 192.365L460.153 190.366L454.906 189.899C453.967 190.132 452.949 190.47 450.625 190.6Z" fill="#FFCAB8"/>
<path d="M465.216 198.545L465.686 195.195L384.875 185.355L465.216 198.545Z" fill="#333242"/>
<path fill-rule="evenodd" clip-rule="evenodd" d="M453.001 194.624C451.226 195.092 450.834 195.221 449.112 195.844C448.433 196.078 448.146 196.545 448.329 196.857C448.485 197.169 448.772 197.428 449.634 197.169C451.148 196.701 452.192 196.26 453.575 195.585C454.645 195.066 454.671 194.183 453.001 194.624Z" fill="#FFCAB8"/>
<path fill-rule="evenodd" clip-rule="evenodd" d="M456.655 194.781C454.932 195.378 453.418 196.105 451.696 196.676C451.017 196.91 451.069 197.299 451.278 197.611C451.461 197.923 451.8 198.208 452.609 197.871C454.071 197.273 455.898 196.443 457.255 195.638C458.299 195.041 458.299 194.21 456.655 194.781Z" fill="#FFCAB8"/>
<path fill-rule="evenodd" clip-rule="evenodd" d="M457.673 196.052C456.159 196.649 454.932 197.35 453.418 197.947C452.818 198.181 452.922 198.623 453.105 198.96C453.288 199.272 453.601 199.557 454.332 199.22C455.637 198.623 457.229 197.766 458.404 196.961C459.291 196.338 459.108 195.481 457.673 196.052Z" fill="#FFCAB8"/>
<path fill-rule="evenodd" clip-rule="evenodd" d="M459.083 197.506C457.569 198.103 456.838 198.441 455.324 199.038C454.724 199.272 454.802 199.661 454.985 199.973C455.167 200.284 455.481 200.57 456.211 200.232C457.516 199.635 458.508 199.168 459.683 198.389C460.57 197.792 460.518 196.961 459.083 197.506Z" fill="#FFCAB8"/>
<path d="M508.284 189.38C508.284 189.406 508.284 189.406 508.284 189.38C508.284 190.262 509.015 190.989 509.877 190.989H547.568C548.455 190.989 549.16 190.262 549.16 189.406H508.284V189.38Z" fill="#42445D"/>
<path d="M504.212 156.328C503.847 155.03 502.672 154.147 501.315 154.199H478.189V190.6L510.111 190.989C512.069 190.989 512.174 189.483 512.043 188.964L504.212 156.328Z" fill="#42445D"/>
<path d="M502.542 154.874C502.437 154.458 502.046 154.199 501.628 154.199H460.805C460.179 154.199 459.735 154.796 459.891 155.393L467.539 187.64C468.087 189.639 469.915 191.015 472.003 191.015H510.007C510.633 191.015 511.077 190.418 510.92 189.821L502.542 154.874Z" fill="url(#paint60_linear)"/>
<path d="M397.561 318.756L398.552 314.186C398.552 314.186 397.012 310.837 395.498 310.967C393.958 311.097 393.071 311.512 393.071 311.512C393.071 311.512 393.854 309.279 392.053 307.67C390.252 306.034 385.632 304.242 381.638 302.087C381.795 302.321 384.771 306.839 385.71 312.551C386.728 318.782 395.316 313.304 395.812 329.115C396.021 335.814 392.914 338.255 393.175 341.941C393.228 342.798 393.489 343.733 393.985 344.771C393.985 344.771 401.737 333.114 399.544 317.873L397.561 318.756Z" fill="url(#paint61_linear)"/>
<path d="M381.638 332.698C381.638 332.698 384.797 330.309 386.415 333.918C389.286 340.305 391.401 345.394 393.489 345.394C399.675 345.394 393.75 331.789 391.949 329.868C388.138 325.792 381.638 332.698 381.638 332.698Z" fill="#333242"/>
<path d="M387.172 314.446C387.329 315.069 386.232 317.198 386.232 317.198C386.232 317.198 385.136 314.186 384.562 313.433C384.014 312.68 376.705 311.694 376.496 311.668C378.141 313.641 378.35 315.251 378.35 315.251C378.35 315.251 375.844 311.564 372.033 311.772C368.222 311.979 363.184 309.876 363.184 309.876C363.184 309.876 363.184 309.876 363.211 309.902C370.336 318.262 371.563 318.314 375.974 320.859C380.386 323.403 385.214 324.026 387.825 325.922C391.479 328.622 393.28 331.763 394.141 334.541C394.924 337.06 394.924 339.267 394.846 340.513C394.794 341.058 394.742 341.422 394.715 341.552C394.768 341.344 394.82 341.136 394.872 340.929C399.335 322.261 386.989 313.823 387.172 314.446Z" fill="#0D5BD9"/>
<path d="M418.912 334.178C405.339 329.946 395.029 341.37 395.029 341.37L397.874 343.836C398.787 340.046 408.549 335.424 415.545 335.424C423.662 335.424 429.352 342.357 429.352 342.357C426.925 337.449 421.418 334.957 418.912 334.178Z" fill="#333242"/>
<path d="M387.929 311.616C385.919 307.098 381.847 302.295 381.612 302.061C381.769 302.295 384.745 306.812 385.684 312.524C386.702 318.756 395.29 313.277 395.786 329.089C395.994 335.788 394.507 338.826 394.768 342.512C396.125 339.189 397.717 329.998 396.777 323.429C395.603 315.147 390.278 316.86 387.929 311.616Z" fill="#0A429F"/>
<path d="M418.442 338.981C406.592 333.555 396.151 344.018 396.151 344.018L398.317 345.965C400.406 342.538 409.411 339.319 415.284 339.916C422.618 340.643 427.082 348.042 427.082 348.042C425.385 342.954 420.635 339.994 418.442 338.981Z" fill="#0D5BD9"/>
<path d="M402.546 325.143C400.588 327.453 390.304 345.394 397.352 345.394C399.753 345.394 405.13 335.71 408.21 331.452C410.899 327.765 413.979 327.791 413.979 327.791C413.979 327.791 406.722 320.236 402.546 325.143Z" fill="#0D5BD9"/>
<path d="M387.642 340.565C390.017 342.227 390.539 344.563 388.164 345.966H396.621C393.75 337.008 387.642 340.565 387.642 340.565Z" fill="#333242"/>
<path d="M384.901 338.228C384.562 338.047 379.863 337.06 376.705 339.111C372.842 341.63 372.163 346.251 374.643 351.366C374.643 351.392 374.669 351.392 374.669 351.418C374.669 351.418 381.299 348.64 385.423 342.72C389.312 337.138 396.073 342.383 396.543 345.965H398.291C397.613 344.2 393.958 336.255 384.901 338.228Z" fill="#0D5BD9"/>
<path d="M376.731 339.111C372.842 341.578 372.19 346.251 374.669 351.366C374.904 349.289 374.434 345.706 377.097 341.811C378.271 340.098 381.195 338.514 384.536 338.099C383.387 337.787 379.942 337.086 376.731 339.111Z" fill="url(#paint62_linear)"/>
<path d="M384.745 327.064C384.745 327.064 382.787 325.065 379.133 326.83C375.478 328.57 375.348 333.399 377.828 336.826C377.828 336.826 382.5 335.658 384.797 332.127C387.094 328.596 392.184 330.102 392.184 330.102C392.184 330.102 390.043 325.48 384.745 327.064Z" fill="#0D5BD9"/>
<path d="M379.133 326.83C375.478 328.57 375.348 333.399 377.828 336.826C380.412 327.064 384.745 327.064 384.745 327.064C384.745 327.064 382.787 325.091 379.133 326.83Z" fill="url(#paint63_linear)"/>
<path d="M416.824 321.404C412.517 319.587 410.377 321.975 410.377 321.975C405.417 319.924 401.972 325.87 401.972 325.87C401.972 325.87 406.461 322.65 410.611 327.791C413.665 331.608 418.912 332.854 418.912 332.854C421.522 328.778 421.13 323.221 416.824 321.404Z" fill="url(#paint64_linear)"/>
<path d="M416.824 321.404C412.517 319.587 410.376 321.975 410.376 321.975C410.376 321.975 415.388 321.767 418.886 332.854C421.522 328.778 421.13 323.221 416.824 321.404Z" fill="#0D5BD9"/>
<path d="M377.201 317.302C370.336 316.731 363.628 310.292 363.211 309.902C370.336 318.262 371.563 318.314 375.974 320.859C380.386 323.403 385.214 324.026 387.825 325.922C391.479 328.622 393.28 331.763 394.141 334.542C391.374 316.964 383.596 317.821 377.201 317.302Z" fill="url(#paint65_linear)"/>
</g>
<defs>
<filter id="filter0_d" x="0.813354" y="0.581577" width="601.373" height="373.624" filterUnits="userSpaceOnUse" color-interpolation-filters="sRGB">
<feFlood flood-opacity="0" result="BackgroundImageFix"/>
<feColorMatrix in="SourceAlpha" type="matrix" values="0 0 0 0 0 0 0 0 0 0 0 0 0 0 0 0 0 0 127 0"/>
<feOffset dy="4"/>
<feGaussianBlur stdDeviation="8"/>
<feColorMatrix type="matrix" values="0 0 0 0 0 0 0 0 0 0 0 0 0 0 0 0 0 0 0.08 0"/>
<feBlend mode="normal" in2="BackgroundImageFix" result="effect1_dropShadow"/>
<feBlend mode="normal" in="SourceGraphic" in2="effect1_dropShadow" result="shape"/>
</filter>
<linearGradient id="paint0_linear" x1="68.711" y1="235.226" x2="188.771" y2="235.226" gradientUnits="userSpaceOnUse">
<stop stop-color="#FB6B14"/>
<stop offset="1" stop-color="#FDB522"/>
</linearGradient>
<linearGradient id="paint1_linear" x1="247.196" y1="311.577" x2="272.599" y2="323.037" gradientUnits="userSpaceOnUse">
<stop stop-color="#FB6B14"/>
<stop offset="1" stop-color="#FDB522"/>
</linearGradient>
<linearGradient id="paint2_linear" x1="262.172" y1="269.019" x2="252.85" y2="275.339" gradientUnits="userSpaceOnUse">
<stop offset="2.5e-07" stop-color="#EFF6FF"/>
<stop offset="1" stop-color="#8AA8DA"/>
</linearGradient>
<linearGradient id="paint3_linear" x1="124.628" y1="263.704" x2="105.117" y2="250.464" gradientUnits="userSpaceOnUse">
<stop offset="2.5e-07" stop-color="#EFF6FF"/>
<stop offset="1" stop-color="#8AA8DA"/>
</linearGradient>
<linearGradient id="paint4_linear" x1="448.124" y1="255.904" x2="487.251" y2="209.613" gradientUnits="userSpaceOnUse">
<stop stop-color="#FB6B14"/>
<stop offset="1" stop-color="#FDB522"/>
</linearGradient>
<linearGradient id="paint5_linear" x1="408.37" y1="307.906" x2="389.353" y2="302.553" gradientUnits="userSpaceOnUse">
<stop stop-color="#FB6B14"/>
<stop offset="1" stop-color="#FDB522"/>
</linearGradient>
<linearGradient id="paint6_linear" x1="475.53" y1="262.259" x2="490.39" y2="258.067" gradientUnits="userSpaceOnUse">
<stop offset="2.5e-07" stop-color="#EFF6FF"/>
<stop offset="1" stop-color="#8AA8DA"/>
</linearGradient>
<linearGradient id="paint7_linear" x1="406.84" y1="286.464" x2="406.84" y2="211.718" gradientUnits="userSpaceOnUse">
<stop offset="1.5e-07" stop-color="#EFF6FF"/>
<stop offset="1" stop-color="#C4D8FB"/>
</linearGradient>
<linearGradient id="paint8_linear" x1="406.84" y1="286.465" x2="406.84" y2="211.718" gradientUnits="userSpaceOnUse">
<stop offset="1.5e-07" stop-color="#EFF6FF"/>
<stop offset="1" stop-color="#C4D8FB"/>
</linearGradient>
<linearGradient id="paint9_linear" x1="406.84" y1="286.465" x2="406.84" y2="211.719" gradientUnits="userSpaceOnUse">
<stop offset="1.5e-07" stop-color="#EFF6FF"/>
<stop offset="1" stop-color="#C4D8FB"/>
</linearGradient>
<linearGradient id="paint10_linear" x1="406.84" y1="286.465" x2="406.84" y2="211.719" gradientUnits="userSpaceOnUse">
<stop offset="1.5e-07" stop-color="#EFF6FF"/>
<stop offset="1" stop-color="#C4D8FB"/>
</linearGradient>
<linearGradient id="paint11_linear" x1="406.84" y1="286.465" x2="406.84" y2="211.718" gradientUnits="userSpaceOnUse">
<stop offset="1.5e-07" stop-color="#EFF6FF"/>
<stop offset="1" stop-color="#C4D8FB"/>
</linearGradient>
<linearGradient id="paint12_linear" x1="406.84" y1="286.465" x2="406.84" y2="211.718" gradientUnits="userSpaceOnUse">
<stop offset="1.5e-07" stop-color="#EFF6FF"/>
<stop offset="1" stop-color="#C4D8FB"/>
</linearGradient>
<linearGradient id="paint13_linear" x1="406.84" y1="286.465" x2="406.84" y2="211.718" gradientUnits="userSpaceOnUse">
<stop offset="1.5e-07" stop-color="#EFF6FF"/>
<stop offset="1" stop-color="#C4D8FB"/>
</linearGradient>
<linearGradient id="paint14_linear" x1="406.84" y1="286.465" x2="406.84" y2="211.718" gradientUnits="userSpaceOnUse">
<stop offset="1.5e-07" stop-color="#EFF6FF"/>
<stop offset="1" stop-color="#C4D8FB"/>
</linearGradient>
<linearGradient id="paint15_linear" x1="406.84" y1="286.465" x2="406.84" y2="211.718" gradientUnits="userSpaceOnUse">
<stop offset="1.5e-07" stop-color="#EFF6FF"/>
<stop offset="1" stop-color="#C4D8FB"/>
</linearGradient>
<linearGradient id="paint16_linear" x1="463.471" y1="286.465" x2="463.471" y2="211.718" gradientUnits="userSpaceOnUse">
<stop offset="1.5e-07" stop-color="#EFF6FF"/>
<stop offset="1" stop-color="#C4D8FB"/>
</linearGradient>
<linearGradient id="paint17_linear" x1="463.471" y1="286.465" x2="463.471" y2="211.718" gradientUnits="userSpaceOnUse">
<stop offset="1.5e-07" stop-color="#EFF6FF"/>
<stop offset="1" stop-color="#C4D8FB"/>
</linearGradient>
<linearGradient id="paint18_linear" x1="463.471" y1="286.465" x2="463.471" y2="211.718" gradientUnits="userSpaceOnUse">
<stop offset="1.5e-07" stop-color="#EFF6FF"/>
<stop offset="1" stop-color="#C4D8FB"/>
</linearGradient>
<linearGradient id="paint19_linear" x1="463.471" y1="286.465" x2="463.471" y2="211.718" gradientUnits="userSpaceOnUse">
<stop offset="1.5e-07" stop-color="#EFF6FF"/>
<stop offset="1" stop-color="#C4D8FB"/>
</linearGradient>
<linearGradient id="paint20_linear" x1="463.471" y1="286.465" x2="463.471" y2="211.718" gradientUnits="userSpaceOnUse">
<stop offset="1.5e-07" stop-color="#EFF6FF"/>
<stop offset="1" stop-color="#C4D8FB"/>
</linearGradient>
<linearGradient id="paint21_linear" x1="463.471" y1="286.465" x2="463.471" y2="211.718" gradientUnits="userSpaceOnUse">
<stop offset="1.5e-07" stop-color="#EFF6FF"/>
<stop offset="1" stop-color="#C4D8FB"/>
</linearGradient>
<linearGradient id="paint22_linear" x1="463.471" y1="286.465" x2="463.471" y2="211.718" gradientUnits="userSpaceOnUse">
<stop offset="1.5e-07" stop-color="#EFF6FF"/>
<stop offset="1" stop-color="#C4D8FB"/>
</linearGradient>
<linearGradient id="paint23_linear" x1="463.471" y1="286.464" x2="463.471" y2="211.718" gradientUnits="userSpaceOnUse">
<stop offset="1.5e-07" stop-color="#EFF6FF"/>
<stop offset="1" stop-color="#C4D8FB"/>
</linearGradient>
<linearGradient id="paint24_linear" x1="463.471" y1="286.466" x2="463.471" y2="211.719" gradientUnits="userSpaceOnUse">
<stop offset="1.5e-07" stop-color="#EFF6FF"/>
<stop offset="1" stop-color="#C4D8FB"/>
</linearGradient>
<linearGradient id="paint25_linear" x1="463.471" y1="286.465" x2="463.471" y2="211.719" gradientUnits="userSpaceOnUse">
<stop offset="1.5e-07" stop-color="#EFF6FF"/>
<stop offset="1" stop-color="#C4D8FB"/>
</linearGradient>
<linearGradient id="paint26_linear" x1="463.471" y1="286.465" x2="463.471" y2="211.718" gradientUnits="userSpaceOnUse">
<stop offset="1.5e-07" stop-color="#EFF6FF"/>
<stop offset="1" stop-color="#C4D8FB"/>
</linearGradient>
<linearGradient id="paint27_linear" x1="463.471" y1="286.465" x2="463.471" y2="211.719" gradientUnits="userSpaceOnUse">
<stop offset="1.5e-07" stop-color="#EFF6FF"/>
<stop offset="1" stop-color="#C4D8FB"/>
</linearGradient>
<linearGradient id="paint28_linear" x1="463.471" y1="286.466" x2="463.471" y2="211.718" gradientUnits="userSpaceOnUse">
<stop offset="1.5e-07" stop-color="#EFF6FF"/>
<stop offset="1" stop-color="#C4D8FB"/>
</linearGradient>
<linearGradient id="paint29_linear" x1="463.471" y1="286.464" x2="463.471" y2="211.717" gradientUnits="userSpaceOnUse">
<stop offset="1.5e-07" stop-color="#EFF6FF"/>
<stop offset="1" stop-color="#C4D8FB"/>
</linearGradient>
<linearGradient id="paint30_linear" x1="463.471" y1="286.465" x2="463.471" y2="211.719" gradientUnits="userSpaceOnUse">
<stop offset="1.5e-07" stop-color="#EFF6FF"/>
<stop offset="1" stop-color="#C4D8FB"/>
</linearGradient>
<linearGradient id="paint31_linear" x1="345.646" y1="286.465" x2="345.646" y2="211.719" gradientUnits="userSpaceOnUse">
<stop offset="1.5e-07" stop-color="#EFF6FF"/>
<stop offset="1" stop-color="#C4D8FB"/>
</linearGradient>
<linearGradient id="paint32_linear" x1="345.646" y1="286.465" x2="345.646" y2="211.718" gradientUnits="userSpaceOnUse">
<stop offset="1.5e-07" stop-color="#EFF6FF"/>
<stop offset="1" stop-color="#C4D8FB"/>
</linearGradient>
<linearGradient id="paint33_linear" x1="345.646" y1="286.465" x2="345.646" y2="211.717" gradientUnits="userSpaceOnUse">
<stop offset="1.5e-07" stop-color="#EFF6FF"/>
<stop offset="1" stop-color="#C4D8FB"/>
</linearGradient>
<linearGradient id="paint34_linear" x1="345.646" y1="286.465" x2="345.646" y2="211.719" gradientUnits="userSpaceOnUse">
<stop offset="1.5e-07" stop-color="#EFF6FF"/>
<stop offset="1" stop-color="#C4D8FB"/>
</linearGradient>
<linearGradient id="paint35_linear" x1="345.646" y1="286.465" x2="345.646" y2="211.718" gradientUnits="userSpaceOnUse">
<stop offset="1.5e-07" stop-color="#EFF6FF"/>
<stop offset="1" stop-color="#C4D8FB"/>
</linearGradient>
<linearGradient id="paint36_linear" x1="345.646" y1="286.465" x2="345.646" y2="211.718" gradientUnits="userSpaceOnUse">
<stop offset="1.5e-07" stop-color="#EFF6FF"/>
<stop offset="1" stop-color="#C4D8FB"/>
</linearGradient>
<linearGradient id="paint37_linear" x1="345.646" y1="286.465" x2="345.646" y2="211.719" gradientUnits="userSpaceOnUse">
<stop offset="1.5e-07" stop-color="#EFF6FF"/>
<stop offset="1" stop-color="#C4D8FB"/>
</linearGradient>
<linearGradient id="paint38_linear" x1="239.268" y1="286.466" x2="239.268" y2="211.718" gradientUnits="userSpaceOnUse">
<stop offset="1.5e-07" stop-color="#EFF6FF"/>
<stop offset="1" stop-color="#C4D8FB"/>
</linearGradient>
<linearGradient id="paint39_linear" x1="239.268" y1="286.465" x2="239.268" y2="211.719" gradientUnits="userSpaceOnUse">
<stop offset="1.5e-07" stop-color="#EFF6FF"/>
<stop offset="1" stop-color="#C4D8FB"/>
</linearGradient>
<linearGradient id="paint40_linear" x1="239.268" y1="286.465" x2="239.268" y2="211.718" gradientUnits="userSpaceOnUse">
<stop offset="1.5e-07" stop-color="#EFF6FF"/>
<stop offset="1" stop-color="#C4D8FB"/>
</linearGradient>
<linearGradient id="paint41_linear" x1="239.268" y1="286.465" x2="239.268" y2="211.718" gradientUnits="userSpaceOnUse">
<stop offset="1.5e-07" stop-color="#EFF6FF"/>
<stop offset="1" stop-color="#C4D8FB"/>
</linearGradient>
<linearGradient id="paint42_linear" x1="239.268" y1="286.465" x2="239.268" y2="211.719" gradientUnits="userSpaceOnUse">
<stop offset="1.5e-07" stop-color="#EFF6FF"/>
<stop offset="1" stop-color="#C4D8FB"/>
</linearGradient>
<linearGradient id="paint43_linear" x1="291.166" y1="134.586" x2="267.767" y2="116.507" gradientUnits="userSpaceOnUse">
<stop stop-color="#FB6B14"/>
<stop offset="1" stop-color="#FDB522"/>
</linearGradient>
<linearGradient id="paint44_linear" x1="291.637" y1="133.976" x2="268.237" y2="115.897" gradientUnits="userSpaceOnUse">
<stop stop-color="#FB6B14"/>
<stop offset="1" stop-color="#FDB522"/>
</linearGradient>
<linearGradient id="paint45_linear" x1="243.77" y1="143.555" x2="278.366" y2="153.968" gradientUnits="userSpaceOnUse">
<stop offset="2.5e-07" stop-color="#EFF6FF"/>
<stop offset="1" stop-color="#8AA8DA"/>
</linearGradient>
<linearGradient id="paint46_linear" x1="274.913" y1="151.428" x2="294.813" y2="153.888" gradientUnits="userSpaceOnUse">
<stop offset="2.5e-07" stop-color="#EFF6FF"/>
<stop offset="1" stop-color="#8AA8DA"/>
</linearGradient>
<linearGradient id="paint47_linear" x1="302.792" y1="119.537" x2="279.393" y2="101.458" gradientUnits="userSpaceOnUse">
<stop stop-color="#FB6B14"/>
<stop offset="1" stop-color="#FDB522"/>
</linearGradient>
<linearGradient id="paint48_linear" x1="175.923" y1="306.37" x2="175.923" y2="243.625" gradientUnits="userSpaceOnUse">
<stop stop-color="#FB6B14"/>
<stop offset="1" stop-color="#FDB522"/>
</linearGradient>
<linearGradient id="paint49_linear" x1="304.604" y1="225.884" x2="304.604" y2="165.841" gradientUnits="userSpaceOnUse">
<stop stop-color="#FB6B14"/>
<stop offset="1" stop-color="#FDB522"/>
</linearGradient>
<linearGradient id="paint50_linear" x1="451.41" y1="108.182" x2="451.41" y2="7.75617" gradientUnits="userSpaceOnUse">
<stop stop-color="#FB6B14"/>
<stop offset="1" stop-color="#FDB522"/>
</linearGradient>
<linearGradient id="paint51_linear" x1="395.938" y1="168.764" x2="395.938" y2="120.714" gradientUnits="userSpaceOnUse">
<stop stop-color="#FB6B14"/>
<stop offset="1" stop-color="#FDB522"/>
</linearGradient>
<linearGradient id="paint52_linear" x1="458.883" y1="108.182" x2="458.883" y2="7.75644" gradientUnits="userSpaceOnUse">
<stop stop-color="#FB6B14"/>
<stop offset="1" stop-color="#FDB522"/>
</linearGradient>
<linearGradient id="paint53_linear" x1="46.9454" y1="182.425" x2="56.7596" y2="182.425" gradientUnits="userSpaceOnUse">
<stop stop-color="#FB6B14"/>
<stop offset="1" stop-color="#FDB522"/>
</linearGradient>
<linearGradient id="paint54_linear" x1="281.004" y1="266.118" x2="299.568" y2="296.064" gradientUnits="userSpaceOnUse">
<stop offset="2.5e-07" stop-color="#EFF6FF"/>
<stop offset="1" stop-color="#8AA8DA"/>
</linearGradient>
<linearGradient id="paint55_linear" x1="263.778" y1="297.224" x2="270.034" y2="301.961" gradientUnits="userSpaceOnUse">
<stop offset="2.5e-07" stop-color="#EFF6FF"/>
<stop offset="1" stop-color="#8AA8DA"/>
</linearGradient>
<linearGradient id="paint56_linear" x1="318.153" y1="292.359" x2="359.262" y2="292.359" gradientUnits="userSpaceOnUse">
<stop offset="1.5e-07" stop-color="#EFF6FF"/>
<stop offset="1" stop-color="#C4D8FB"/>
</linearGradient>
<linearGradient id="paint57_linear" x1="232.543" y1="282.255" x2="300.938" y2="282.255" gradientUnits="userSpaceOnUse">
<stop stop-color="#FB6B14"/>
<stop offset="1" stop-color="#FDB522"/>
</linearGradient>
<linearGradient id="paint58_linear" x1="508.791" y1="344.167" x2="519.643" y2="344.167" gradientUnits="userSpaceOnUse">
<stop stop-color="#FB6B14"/>
<stop offset="1" stop-color="#FDB522"/>
</linearGradient>
<linearGradient id="paint59_linear" x1="525.686" y1="349.363" x2="535.551" y2="349.363" gradientUnits="userSpaceOnUse">
<stop stop-color="#FB6B14"/>
<stop offset="1" stop-color="#FDB522"/>
</linearGradient>
<linearGradient id="paint60_linear" x1="459.883" y1="172.588" x2="510.989" y2="172.588" gradientUnits="userSpaceOnUse">
<stop offset="1.5e-07" stop-color="#EFF6FF"/>
<stop offset="1" stop-color="#C4D8FB"/>
</linearGradient>
<linearGradient id="paint61_linear" x1="388.017" y1="309.03" x2="396.531" y2="330.373" gradientUnits="userSpaceOnUse">
<stop offset="2.5e-07" stop-color="#EFF6FF"/>
<stop offset="1" stop-color="#8AA8DA"/>
</linearGradient>
<linearGradient id="paint62_linear" x1="373.192" y1="344.552" x2="384.521" y2="344.552" gradientUnits="userSpaceOnUse">
<stop stop-color="#FB6B14"/>
<stop offset="1" stop-color="#FDB522"/>
</linearGradient>
<linearGradient id="paint63_linear" x1="376.134" y1="331.467" x2="384.734" y2="331.467" gradientUnits="userSpaceOnUse">
<stop offset="1.5e-07" stop-color="#EFF6FF"/>
<stop offset="1" stop-color="#C4D8FB"/>
</linearGradient>
<linearGradient id="paint64_linear" x1="401.941" y1="326.793" x2="420.536" y2="326.793" gradientUnits="userSpaceOnUse">
<stop offset="1.5e-07" stop-color="#EFF6FF"/>
<stop offset="1" stop-color="#C4D8FB"/>
</linearGradient>
<linearGradient id="paint65_linear" x1="363.213" y1="322.224" x2="394.153" y2="322.224" gradientUnits="userSpaceOnUse">
<stop stop-color="#FB6B14"/>
<stop offset="1" stop-color="#FDB522"/>
</linearGradient>
<clipPath id="clip0">
<rect width="508.594" height="355.596" fill="white" transform="translate(40.5663 1.40369)"/>
</clipPath>
</defs>
</svg>
