<svg width="818" height="397" viewBox="0 0 818 397" fill="none" xmlns="http://www.w3.org/2000/svg">
<mask id="mask0" mask-type="alpha" maskUnits="userSpaceOnUse" x="0" y="0" width="818" height="397">
<rect width="818" height="397" fill="#C4C4C4"/>
</mask>
<g mask="url(#mask0)">
<g filter="url(#filter0_d)">
<path d="M50.5576 290.523C68.3247 254.527 119.325 201.211 181.192 275.914C258.525 369.292 294.326 183.509 357.09 251.542C419.855 319.575 464.077 124.16 580.09 249.165C696.103 374.169 712.709 146.387 808.217 253.463" stroke="#79FFD6" stroke-width="4"/>
</g>
<g filter="url(#filter1_d)">
<path d="M757.72 230.125C738.762 263.94 686.465 312.075 628.937 234.093C557.028 136.615 514.025 315.561 455.334 244.034C396.642 172.507 344.969 360.212 236.453 228.732C127.937 97.2526 101.984 318.81 12.8251 206.493" stroke="url(#paint0_linear)" stroke-width="4"/>
</g>
<g filter="url(#filter2_d)">
<rect x="145.034" y="24.4867" width="569.373" height="341.624" rx="44" fill="white"/>
</g>
<rect x="152.719" y="32.1714" width="554.004" height="326.953" rx="44" fill="#F8F8F8"/>
<g clip-path="url(#clip0)">
<path d="M383.97 173.815L422.314 317.497H426.125L387.781 173.815H383.97Z" fill="#0D5BD9"/>
<path d="M428.552 173.815L466.896 317.497H470.706L432.363 173.815H428.552Z" fill="#0D5BD9"/>
<path d="M391.827 194.534L392.323 197.65H436.435L435.939 194.534H391.827Z" fill="#0D5BD9"/>
<path d="M398.718 220.446L399.188 223.535H443.3L442.83 220.446H398.718Z" fill="#0D5BD9"/>
<path d="M405.609 246.331L406.078 249.421H450.191L449.721 246.331H405.609Z" fill="#0D5BD9"/>
<path d="M412.473 272.243L412.969 275.333H457.081L456.585 272.243H412.473Z" fill="#0D5BD9"/>
<path d="M419.364 298.129L419.86 301.244H463.972L463.476 298.129H419.364Z" fill="#0D5BD9"/>
<path d="M338.109 317.497H341.894L380.238 173.815H376.453L338.109 317.497Z" fill="#7BC3F4"/>
<path d="M381.229 317.497H385.04L423.384 173.815H419.599L381.229 317.497Z" fill="#7BC3F4"/>
<path d="M344.27 302.984H386.92L387.416 299.894H344.765L344.27 302.984Z" fill="#7BC3F4"/>
<path d="M351.16 277.098H393.811L394.307 274.008H351.63L351.16 277.098Z" fill="#7BC3F4"/>
<path d="M358.025 251.186H400.702L401.198 248.097H358.521L358.025 251.186Z" fill="#7BC3F4"/>
<path d="M364.916 225.301H407.592L408.088 222.211H365.412L364.916 225.301Z" fill="#7BC3F4"/>
<path d="M371.807 199.389H414.483L414.953 196.3H372.303L371.807 199.389Z" fill="#7BC3F4"/>
<path d="M438.967 166.078H398.326V173.815H438.967V166.078Z" fill="#0D5BD9"/>
<path d="M427.247 166.078H371.572V173.815H427.247V166.078Z" fill="#7BC3F4"/>
<path d="M340.955 216.993C340.955 216.993 337.17 202.167 330.801 201.57C324.458 200.973 320.465 202.012 320.465 202.012C320.465 202.012 325.346 193.522 319.134 185.525C312.921 177.528 295.381 166.779 280.738 155.044C280.712 155.044 280.712 155.044 280.712 155.044C280.712 155.044 280.712 155.07 280.738 155.096C281.208 156.186 290.03 176.853 289.586 200.817C289.116 227.04 328.269 210.969 318.638 275.956C314.54 303.503 300.053 311.24 298.383 326.507C297.991 330.038 298.304 334.01 299.583 338.71C299.583 338.71 339.963 296.778 342.208 232.778L333.49 234.959L340.955 216.993Z" fill="#0D5BD9"/>
<path d="M337.039 281.226C330.253 288.496 304.021 333.231 327.434 333.231C335.343 333.231 350.012 313.992 360.844 300.517C370.215 288.834 384.362 290.599 384.362 290.599C384.362 290.599 351.448 265.804 337.039 281.226Z" fill="#333242"/>
<path d="M291.544 203.128C291.753 205.802 285.723 213.669 285.723 213.669C285.723 213.669 283.426 200.584 281.677 197.027C279.955 193.548 250.877 184.123 249.964 183.837C255.262 193.106 254.897 199.883 254.897 199.883C254.897 199.883 247.406 183.032 231.666 181.085C215.927 179.164 196.925 166.883 196.925 166.883C196.925 166.883 196.951 166.909 197.003 166.987C219.894 206.348 224.932 207.438 241.089 221.095C257.272 234.778 276.64 240.749 285.723 250.511C315.009 282.005 303.655 315.161 301.254 319.756C301.254 319.782 305.691 327.311 305.691 327.311C337.77 254.38 291.335 200.48 291.544 203.128Z" fill="url(#paint1_linear)"/>
<path d="M218.015 298.336C207.574 301.608 184.683 311.941 174.582 332.141C174.582 332.141 198.23 303.399 231.98 303.399C261.057 303.399 301.619 322.638 305.404 338.372L317.176 328.168C317.176 328.168 274.369 280.707 218.015 298.336Z" fill="#42445D"/>
<path d="M299.427 198.715C294.52 178.827 281.469 156.186 280.712 155.07C281.182 156.16 290.004 176.827 289.56 200.792C289.09 227.015 328.243 210.943 318.611 275.93C314.514 303.477 305.143 310.799 303.472 326.04C311.512 313.499 325.789 281.045 326.807 253.524C328.113 218.758 305.143 221.874 299.427 198.715Z" fill="#0A429F"/>
<path d="M206.687 340.293C206.635 340.06 206.609 339.852 206.556 339.618C206.609 340.06 206.687 340.293 206.687 340.293Z" fill="#0D5BD9"/>
<path d="M225.559 269.984C225.559 269.984 243.543 268.582 254.74 283.901C267.635 301.556 298.565 337.022 308.588 337.463C338.188 338.813 294.128 270.451 285.958 260.871C268.6 240.49 225.559 269.984 225.559 269.984Z" fill="#0A429F"/>
<path d="M310.598 347.278H343.774C338.893 343.201 336.543 327.286 343.774 318.64C343.774 318.64 310.363 329.467 310.598 347.278Z" fill="#333242"/>
<path d="M393.21 318.925C379.872 310.487 365.725 315.213 360.818 314.745C310.572 309.994 306.422 340.034 303.551 347.277H310.807C312.739 332.4 343.982 309.163 357.347 334.971C359.852 339.8 362.854 344.006 366.091 347.667H407.801C408.297 335.646 403.521 325.442 393.21 318.925Z" fill="#0D5BD9"/>
<path d="M393.21 318.925C379.872 310.487 365.543 313.421 360.818 314.745C372.851 315.758 386.868 323.028 391.723 330.142C396.134 336.606 398.979 342.344 400.676 347.693H407.827C408.297 335.646 403.521 325.442 393.21 318.925Z" fill="url(#paint2_linear)"/>
<path d="M384.336 271.127C370.476 264.506 363.089 272.035 363.089 272.035C346.827 266.349 334.925 283.537 334.925 283.537C334.925 283.537 354.24 277.747 362.906 291.144C371.598 304.568 389.321 308.981 389.321 308.981C398.692 296 398.196 277.747 384.336 271.127Z" fill="#0A429F"/>
<path d="M384.336 271.127C370.476 264.506 363.089 272.035 363.089 272.035C363.089 272.035 379.533 272.061 389.321 308.981C398.692 296 398.196 277.747 384.336 271.127Z" fill="url(#paint3_linear)"/>
<path d="M253.514 247.707C253.514 247.707 244.613 237.763 226.707 245.319C208.801 252.874 207.105 275.956 218.198 292.91C218.198 292.91 240.88 288.366 252.652 271.879C264.398 255.419 288.49 263.857 288.49 263.857C288.49 263.857 274.134 239.191 253.514 247.707Z" fill="url(#paint4_linear)"/>
<path d="M226.681 245.345C208.775 252.9 207.079 275.982 218.172 292.936C232.711 246.799 253.488 247.707 253.488 247.707C253.488 247.707 244.587 237.763 226.681 245.345Z" fill="#0D5BD9"/>
<path d="M248.633 207.542C220.991 200.22 198.387 168.96 197.003 167.013C219.894 206.374 224.932 207.464 241.089 221.121C257.272 234.804 276.561 240.853 285.723 250.537C298.67 264.272 303.733 278.448 305.195 290.391C306.84 216.577 274.395 214.37 248.633 207.542Z" fill="#0D5BD9"/>
<path d="M226.002 315.29C216.58 318.25 203.764 326.403 206.53 339.644C206.165 336.684 206.348 324.767 233.024 322.145C257.533 319.73 292.666 333.075 301.384 347.303H305.561L312.504 339.229C312.504 339.203 274.421 300.128 226.002 315.29Z" fill="#0D5BD9"/>
<path d="M562.115 219.511C558.226 224.522 561.28 229.87 561.28 229.87C561.28 229.87 558.774 229.195 554.781 229.585C550.787 229.948 548.412 239.269 548.412 239.269L553.084 250.537L547.603 249.161C549.012 289.327 568.275 316.355 568.275 316.355C569.084 313.421 575.349 310.254 575.114 308.021C574.07 298.44 564.986 293.585 562.402 276.293C556.347 235.505 580.935 245.578 580.647 229.118C580.36 214.085 585.92 201.103 586.207 200.402C586.207 200.376 586.207 200.376 586.207 200.376C577.019 207.75 566.004 214.5 562.115 219.511Z" fill="#0D5BD9"/>
<path d="M521.161 285.51C521.161 285.51 530.036 284.42 535.935 291.741C542.721 300.206 551.935 312.279 556.921 312.279C571.616 312.279 555.146 284.186 550.891 279.617C541.808 269.932 521.161 285.51 521.161 285.51Z" fill="#333242"/>
<path d="M602.442 228.546C602.442 228.546 602.208 224.288 605.549 218.472C604.974 218.654 586.729 224.548 585.633 226.755C584.511 228.988 583.075 237.192 583.075 237.192C583.075 237.192 579.29 232.259 579.421 230.571C579.551 228.91 550.395 262.74 570.546 308.566C570.546 308.566 573.339 303.84 573.313 303.84C571.799 300.959 564.673 280.136 583.049 260.352C588.765 254.224 600.902 250.459 611.082 241.866C621.236 233.298 624.394 232.597 638.776 207.879C638.802 207.827 638.828 207.827 638.828 207.827C638.828 207.827 626.874 215.539 617.007 216.733C607.141 217.979 602.442 228.546 602.442 228.546Z" fill="url(#paint5_linear)"/>
<path d="M625.595 290.365C590.201 279.305 563.316 309.085 563.316 309.085L570.703 315.498C573.078 305.632 598.553 293.533 616.798 293.533C637.993 293.533 652.845 311.578 652.845 311.578C646.528 298.907 632.172 292.417 625.595 290.365Z" fill="#0D5BD9"/>
<path d="M557.26 262.221C557.887 279.513 566.866 299.894 571.903 307.761C570.859 298.181 564.986 293.585 562.402 276.293C556.347 235.505 580.935 245.579 580.647 229.118C580.36 214.085 585.92 201.103 586.207 200.402C585.737 201.103 577.541 215.305 574.461 227.794C570.911 242.333 556.477 240.386 557.26 262.221Z" fill="#0A429F"/>
<path d="M620.583 301.01C590.174 291.482 566.265 316.043 566.265 316.043L570.624 321.106H573.234C578.69 312.175 600.772 303.789 616.172 305.32C632.903 306.956 633.034 314.434 632.799 316.303C634.548 307.969 626.508 302.854 620.583 301.01Z" fill="#0A429F"/>
<path d="M632.799 316.277C632.773 316.407 632.747 316.563 632.72 316.692C632.72 316.692 632.773 316.563 632.799 316.277Z" fill="#0D5BD9"/>
<path d="M582.97 266.817C577.854 272.84 550.187 315.758 568.771 314.927C575.062 314.641 594.481 292.365 602.573 281.278C609.594 271.672 620.896 272.528 620.896 272.528C620.896 272.528 593.829 254.042 582.97 266.817Z" fill="#42445D"/>
<path d="M546.637 303.113C551.178 308.54 549.691 318.536 546.637 321.106H567.466C567.623 309.916 546.637 303.113 546.637 303.113Z" fill="#333242"/>
<path d="M535.935 300.647C532.855 300.933 523.98 297.973 515.602 303.269C505.422 309.708 503.778 321.885 510.199 335.204C510.225 335.256 510.251 335.308 510.277 335.334C510.277 335.334 529.175 330.583 538.128 313.343C546.532 297.142 566.135 311.707 567.362 321.08H571.929C570.102 316.537 567.492 297.687 535.935 300.647Z" fill="url(#paint6_linear)"/>
<path d="M515.602 303.269C505.422 309.708 503.778 321.885 510.199 335.204C508.789 327.909 509.572 320.457 516.541 310.305C519.595 305.84 528.392 301.27 535.961 300.647C532.959 299.816 523.98 297.973 515.602 303.269Z" fill="#7BC3F4"/>
<path d="M534.499 273.853C534.499 273.853 529.853 269.127 521.161 273.281C512.47 277.436 512.156 288.911 518.029 297.064C518.029 297.064 529.175 294.286 534.63 285.874C540.085 277.462 552.197 281.096 552.197 281.096C552.197 281.096 544.705 270.27 534.499 273.853Z" fill="#0A429F"/>
<path d="M521.161 273.281C512.47 277.436 512.156 288.911 518.029 297.064C524.163 273.879 534.499 273.853 534.499 273.853C534.499 273.853 529.853 269.127 521.161 273.281Z" fill="#0D5BD9"/>
<path d="M620.165 257.08C608.916 252.329 603.33 258.586 603.33 258.586C590.383 253.238 581.378 268.738 581.378 268.738C581.378 268.738 596.491 263.441 603.878 273.775C611.265 284.134 625.516 286.99 625.516 286.99C632.459 276.319 631.389 261.831 620.165 257.08Z" fill="url(#paint7_linear)"/>
<path d="M620.166 257.08C608.916 252.329 603.33 258.586 603.33 258.586C603.33 258.586 616.381 258.015 625.516 286.99C632.46 276.319 631.389 261.831 620.166 257.08Z" fill="#0D5BD9"/>
<path d="M606.384 233.35C590.201 237.634 569.841 239.01 570.859 285.38C571.773 277.877 574.957 268.972 583.101 260.352C588.843 254.25 600.955 250.46 611.134 241.866C621.288 233.298 624.446 232.597 638.828 207.879C637.941 209.126 623.741 228.754 606.384 233.35Z" fill="#0D5BD9"/>
<path d="M538.206 161.145H531.889V166.649H538.206V161.145Z" fill="url(#paint8_linear)"/>
<path d="M538.206 254.146H531.889V265.7H538.206V254.146Z" fill="url(#paint9_linear)"/>
<path d="M538.206 273.957H531.889V285.51H538.206V273.957Z" fill="url(#paint10_linear)"/>
<path d="M538.206 293.793H531.889V305.346H538.206V293.793Z" fill="url(#paint11_linear)"/>
<path d="M538.206 174.906H531.889V186.459H538.206V174.906Z" fill="url(#paint12_linear)"/>
<path d="M538.206 234.336H531.889V245.89H538.206V234.336Z" fill="url(#paint13_linear)"/>
<path d="M538.206 194.716H531.889V206.27H538.206V194.716Z" fill="url(#paint14_linear)"/>
<path d="M538.206 214.526H531.889V226.08H538.206V214.526Z" fill="url(#paint15_linear)"/>
<path d="M538.206 313.603H531.889V319.107H538.206V313.603Z" fill="url(#paint16_linear)"/>
<path d="M594.847 47.5027H588.53V53.007H594.847V47.5027Z" fill="url(#paint17_linear)"/>
<path d="M594.847 235.92H588.53V247.24H594.847V235.92Z" fill="url(#paint18_linear)"/>
<path d="M594.847 216.473H588.53V227.793H594.847V216.473Z" fill="url(#paint19_linear)"/>
<path d="M594.847 294.182H588.53V305.502H594.847V294.182Z" fill="url(#paint20_linear)"/>
<path d="M594.847 197.052H588.53V208.373H594.847V197.052Z" fill="url(#paint21_linear)"/>
<path d="M594.847 255.341H588.53V266.661H594.847V255.341Z" fill="url(#paint22_linear)"/>
<path d="M594.847 274.761H588.53V286.081H594.847V274.761Z" fill="url(#paint23_linear)"/>
<path d="M594.847 99.949H588.53V111.269H594.847V99.949Z" fill="url(#paint24_linear)"/>
<path d="M594.847 80.5282H588.53V91.8483H594.847V80.5282Z" fill="url(#paint25_linear)"/>
<path d="M594.847 61.1076H588.53V72.4277H594.847V61.1076Z" fill="url(#paint26_linear)"/>
<path d="M594.847 158.211H588.53V169.531H594.847V158.211Z" fill="url(#paint27_linear)"/>
<path d="M594.847 119.37H588.53V130.69H594.847V119.37Z" fill="url(#paint28_linear)"/>
<path d="M594.847 177.632H588.53V188.952H594.847V177.632Z" fill="url(#paint29_linear)"/>
<path d="M594.847 138.79H588.53V150.11H594.847V138.79Z" fill="url(#paint30_linear)"/>
<path d="M594.847 313.603H588.53V319.107H594.847V313.603Z" fill="url(#paint31_linear)"/>
<path d="M477.023 202.764H470.707V208.269H477.023V202.764Z" fill="url(#paint32_linear)"/>
<path d="M477.023 216.369H470.707V227.715H477.023V216.369Z" fill="url(#paint33_linear)"/>
<path d="M477.023 274.709H470.707V286.055H477.023V274.709Z" fill="url(#paint34_linear)"/>
<path d="M477.023 294.156H470.707V305.502H477.023V294.156Z" fill="url(#paint35_linear)"/>
<path d="M477.023 235.816H470.707V247.162H477.023V235.816Z" fill="url(#paint36_linear)"/>
<path d="M477.023 255.263H470.707V266.609H477.023V255.263Z" fill="url(#paint37_linear)"/>
<path d="M477.023 313.603H470.707V319.107H477.023V313.603Z" fill="url(#paint38_linear)"/>
<path d="M370.632 253.549H364.316V259.053H370.632V253.549Z" fill="url(#paint39_linear)"/>
<path d="M370.632 297.635H364.316V306.956H370.632V297.635Z" fill="url(#paint40_linear)"/>
<path d="M370.632 281.668H364.316V290.989H370.632V281.668Z" fill="url(#paint41_linear)"/>
<path d="M370.632 265.7H364.316V275.021H370.632V265.7Z" fill="url(#paint42_linear)"/>
<path d="M370.632 313.603H364.316V319.107H370.632V313.603Z" fill="url(#paint43_linear)"/>
<path fill-rule="evenodd" clip-rule="evenodd" d="M401.485 120.876C395.821 122.407 392.819 130.949 390.209 135.96C390.209 135.96 391.958 139.569 398.483 140.037C398.483 140.037 405.191 129.392 405.217 126.717C405.243 124.017 402.633 120.564 401.485 120.876Z" fill="url(#paint44_linear)"/>
<path fill-rule="evenodd" clip-rule="evenodd" d="M401.485 120.876C401.145 120.979 400.832 121.083 400.519 121.213C400.702 121.499 400.832 121.862 400.806 122.304C400.702 128.016 396.943 133.754 392.479 138.245C393.758 139.076 395.664 139.855 398.457 140.037C398.457 140.037 405.165 129.392 405.191 126.717C405.243 124.017 402.633 120.564 401.485 120.876Z" fill="#42445D"/>
<path fill-rule="evenodd" clip-rule="evenodd" d="M399.109 121.914C397.36 123.109 398.953 143.049 397.308 146.138C394.672 151.071 391.461 157.043 391.461 157.043C398.326 161.067 424.715 161.067 424.715 161.067C424.715 161.067 426.151 156.342 427.273 148.553C428.578 139.492 429.022 119.759 428.5 119.629C417.433 116.747 402.189 119.863 399.109 121.914Z" fill="url(#paint45_linear)"/>
<path fill-rule="evenodd" clip-rule="evenodd" d="M417.642 107.816L408.897 113.216C409.08 113.606 409.55 116.955 408.897 118.565C408.349 119.941 407.801 122.044 410.907 122.693C413.779 123.316 419.129 120.668 418.425 118.305C417.146 114.203 417.642 107.816 417.642 107.816Z" fill="#FFCAB8"/>
<path fill-rule="evenodd" clip-rule="evenodd" d="M417.643 107.816L408.899 113.216C409.081 113.606 409.551 116.955 408.899 118.565C408.82 118.773 408.716 119.032 408.664 119.266C408.69 119.266 410.178 119.084 411.718 118.02C413.284 116.929 415.033 117.526 416.233 119.032C416.677 119.603 416.886 120.33 416.86 121.083C417.982 120.278 418.713 119.266 418.426 118.305C417.147 114.203 417.643 107.816 417.643 107.816Z" fill="#FFC3AB"/>
<path fill-rule="evenodd" clip-rule="evenodd" d="M427.117 119.292C423.697 118.799 417.772 124.173 417.485 132.715C417.407 134.974 416.754 137.882 414.849 141.439C413.778 143.438 409.393 145.1 407.514 145.749C405.635 146.398 405.374 147.229 406.47 147.8C407.566 148.371 416.206 149.773 415.136 151.097C414.013 152.499 403.494 154.81 405.4 159.328C406.339 161.508 422.288 159.951 425.237 159.302C426.203 157.536 426.307 153.252 426.96 150.552C428.265 144.996 427.847 133.078 428.657 126.717C429.048 122.459 430.849 119.837 427.117 119.292Z" fill="#FD4B1B"/>
<path fill-rule="evenodd" clip-rule="evenodd" d="M391.749 165.585C391.279 165.637 384.414 165.143 381.699 165.481C378.959 165.793 377.862 165.87 376.244 167.662C374.626 169.453 375.174 172.543 376.035 174.724C376.897 176.905 378.045 176.931 380.186 176.334C382.3 175.737 384.623 174.049 386.789 173.841C388.93 173.634 389.478 173.997 390.992 173.582C392.506 173.14 392.793 173.634 392.636 172.543C392.427 171.479 391.749 165.585 391.749 165.585Z" fill="#0A429F"/>
<path fill-rule="evenodd" clip-rule="evenodd" d="M391.749 165.585C391.279 165.637 384.414 165.143 381.7 165.481C378.959 165.793 377.863 165.87 376.244 167.662C375.383 168.649 375.122 169.999 375.226 171.375C376.871 171.79 378.228 171.686 379.925 171.323C381.334 171.037 382.822 170.466 384.258 170.752C385.798 171.037 387.677 172.231 388.251 173.815C389.295 173.815 389.895 173.919 390.966 173.608C392.48 173.166 392.767 173.659 392.61 172.569C392.427 171.479 391.749 165.585 391.749 165.585Z" fill="#333242"/>
<path fill-rule="evenodd" clip-rule="evenodd" d="M379.298 166.286C380.212 165.689 381.464 165.611 382.978 165.403C382.509 165.429 382.065 165.455 381.699 165.481C378.959 165.793 377.862 165.87 376.244 167.662C374.626 169.453 375.174 172.543 376.035 174.724C376.792 176.697 377.836 176.905 379.585 176.489C376.714 174.127 375.644 168.674 379.298 166.286Z" fill="white"/>
<path fill-rule="evenodd" clip-rule="evenodd" d="M428.474 165.792C426.908 165.533 421.687 165.585 417.668 165.014C417.668 165.014 413.413 171.011 413.309 171.141C413.204 171.271 416.493 173.062 417.851 174.127C419.208 175.191 424.585 177.009 426.073 176.723C427.56 176.438 430.327 170.544 430.875 168.415C431.476 166.286 430.04 166.052 428.474 165.792Z" fill="#0A429F"/>
<path fill-rule="evenodd" clip-rule="evenodd" d="M428.474 165.792C426.908 165.533 421.687 165.585 417.668 165.014C417.668 165.014 413.961 170.232 413.387 171.037C415.24 171.063 417.015 170.102 418.894 170.388C419.834 170.544 420.956 171.79 423.723 171.453C425.394 171.245 425.081 174.049 423.619 175.451C423.306 175.736 422.992 175.97 422.679 176.152C424.115 176.567 425.446 176.827 426.072 176.697C427.56 176.412 430.327 170.518 430.875 168.389C431.476 166.286 430.04 166.052 428.474 165.792Z" fill="#333242"/>
<path fill-rule="evenodd" clip-rule="evenodd" d="M378.332 152.317C374.495 153.122 373.007 156.03 373.034 159.276C373.034 161.197 374.756 163.3 376.897 163.949C379.037 164.598 412.447 172.18 413.387 172.413C414.327 172.647 418.32 162.988 418.32 162.988C417.119 162.547 385.562 150.786 378.332 152.317Z" fill="#D0DDFD"/>
<path fill-rule="evenodd" clip-rule="evenodd" d="M388.434 161.405C381.438 161.638 379.168 160.678 373.164 157.536C373.06 158.107 373.008 158.678 373.008 159.276C373.008 161.197 374.73 163.3 376.871 163.949C379.011 164.598 412.421 172.179 413.361 172.413C414.301 172.647 418.294 162.988 418.294 162.988C417.85 162.833 408.375 159.509 402.45 157.51C397.752 159.821 393.654 161.223 388.434 161.405Z" fill="url(#paint46_linear)"/>
<path fill-rule="evenodd" clip-rule="evenodd" d="M399.475 97.9758C399.475 97.9758 397.961 99.248 397.778 101.065C397.595 102.883 399.657 105.765 399.657 105.765C399.657 105.765 401.589 100.832 401.328 99.4038C401.25 99.1441 399.475 97.9758 399.475 97.9758Z" fill="#333242"/>
<path fill-rule="evenodd" clip-rule="evenodd" d="M408.532 119.681L408.767 118.876C408.767 118.876 407.123 118.799 406.836 120.902C406.366 124.433 408.141 127.029 408.141 127.029C408.428 125.16 411.195 122.693 411.195 122.693C408.715 121.629 408.532 119.681 408.532 119.681Z" fill="white"/>
<path fill-rule="evenodd" clip-rule="evenodd" d="M420.695 104.83C419.782 103.194 418.216 104.57 418.216 104.57C418.216 104.57 417.876 100.416 414.901 97.7161C411.925 95.0159 408.924 96.1583 403.599 97.7161C398.248 99.2739 399.292 100.962 399.292 100.962C399.292 100.962 399.475 105.272 400.284 109.737C400.623 111.555 402.685 114.047 404.878 116.747C407.018 119.37 410.02 117.89 413.883 115.631C417.772 113.372 417.537 111.113 417.511 110.698C417.511 110.698 418.164 111.009 419.39 110.127C420.617 109.244 421.635 106.881 420.748 105.012C420.748 104.934 420.722 104.882 420.695 104.83Z" fill="#FFCAB8"/>
<path fill-rule="evenodd" clip-rule="evenodd" d="M420.695 104.83C419.782 103.195 418.216 104.571 418.216 104.571C418.216 104.571 417.876 100.416 414.901 97.7162C414.222 97.0931 410.777 98.2355 411.221 100.027C411.716 102.026 413.335 103.376 413.648 105.246C414.013 107.427 414.588 111.451 413.256 113.268C411.351 115.917 408.062 118.02 404.773 116.618C404.8 116.67 404.852 116.696 404.878 116.747C407.018 119.37 410.02 117.89 413.883 115.631C417.772 113.372 417.537 111.113 417.511 110.698C417.511 110.698 418.164 111.01 419.39 110.127C420.617 109.244 421.635 106.881 420.748 105.012C420.748 104.934 420.722 104.882 420.695 104.83Z" fill="#FFC3AB"/>
<path fill-rule="evenodd" clip-rule="evenodd" d="M398.9 97.093C398.222 98.4951 397.543 103.117 401.38 104.155C405.609 105.298 413.048 100.001 414.692 103.065C416.049 105.583 414.431 107.245 415.632 108.231C416.258 108.751 417.067 108.569 417.381 107.868C417.485 107.634 417.328 105.765 418.216 104.545C418.268 104.467 418.947 104.025 419.547 104.025C419.547 104.025 420.382 101.039 419.182 98.2614C415.136 88.7328 401.746 91.1214 398.9 97.093Z" fill="#42445D"/>
<path fill-rule="evenodd" clip-rule="evenodd" d="M410.542 91.9522C413.257 93.8476 409.785 98.3133 412.5 100.494C414.901 102.441 415.997 103.039 415.945 104.493C415.919 105.453 415.554 107.764 415.475 108.05C415.527 108.127 415.58 108.179 415.658 108.231C416.284 108.751 417.094 108.569 417.407 107.868C417.511 107.634 417.355 105.765 418.242 104.545C418.294 104.467 418.973 104.025 419.573 104.025C419.573 104.025 420.408 101.039 419.208 98.2614C417.485 94.237 414.092 92.3417 410.542 91.9522Z" fill="#333242"/>
<path fill-rule="evenodd" clip-rule="evenodd" d="M429.205 153.096C425.368 150.864 418.451 153.59 410.777 156.004C404.747 157.9 388.068 163.586 388.068 163.586C388.068 163.586 386.398 170.648 390.966 174.958C390.966 174.958 414.014 169.453 428.839 163.144C429.936 162.677 431.554 162.028 432.024 159.613C432.52 157.225 431.319 154.343 429.205 153.096Z" fill="#D0DDFD"/>
<path fill-rule="evenodd" clip-rule="evenodd" d="M429.727 153.46C430.275 154.81 430.275 156.42 429.466 158.289C428.343 160.807 425.629 162.158 422.94 161.768C421.766 161.612 420.956 160.756 419.886 160.574C418.033 160.236 417.25 161.119 415.84 162.287C413.726 164.053 412.004 165.663 409.211 166.234C407.645 166.545 406.183 166.182 404.643 166.312C402.685 166.468 401.25 167.584 399.37 168.103C395.324 169.272 391.514 168.311 387.807 166.935C387.859 169.349 388.486 172.543 390.992 174.906C390.992 174.906 414.039 169.401 428.865 163.092C429.962 162.625 431.58 161.976 432.05 159.561C432.493 157.432 431.502 154.836 429.727 153.46Z" fill="url(#paint47_linear)"/>
<path fill-rule="evenodd" clip-rule="evenodd" d="M418.425 106.076C418.242 106.596 418.164 106.803 418.346 107.245C418.529 107.712 418.634 107.478 418.686 107.92C418.712 108.361 418.242 108.153 418.111 108.621C417.981 109.088 418.085 109.426 418.581 109.53C419.077 109.659 419.651 109.192 420.069 108.231C420.487 107.245 420.643 105.973 420.2 105.401C419.678 104.752 418.686 105.375 418.425 106.076Z" fill="#FFC3AB"/>
<path fill-rule="evenodd" clip-rule="evenodd" d="M428.735 165.844C429.988 166.831 426.542 175.243 423.75 176.438C424.767 176.671 425.629 176.801 426.099 176.723C427.586 176.438 430.353 170.544 430.901 168.415C431.45 166.416 430.197 166.078 428.735 165.844Z" fill="white"/>
<path fill-rule="evenodd" clip-rule="evenodd" d="M424.585 124.64C423.906 129.392 431.032 141.724 431.032 141.724C431.032 141.724 413.544 137.648 411.795 137.466C408.976 137.181 405.687 134.766 404.617 134.844C404.33 134.87 402.163 135.727 402.033 135.805C401.928 135.882 398.352 138.79 398.666 139.465C398.77 139.699 399.553 139.414 399.762 139.284C400.388 138.894 401.772 137.518 402.372 137.233C403.338 136.791 405.035 136.583 405.035 136.583C405.035 136.583 403.364 137.362 402.868 137.7C401.981 138.297 400.414 139.829 399.788 140.686C399.553 140.997 399.501 141.283 399.658 141.335C399.892 141.439 400.284 141.309 400.702 141.101C401.432 140.79 402.346 139.699 402.555 139.517C402.764 139.336 404.46 138.479 404.46 138.479C404.46 138.479 402.659 140.374 402.32 140.841C401.928 141.413 400.832 143.048 401.224 143.23C401.432 143.334 401.772 143.048 402.163 142.737C403.051 142.062 403.573 141.049 403.964 140.816C404.356 140.582 405.635 139.829 405.974 139.751C405.974 139.751 405.165 140.452 404.93 140.919C404.747 141.283 404.278 142.425 404.278 142.425C404.278 142.425 404.043 144.113 404.565 143.983C405.113 143.827 405.504 142.192 405.504 142.192C405.504 142.192 405.844 141.984 406.131 141.517C406.131 141.517 408.193 142.218 410.046 142.269C411.899 142.321 412.787 141.568 412.787 141.568C412.943 142.14 432.911 148.111 434.895 148.527C436.931 148.942 438.497 147.592 438.654 146.891C439.437 143.36 434.999 132.585 432.076 125.108C429.466 118.253 424.794 123.342 424.585 124.64Z" fill="#FFCAB8"/>
<path fill-rule="evenodd" clip-rule="evenodd" d="M424.585 124.64C424.01 128.717 429.179 138.401 430.64 141.049C431.423 141.127 432.389 141.023 433.59 140.478C436.122 139.284 439.437 143.178 435.678 145.515C433.172 147.099 429.205 145.749 413.1 140.478C411.586 139.985 409.942 141.101 408.871 141.075C408.323 141.075 407.07 140.374 406.366 140.816C405.191 141.569 405.008 142.399 404.591 143.698C404.565 143.801 404.486 143.879 404.408 143.931C404.46 144.009 404.512 144.061 404.617 144.035C405.165 143.879 405.556 142.244 405.556 142.244C405.556 142.244 405.896 142.036 406.183 141.569C406.183 141.569 408.245 142.27 410.098 142.322C411.951 142.373 412.839 141.621 412.839 141.621C412.995 142.192 432.963 148.163 434.947 148.579C436.983 148.994 438.549 147.644 438.706 146.943C439.489 143.412 435.052 132.637 432.128 125.16C429.466 118.253 424.794 123.342 424.585 124.64Z" fill="#FFC3AB"/>
<path fill-rule="evenodd" clip-rule="evenodd" d="M426.412 119.396C421.165 120.434 420.669 126.951 429.727 140.322C429.727 140.322 435.312 139.933 438.288 137.155C438.314 137.129 432.285 118.227 426.412 119.396Z" fill="url(#paint48_linear)"/>
<path fill-rule="evenodd" clip-rule="evenodd" d="M427.534 119.422C427.743 119.681 427.9 119.993 427.978 120.356C428.892 124.744 428.082 129.625 425.629 133.572C426.673 135.597 428.03 137.83 429.727 140.322C429.727 140.322 435.313 139.933 438.288 137.155C438.314 137.129 433.016 120.59 427.534 119.422Z" fill="#FD4B1B"/>
<path fill-rule="evenodd" clip-rule="evenodd" d="M417.981 116.28L418.242 117.812C418.242 117.812 414.692 123.082 411.142 122.693C411.142 122.693 413.987 125.108 414.77 127.133C414.77 127.133 419.103 123.212 419.625 119.603C419.991 117.059 417.981 116.28 417.981 116.28Z" fill="white"/>
<path d="M399.892 151.201C399.892 151.98 400.519 152.603 401.276 152.603H434.007C434.764 152.603 435.391 151.98 435.391 151.227H399.892V151.201Z" fill="#42445D"/>
<path d="M396.342 122.486C396.029 121.369 394.985 120.59 393.837 120.642H373.738V152.266L401.485 152.603C403.181 152.603 403.286 151.305 403.181 150.838L396.342 122.486Z" fill="#42445D"/>
<path d="M394.907 121.213C394.803 120.876 394.489 120.616 394.124 120.616H358.678C358.13 120.616 357.738 121.135 357.895 121.655L364.551 149.669C365.047 151.409 366.613 152.603 368.44 152.603H401.459C402.007 152.603 402.398 152.084 402.242 151.565L394.907 121.213Z" fill="#D0DDFD"/>
<path d="M320.178 224.107C317.933 224.081 315.662 224.236 313.417 224.626C300.601 226.807 290.082 235.271 285.253 247.266L240.828 357.481H288.072C288.072 357.481 338.658 243.839 339.858 242.047C341.033 240.282 367.474 231.818 367.474 231.818V224.107H320.178Z" fill="url(#paint49_linear)"/>
<path d="M431.815 172.699C429.779 172.673 427.743 172.829 425.707 173.218C415.319 175.139 406.81 182.124 402.947 191.912L387.051 232.129C390.026 235.764 395.638 257.496 420.356 257.496C429.91 257.496 452.122 191.938 452.122 191.938L478.642 172.673L431.815 172.699Z" fill="url(#paint50_linear)"/>
<path d="M546.062 140.374C549.743 137.025 561.593 126.614 591.688 155.044L613.196 47.5287H563.707L546.062 140.374Z" fill="url(#paint51_linear)"/>
<path d="M514.845 128.82C513.983 128.846 513.122 128.898 512.261 129.028C503.673 130.222 496.808 136.09 494.355 144.347L485.271 174.932C488.691 177.035 492.136 179.06 495.817 180.644C496.208 180.799 518.838 202.245 519.126 202.531L526.121 197.805L563.003 128.82H514.845Z" fill="url(#paint52_linear)"/>
<path d="M582.292 152.058C578.507 152.006 575.871 148.397 575.479 144.295C575.427 143.775 575.401 143.256 575.401 142.737C575.062 142.27 574.749 141.828 574.435 141.413C573.809 140.556 573.626 139.517 573.757 138.479H548.333V165.195H591.662V157.536C588.113 157.406 584.98 155.044 582.292 152.058Z" fill="#C3391C"/>
<path d="M494.146 183.993H461.884L454.732 210.709H519.23V203.05C515.654 202.894 494.016 185.031 494.146 183.993Z" fill="#C3391C"/>
<path d="M374.025 229.221L343.956 241.139L334.847 267.855H416.832V260.222C412.291 260.04 373.843 230.26 374.025 229.221Z" fill="#C3391C"/>
<path d="M591.192 151.616C591.166 151.798 591.062 152.317 590.331 152.473C589.626 152.603 589.339 152.162 589.235 152.006L580.961 138.946C576.34 131.65 568.145 127.86 559.531 129.028C550.943 130.222 544.079 136.09 541.625 144.347L527.608 191.6C526.695 194.69 524.241 196.975 521.083 197.702C517.925 198.429 514.714 197.442 512.522 195.053L500.958 182.513C493.807 174.776 483.34 171.297 472.951 173.218C462.563 175.139 454.054 182.124 450.191 191.912L428.317 247.266C426.699 251.342 423.175 254.224 418.842 254.951C414.509 255.704 410.203 254.198 407.305 250.901L394.802 236.699C386.241 226.988 373.477 222.471 360.661 224.652C347.845 226.833 337.326 235.297 332.498 247.292L288.072 357.507H301.958L344.452 252.069C347.61 244.254 354.475 238.724 362.828 237.296C371.18 235.868 379.507 238.802 385.093 245.163L397.595 259.365C403.494 266.038 412.239 269.127 421.061 267.595C429.857 266.064 437.061 260.222 440.324 251.939L462.197 196.585C464.416 190.951 469.323 186.927 475.327 185.81C481.33 184.694 487.359 186.693 491.484 191.159L503.047 203.699C508.424 209.541 516.254 211.93 524.006 210.164C531.759 208.373 537.736 202.791 539.981 195.183L553.997 147.93C555.015 144.502 557.756 142.166 561.306 141.672C564.856 141.179 568.118 142.685 570.05 145.723L578.324 158.782C581.404 163.638 587.068 166.104 592.758 165.04C598.449 163.975 602.808 159.613 603.878 153.979L624.028 48.022H610.899L591.192 151.616Z" fill="#FD4B1B"/>
<path d="M591.688 13.3088L559.218 48.2297H647.468L607.924 13.3088H591.688Z" fill="#C3391C"/>
<path d="M542.957 48.2297H631.233L591.689 13.3088L542.957 48.2297Z" fill="url(#paint53_linear)"/>
<path fill-rule="evenodd" clip-rule="evenodd" d="M194.993 210.45C191.939 210.787 189.747 213.565 190.165 216.603C190.582 219.485 193.192 221.536 196.116 221.251C202.615 220.601 212.769 219.018 219.085 216.006L217.937 209.307C214.857 209.853 205.121 209.359 194.993 210.45Z" fill="#333242"/>
<path fill-rule="evenodd" clip-rule="evenodd" d="M238.479 189.809C238.845 189.16 238.636 188.329 237.931 187.991C238.349 187.29 237.722 186.797 237.096 186.719C237.774 185.603 238.244 184.642 237.252 184.382C236.756 184.253 235.086 187.238 234.355 188.251C233.102 189.965 232.189 188.588 231.327 190.172C230.388 191.86 230.727 193.21 230.779 194.768C230.831 195.806 230.231 196.404 229.787 197.208C227.856 200.558 221.382 205.621 216.032 210.45C214.204 212.111 216.188 216.343 218.067 216.266C222.792 216.032 230.831 203.024 234.016 198.818C236.443 195.599 237.513 193.47 238.427 192.301C239.314 191.185 239.393 190.354 238.479 189.809Z" fill="#FFCAB8"/>
<path fill-rule="evenodd" clip-rule="evenodd" d="M238.479 189.809C238.844 189.16 238.636 188.329 237.931 187.991C238.349 187.29 237.722 186.797 237.096 186.719C237.774 185.603 238.244 184.642 237.252 184.382C236.756 184.253 235.086 187.238 234.355 188.251C233.833 188.978 232.972 191.574 235.112 192.95C236.443 193.807 238.087 192.717 238.427 192.275C239.314 191.185 239.393 190.354 238.479 189.809Z" fill="#FFC3AB"/>
<path fill-rule="evenodd" clip-rule="evenodd" d="M229.187 196.663C227.255 200.012 220.051 205.439 214.7 210.294C212.873 211.956 215.875 216.707 217.754 216.603C222.452 216.369 231.327 204.011 234.59 199.675C233.154 199.259 230.596 197.182 229.552 196.118C229.422 196.3 229.291 196.481 229.187 196.663Z" fill="#333242"/>
<path fill-rule="evenodd" clip-rule="evenodd" d="M231.562 201.908C227.725 205.049 221.174 210.709 217.598 213.332C213.421 216.421 209.689 215.642 204.938 216.24C199.901 216.889 196.09 219.719 191.417 219.355C192.67 221.199 194.419 221.406 196.116 221.225C202.171 220.627 211.385 219.199 217.728 216.577C221.591 216.395 228.273 208.009 232.319 202.635C232.737 202.141 232.058 201.492 231.562 201.908Z" fill="#42445D"/>
<path fill-rule="evenodd" clip-rule="evenodd" d="M232.528 184.979C232.006 186.771 231.588 187.524 231.249 188.199L230.727 191.99L232.476 190.795C232.789 190.094 233.024 189.004 232.763 187.913C233.494 186.693 233.363 185.603 232.528 184.979Z" fill="#FFCAB8"/>
<path d="M193.949 202.297C195.411 199.883 191.809 198.169 189.147 197.104C187.554 196.481 185.962 195.91 184.318 195.443C184.004 195.365 183.639 195.287 183.404 195.495C183.117 195.754 183.3 196.222 183.456 196.559C184.683 198.844 184.187 206.841 183.247 210.008C183.195 210.216 194.419 211.878 194.419 211.878C194.419 211.878 192.174 205.257 193.949 202.297Z" fill="#FFCAB8"/>
<path d="M190.504 198.091C189.146 197.572 185.727 195.858 184.344 195.443C184.031 195.365 183.665 195.287 183.43 195.495C183.143 195.754 183.326 196.222 183.482 196.559C184.709 198.844 184.213 206.841 183.274 210.008C183.221 210.164 188.624 210.995 191.939 211.514C190.425 209.177 189.46 201.518 190.504 198.091Z" fill="#FFC3AB"/>
<path d="M198.491 191.289C196.559 190.146 194.628 187.057 193.923 185.317C192.096 180.825 185.362 182.669 183.117 187.472C181.942 189.939 182.099 192.847 182.882 195.443C183.874 198.766 186.014 201.908 189.199 203.258C190.217 203.699 195.307 204.608 196.507 203.881C198.178 202.868 198.126 195.703 198.909 193.755C199.639 192.042 198.987 191.574 198.491 191.289Z" fill="#FFCAB8"/>
<path d="M186.301 197.961C183.717 194.82 182.882 190.977 184.292 187.083C184.761 185.784 185.492 184.694 186.406 183.837C185.049 184.668 183.848 185.914 183.117 187.446C181.942 189.913 182.099 192.821 182.882 195.417C183.874 198.74 186.014 201.882 189.199 203.232C190.164 203.647 194.68 204.452 196.22 203.985C195.594 203.959 194.941 203.881 194.262 203.725C191.261 202.998 188.259 200.35 186.301 197.961Z" fill="#FFC3AB"/>
<path d="M188.311 180.851C177.401 178.904 175.025 186.459 175.234 192.171C175.469 198.039 181.499 203.05 183.926 203.829C184.239 203.933 188.781 204.141 191.287 198.662C191.783 197.572 192.096 196.481 191.522 196.17C189.538 195.053 188.781 191.834 189.616 191.029C190.895 189.757 191.496 191.886 192.331 191.263C193.088 190.692 194.08 186.719 192.957 184.59C192.174 182.954 190.347 181.215 188.311 180.851Z" fill="#FFB725"/>
<path d="M182.282 194.404C182.386 193.496 183.013 191.522 183.195 190.614C184.03 186.641 180.481 183.422 177.14 185.421C175.156 186.615 173.616 193.418 177.87 198.792C179.437 200.791 182.752 203.855 184.526 203.829C186.38 203.855 181.89 198.117 182.282 194.404Z" fill="url(#paint54_linear)"/>
<path d="M174.817 183.941C171.476 183.941 168.787 186.641 168.787 189.939C168.787 193.236 171.476 195.936 174.817 195.936C178.132 195.936 179.306 193.262 179.306 189.939C179.306 186.641 178.132 183.941 174.817 183.941Z" fill="#FFB725"/>
<path d="M227.647 351.977C224.697 350.912 220.782 348.757 219.529 347.641C218.72 346.888 218.537 345.746 218.485 344.629C217.597 345.045 216.553 345.2 215.535 345.2C214.491 345.2 213.447 344.993 212.56 344.681C212.481 346.369 212.508 348.056 212.299 349.718C212.194 350.523 212.012 351.406 212.403 352.107C212.951 353.041 214.256 353.145 215.327 353.145C217.78 353.171 220.234 353.327 222.661 353.587C224.775 353.794 226.942 354.106 228.952 353.431C229.369 353.301 229.839 352.989 229.683 352.574C229.16 352.47 228.43 352.262 227.647 351.977Z" fill="#FFCAB8"/>
<path d="M227.647 351.977C227.594 351.977 227.516 351.951 227.464 351.926C226.576 352.107 225.637 352.185 224.697 352.133C220.625 351.926 216.606 349.147 215.561 345.201C214.517 345.201 213.473 344.993 212.586 344.682C212.508 346.369 212.534 348.057 212.325 349.719C212.22 350.523 212.038 351.406 212.429 352.107C212.977 353.042 214.282 353.146 215.353 353.146C217.806 353.172 220.26 353.328 222.687 353.587C224.801 353.795 226.968 354.106 228.978 353.431C229.395 353.302 229.865 352.99 229.709 352.575C229.16 352.471 228.43 352.263 227.647 351.977Z" fill="#FFC3AB"/>
<path d="M230.309 352.288C229.865 352.107 226.028 350.731 223.836 349.952C223.027 349.666 222.374 350.783 222.374 351.432C217.389 351.406 213.056 348.056 212.377 348.55C211.124 349.484 210.132 352.392 212.638 353.535C212.978 353.69 213.761 353.768 216.397 353.794C218.772 353.794 221.121 355.17 222.583 355.17C225.115 355.17 229.63 355.196 230.309 355.196C231.144 355.196 231.693 352.86 230.309 352.288Z" fill="#333242"/>
<path d="M229.265 353.483C226.054 353.976 222.426 353.249 219.242 352.756C216.162 352.262 213.891 351.354 211.385 349.874C210.837 351.12 210.889 352.756 212.612 353.535C212.951 353.69 213.734 353.768 216.371 353.794C218.746 353.794 221.095 355.17 222.557 355.17C225.089 355.17 229.604 355.196 230.283 355.196C231.014 355.196 231.536 353.379 230.674 352.548C230.413 353.015 229.97 353.379 229.265 353.483Z" fill="#FFB725"/>
<path d="M216.945 353.69L211.202 352.029L212.403 355.144L217.258 355.17C217.258 355.144 216.814 354.262 216.945 353.69Z" fill="#FFB725"/>
<path d="M214.622 344.214C214.544 344.24 214.465 344.318 214.361 344.344C214.439 344.318 214.517 344.266 214.622 344.214Z" fill="#D0AECF"/>
<path d="M188.755 347.667C187.372 346.421 187.789 343.954 187.685 342.37C187.58 340.527 182.021 342.085 181.995 342.37C181.629 344.811 181.864 347.303 181.551 349.77C181.447 350.575 181.264 351.458 181.681 352.159C182.23 353.093 183.535 353.197 184.631 353.197C187.084 353.223 189.538 353.353 191.966 353.613C194.08 353.82 196.246 354.132 198.256 353.457C198.648 353.327 199.117 352.989 198.987 352.6C196.272 352.159 190.347 349.121 188.755 347.667Z" fill="#FFCAB8"/>
<path d="M184.422 342.111C184.5 341.929 184.605 341.773 184.683 341.591C183.326 341.799 181.995 342.241 181.995 342.37C181.629 344.811 181.864 347.303 181.551 349.77C181.447 350.575 181.264 351.458 181.681 352.159C182.23 353.093 183.535 353.197 184.631 353.197C186.902 353.223 189.173 353.353 191.443 353.561C186.954 351.484 182.256 347.407 184.422 342.111Z" fill="#FFC3AB"/>
<path d="M199.535 352.288C199.091 352.107 195.254 350.731 193.062 349.978C192.253 349.692 191.6 350.808 191.6 351.458C186.615 351.458 182.282 348.108 181.603 348.627C180.35 349.562 179.358 352.496 181.864 353.613C182.203 353.768 182.986 353.846 185.623 353.846C187.998 353.846 190.347 355.196 191.809 355.196C194.341 355.196 198.856 355.196 199.535 355.196C200.396 355.196 200.944 352.86 199.535 352.288Z" fill="#333242"/>
<path d="M198.23 353.353C196.899 353.716 195.437 353.69 194.106 353.353C193.166 353.093 187.633 352.444 185.858 352.34C183.717 352.236 181.943 351.198 180.898 349.484C180.115 350.756 179.907 352.756 181.89 353.638C182.23 353.794 183.013 353.872 185.649 353.872C188.024 353.872 190.373 355.222 191.835 355.222H199.561C200.292 355.222 200.788 353.405 199.953 352.574C199.457 352.911 198.883 353.171 198.23 353.353Z" fill="#FFB725"/>
<path d="M182.021 294.598C182.726 305.918 180.533 309.033 179.985 315.55C179.411 322.171 181.081 347.174 181.081 347.174C181.081 347.174 185.153 348.264 188.494 347.174L199.692 263.779L179.411 262.013C179.411 262.013 181.316 283.277 182.021 294.598Z" fill="#C3391C"/>
<path d="M182.021 294.597C182.726 305.918 180.533 309.033 179.985 315.55C179.411 322.171 181.081 347.174 181.081 347.174C181.081 347.174 182.778 347.641 184.892 347.667C184.161 338.372 182.465 329.674 186.432 321.885C187.685 319.419 188.181 312.227 188.181 309.267C188.181 303.321 186.51 293.17 189.094 284.757C190.086 281.538 190.373 263.104 190.373 263.104L179.411 262.039C179.411 262.013 181.316 283.277 182.021 294.597Z" fill="#FD4B1B"/>
<path d="M187.424 264.194C187.085 265.207 187.293 266.557 187.763 267.751C188.964 270.841 200.579 300.491 200.423 303.269C199.796 313.836 206.53 323.651 211.907 347.459C213.969 348.16 217.963 348.731 219.947 346.551C218.798 333.699 208.227 271.516 207.079 264.791C206.948 264.713 192.827 266.09 187.424 264.194Z" fill="#C3391C"/>
<path d="M211.438 323.079C209.819 319.289 205.878 311.396 204.99 307.423C203.972 302.802 204.364 289.742 203.45 285.614C202.824 282.836 202.589 279.954 201.206 277.565C200.266 275.956 198.856 274.917 197.891 273.359C196.272 270.763 196.064 268.79 196.612 266.297C193.01 265.648 189.46 264.921 187.424 264.194C187.085 265.207 187.293 266.557 187.763 267.751C188.964 270.841 200.579 300.491 200.423 303.269C199.796 313.836 206.53 323.651 211.907 347.459C213.082 347.875 214.752 348.524 216.214 348.082C214.857 344.214 214.544 338.632 213.865 335.127C213.004 330.713 213.186 327.104 211.438 323.079Z" fill="#FD4B1B"/>
<path d="M207.47 226.703C207.47 223.535 200.553 213.955 196.455 211.41C192.357 208.866 190.895 207.386 185.675 208.321C180.037 209.333 181.159 217.59 181.159 233.817C181.159 235.089 178.549 262.922 178.132 265.285C182.673 268.452 203.294 268.53 208.436 266.791C208.436 252.64 206.165 242.359 206.165 235.686C206.191 233.35 207.47 231.636 207.47 226.703Z" fill="#333242"/>
<path d="M185.701 208.321C179.802 209.956 181.159 217.59 181.159 233.817C181.159 235.089 178.549 262.922 178.132 265.285C180.089 266.635 184.996 267.388 190.347 267.673C190.347 261.26 185.806 258.898 185.806 253.29C185.806 249.81 190.008 246.15 189.747 243.372C189.251 238.179 187.998 225.119 190.347 217.356C191.13 214.864 187.528 207.827 185.701 208.321Z" fill="#42445D"/>
<path d="M180.428 352.107L181.655 355.196H186.51C186.51 355.196 186.04 354.314 186.171 353.742L180.428 352.107Z" fill="#FFB725"/>
<path fill-rule="evenodd" clip-rule="evenodd" d="M189.825 214.734C188.442 217.304 189.355 220.498 191.887 221.978C197.525 225.275 206.661 229.948 213.552 231.247L216.606 225.171C213.787 223.769 206.191 217.668 197.395 212.605C194.706 211.047 191.287 212.034 189.825 214.734Z" fill="#333242"/>
<path fill-rule="evenodd" clip-rule="evenodd" d="M244.848 216.941C242.812 217.59 243.908 215.435 242.29 216.188C240.541 217.018 239.053 218.109 238.087 220.082C237.643 221.017 221.565 224.132 214.335 224.911C211.855 225.171 210.967 229.767 212.534 230.805C216.501 233.401 233.232 226.781 238.296 225.249C242.159 224.081 244.273 222.99 245.735 222.601C247.092 222.237 247.64 221.614 247.249 220.627C247.928 220.316 248.267 219.537 247.875 218.836C248.632 218.524 248.606 217.668 248.163 217.226C249.363 216.733 250.799 216.188 250.172 215.383C249.676 214.734 246.048 216.551 244.848 216.941Z" fill="#FFCAB8"/>
<path fill-rule="evenodd" clip-rule="evenodd" d="M233.154 221.536C229.604 223.094 220.573 223.276 213.369 224.029C210.889 224.288 210.524 229.896 212.09 230.909C216.005 233.479 230.544 228.702 235.712 227.118C234.798 225.924 233.963 222.756 233.754 221.302C233.546 221.38 233.363 221.432 233.154 221.536Z" fill="#333242"/>
<path fill-rule="evenodd" clip-rule="evenodd" d="M234.564 224.859C228.508 228.313 221.826 229.455 215.248 227.845C214.726 227.715 212.508 227.014 211.959 226.807C211.751 226.729 211.542 226.651 211.333 226.547C204.39 223.795 195.802 220.498 191.026 214.915C190.895 214.76 189.773 213.046 189.668 212.89C188.99 211.774 186.928 219.148 189.434 220.627C194.68 223.691 205.408 229.273 212.09 230.909C216.005 233.479 230.544 228.702 235.712 227.118C235.321 226.625 234.955 225.742 234.642 224.808C234.616 224.834 234.59 224.859 234.564 224.859Z" fill="#42445D"/>
<path fill-rule="evenodd" clip-rule="evenodd" d="M242.368 215.071L239.471 218.135L241.794 217.901C242.446 217.512 243.308 216.785 243.725 215.746C245.056 215.201 245.579 214.24 245.291 213.254C243.856 214.37 243.047 214.734 242.368 215.071Z" fill="#FFCAB8"/>
<path fill-rule="evenodd" clip-rule="evenodd" d="M237.565 184.46C237.33 184.278 236.939 184.434 236.652 184.954C235.947 186.226 235.79 186.537 235.19 187.861C234.616 189.108 235.321 189.237 235.895 188.433C236.6 187.42 237.096 186.641 237.67 185.525C237.983 184.876 237.8 184.616 237.565 184.46Z" fill="#FFCAB8"/>
<path fill-rule="evenodd" clip-rule="evenodd" d="M237.8 186.901C237.435 186.667 237.017 186.823 236.73 187.316C236.051 188.588 235.529 189.471 234.851 190.769C234.198 191.99 234.851 192.093 235.477 191.366C236.286 190.406 237.2 189.082 237.852 187.991C238.218 187.368 238.035 187.031 237.8 186.901Z" fill="#FFCAB8"/>
<path fill-rule="evenodd" clip-rule="evenodd" d="M237.565 188.822C236.887 189.939 236.391 190.588 235.738 191.704C235.112 192.769 235.764 193.002 236.365 192.379C237.148 191.548 238.035 190.406 238.688 189.471C239.053 188.926 238.87 188.666 238.636 188.485C238.401 188.303 237.826 188.381 237.565 188.822Z" fill="#FFCAB8"/>
<path fill-rule="evenodd" clip-rule="evenodd" d="M239.314 189.809C239.053 189.705 238.766 189.575 238.505 190.016C237.826 191.133 237.644 191.6 237.383 192.016C236.756 193.08 237.409 193.21 238.009 192.587C238.792 191.756 238.792 191.652 239.419 190.717C239.784 190.198 239.549 189.887 239.314 189.809Z" fill="#FFCAB8"/>
<path fill-rule="evenodd" clip-rule="evenodd" d="M252.757 214.059C251.556 214.396 249.677 214.993 248.502 215.513C247.849 215.824 248.867 215.824 248.92 216.084C248.998 216.369 248.476 217.044 249.024 216.811C250.381 216.266 251.608 215.591 252.913 214.941C254.166 214.318 253.67 213.799 252.757 214.059Z" fill="#FFCAB8"/>
<path d="M436.696 286.471L438.889 276.371C438.889 276.371 435.495 268.972 432.102 269.257C428.709 269.543 426.725 270.477 426.725 270.477C426.725 270.477 428.474 265.57 424.454 261.961C420.435 258.352 410.229 254.38 401.458 249.603C401.458 249.603 401.458 249.603 401.458 249.629C401.824 250.148 408.402 260.144 410.438 272.736C412.682 286.523 431.658 274.424 432.781 309.371C433.251 324.17 426.386 329.596 426.986 337.749C427.117 339.644 427.665 341.695 428.787 344.032C428.787 344.032 445.962 318.276 441.055 284.55L436.696 286.471Z" fill="#0A429F"/>
<path d="M401.485 317.316C401.485 317.316 408.454 312.045 412.056 320.016C418.399 334.114 423.071 345.408 427.691 345.408C441.342 345.408 428.265 315.342 424.298 311.084C415.867 302.075 401.485 317.316 401.485 317.316Z" fill="#333242"/>
<path d="M413.726 276.968C414.092 278.344 411.664 283.044 411.664 283.044C411.664 283.044 409.237 276.397 407.958 274.709C406.705 273.048 390.6 270.841 390.104 270.789C393.759 275.151 394.228 278.734 394.228 278.734C394.228 278.734 388.695 270.607 380.29 271.075C371.859 271.542 360.74 266.894 360.74 266.894C360.74 266.894 360.74 266.894 360.792 266.946C376.531 285.432 379.272 285.51 389.034 291.144C398.822 296.778 409.498 298.154 415.214 302.361C423.306 308.332 427.299 315.29 429.205 321.392C430.954 326.974 430.954 331.829 430.745 334.581V334.607C430.64 335.827 430.51 336.632 430.458 336.866C430.588 336.399 430.693 335.931 430.797 335.464C440.637 294.208 413.361 275.592 413.726 276.968Z" fill="#0D5BD9"/>
<path d="M483.862 320.561C453.871 311.162 431.084 336.425 431.084 336.425L437.348 341.851C439.358 333.491 460.944 323.235 476.423 323.235C494.381 323.235 506.962 338.528 506.962 338.528C501.611 327.805 489.421 322.301 483.862 320.561Z" fill="#333242"/>
<path d="M415.423 270.711C410.96 260.741 401.981 250.122 401.485 249.603C401.85 250.122 408.428 260.118 410.464 272.71C412.708 286.497 431.684 274.398 432.807 309.345C433.277 324.144 429.962 330.869 430.536 339.021C433.564 331.699 437.061 311.344 434.973 296.83C432.337 278.5 420.591 282.317 415.423 270.711Z" fill="url(#paint55_linear)"/>
<path d="M482.87 331.206C456.69 319.211 433.59 342.318 433.59 342.318L438.366 346.628C442.986 339.047 462.85 331.959 475.901 333.231C492.136 334.815 502.003 351.172 502.003 351.172C498.192 339.982 487.725 333.439 482.87 331.206Z" fill="#0D5BD9"/>
<path d="M447.737 300.621C443.404 305.736 420.67 345.408 436.252 345.408C441.577 345.408 453.427 323.988 460.292 314.589C466.243 306.437 473.056 306.515 473.056 306.515C473.056 306.515 456.951 289.768 447.737 300.621Z" fill="#0A429F"/>
<path d="M414.744 334.711C420.017 338.372 421.165 343.539 415.919 346.628H434.608C428.265 326.818 414.744 334.711 414.744 334.711Z" fill="#333242"/>
<path d="M408.715 329.57C407.958 329.155 397.595 327 390.626 331.518C382.065 337.074 380.603 347.303 386.059 358.598C386.085 358.649 386.111 358.675 386.111 358.727C386.111 358.727 400.754 352.6 409.916 339.488C418.503 327.156 433.459 338.71 434.477 346.628H438.34C436.826 342.76 428.709 325.208 408.715 329.57Z" fill="#0D5BD9"/>
<path d="M390.626 331.518C382.013 336.97 380.603 347.303 386.059 358.598C386.554 353.976 385.537 346.109 391.436 337.489C394.02 333.699 400.467 330.167 407.88 329.311C405.348 328.584 397.726 327.026 390.626 331.518Z" fill="#0A429F"/>
<path d="M408.35 304.853C408.35 304.853 404.043 300.465 395.951 304.308C387.86 308.176 387.573 318.847 393.028 326.429C393.028 326.429 403.39 323.858 408.454 316.017C413.518 308.176 424.794 311.578 424.794 311.578C424.794 311.578 420.095 301.348 408.35 304.853Z" fill="#0D5BD9"/>
<path d="M395.925 304.334C387.833 308.202 387.546 318.873 393.002 326.455C398.718 304.905 408.323 304.879 408.323 304.879C408.323 304.879 404.017 300.465 395.925 304.334Z" fill="url(#paint56_linear)"/>
<path d="M479.242 292.339C469.715 288.314 464.964 293.611 464.964 293.611C453.975 289.067 446.354 302.231 446.354 302.231C446.354 302.231 456.298 295.117 465.434 306.489C472.168 314.901 483.784 317.679 483.784 317.679C489.683 308.67 488.795 296.389 479.242 292.339Z" fill="url(#paint57_linear)"/>
<path d="M479.242 292.339C469.715 288.314 464.964 293.611 464.964 293.611C464.964 293.611 476.031 293.118 483.758 317.679C489.683 308.67 488.795 296.389 479.242 292.339Z" fill="#0D5BD9"/>
<path d="M391.67 283.303C376.505 282.057 361.679 267.803 360.766 266.92C376.505 285.406 379.246 285.484 389.008 291.118C398.796 296.752 409.472 298.129 415.188 302.335C423.28 308.306 427.273 315.264 429.179 321.366C422.993 282.55 405.791 284.446 391.67 283.303Z" fill="url(#paint58_linear)"/>
<path d="M663.912 130.768H637.967C638.567 135.441 632.72 140.686 630.789 144.814C628.805 149.072 628.048 162.962 651.148 162.962C674.222 162.962 673.596 148.657 671.064 144.814C668.532 140.997 663.312 135.441 663.912 130.768Z" fill="#42445D"/>
<path d="M670.02 143.334C670.62 146.839 670.202 151.253 666.679 153.512C659.188 158.315 650.887 154.135 646.372 147.956C645.432 146.683 642.561 153.018 642.561 153.018C642.561 153.018 636.74 140.27 642.091 130.768H637.941C638.541 135.441 632.694 140.686 630.763 144.814C628.779 149.072 628.022 162.962 651.122 162.962C674.196 162.962 673.57 148.657 671.038 144.814C670.725 144.347 670.385 143.853 670.02 143.334Z" fill="#333242"/>
<path fill-rule="evenodd" clip-rule="evenodd" d="M647.807 278.89C647.598 281.382 646.894 283.407 646.763 285.484C646.607 287.639 647.024 289.82 647.129 292.624C647.416 295.61 646.058 297.895 645.536 300.465C642.9 313.577 645.693 321.6 642.796 331.596C641.856 334.867 640.864 336.009 640.368 337.411C639.716 339.307 640.316 341.643 639.637 345.408C638.75 350.289 636.349 355.222 637.158 357.974C637.941 360.545 643.918 363.063 646.163 363.063C648.851 363.063 647.546 360 647.416 358.078C647.207 355.067 648.303 337.957 649.295 334.192C652.192 323.339 658.744 307.138 660.075 296.804C661.328 287.016 660.493 285.173 662.737 273.697C662.998 272.373 667.723 241.58 668.088 229.169L647.964 239.269C648.486 251.238 648.799 266.401 647.807 278.89Z" fill="#FFC3AB"/>
<path fill-rule="evenodd" clip-rule="evenodd" d="M656.995 269.647C659.475 280.11 657.126 290.469 653.915 300.595C650.313 311.941 648.825 325.754 646.476 332.426C643.422 341.072 645.928 342.526 641.438 350.445C637.21 357.923 645.093 363.011 646.215 363.011C648.903 363.011 647.598 359.948 647.468 358.026C647.259 355.015 648.355 337.905 649.347 334.14C652.244 323.287 658.796 307.086 660.127 296.752C661.38 286.964 660.545 285.121 662.79 273.645C663.051 272.321 667.775 241.528 668.14 229.117L654.385 236.024C656.421 247.214 654.359 258.612 656.995 269.647Z" fill="#FFCAB8"/>
<path fill-rule="evenodd" clip-rule="evenodd" d="M647.442 355.015C646.998 357.066 642.926 358.156 640.942 355.456C639.637 353.691 639.141 351.38 638.802 349.381C638.776 349.303 638.75 349.225 638.75 349.121C637.732 352.652 636.583 355.923 637.184 357.949C637.967 360.545 643.944 363.037 646.189 363.037C648.877 363.037 647.572 359.974 647.442 358.052C647.39 357.481 647.416 356.391 647.442 355.015Z" fill="url(#paint59_linear)"/>
<path fill-rule="evenodd" clip-rule="evenodd" d="M641.673 356.702C641.621 356.495 641.595 356.287 641.595 356.105C641.36 355.923 641.151 355.716 640.969 355.456C639.664 353.691 639.168 351.38 638.828 349.381C638.802 349.303 638.776 349.225 638.776 349.121C637.758 352.652 636.61 355.923 637.21 357.949C637.993 360.545 643.97 363.037 646.215 363.037C647.39 363.037 647.781 362.414 647.86 361.583C646.868 361.739 642.796 360.623 641.673 356.702Z" fill="#FFB725"/>
<path fill-rule="evenodd" clip-rule="evenodd" d="M666.705 161.638C664.538 161.119 660.362 159.925 657.804 158.938C653.393 157.225 654.15 153.382 655.168 147.93L646.998 145.074C646.215 150.863 647.572 157.484 641.569 155.848C634.417 153.901 630.998 155.225 628.753 164.572L661.902 180.072C661.902 186.537 664.512 192.561 666.052 197.883L672.995 195.131C672.265 187.732 670.646 162.573 666.705 161.638Z" fill="#FFCAB8"/>
<path fill-rule="evenodd" clip-rule="evenodd" d="M617.816 187.031L623.376 192.249C627.056 187.628 637.184 164.572 637.184 164.572L627.735 160.626C622.985 168.597 619.565 182.747 617.816 187.031Z" fill="#FFCAB8"/>
<path fill-rule="evenodd" clip-rule="evenodd" d="M632.485 162.988C631.572 166.26 625.177 164.287 623.872 168.908C623.376 170.674 625.203 174.101 625.856 175.581C626.195 176.334 626.769 183.084 624.394 187.524C623.898 188.433 620.948 188.926 620.27 189.341L623.376 192.249C627.056 187.628 637.184 164.572 637.184 164.572L632.538 162.625C632.512 162.755 632.512 162.859 632.485 162.988Z" fill="#FFC3AB"/>
<path fill-rule="evenodd" clip-rule="evenodd" d="M641.595 155.848C637.654 154.758 634.835 154.706 632.747 156.42C634.443 155.9 636.27 155.745 637.836 155.952C640.238 156.238 642.143 158.627 644.231 158.886C648.094 159.354 652.453 154.265 654.672 150.967C654.829 150.033 655.011 149.02 655.194 147.956L647.024 145.1C646.267 150.889 647.598 157.51 641.595 155.848Z" fill="#FFC3AB"/>
<path fill-rule="evenodd" clip-rule="evenodd" d="M665.478 180.903C665.243 181.293 663.025 183.5 662.007 183.863C662.189 188.848 664.852 193.651 666.105 197.909L668.767 197.364C667.801 193.677 665.817 188.926 665.713 184.928C665.661 183.526 665.556 182.201 665.478 180.903Z" fill="#FFC3AB"/>
<path fill-rule="evenodd" clip-rule="evenodd" d="M653.106 123.394C650.13 122.979 647.834 123.368 646.059 124.329C642.378 126.302 641.047 130.768 641.073 135.623C641.073 135.805 641.073 135.986 641.073 136.194C641.073 136.376 641.073 136.532 641.073 136.713C641.099 136.947 641.099 137.181 641.099 137.44C641.178 138.505 641.256 139.44 641.36 140.322C641.621 142.296 641.961 143.853 642.509 145.151C643.187 146.813 647.807 152.759 651.436 152.655C654.777 152.551 659.292 146.917 660.023 145.619C660.884 144.035 661.302 142.373 661.511 140.608C661.667 139.336 661.72 138.012 661.772 136.584V136.532C661.798 136.194 661.798 135.857 661.798 135.545C661.85 129.781 659.866 124.329 653.106 123.394Z" fill="#FFCAB8"/>
<path fill-rule="evenodd" clip-rule="evenodd" d="M660.388 341.799C659.893 340.397 658.77 340.683 657.831 337.411C654.933 327.415 657.857 317.965 655.22 304.853C654.698 302.283 653.341 299.998 653.628 297.012C653.733 294.208 654.15 292.027 653.994 289.872C653.837 287.821 653.132 285.77 652.95 283.277C652.323 275.281 652.219 272.139 652.349 260.533C652.558 243.008 653.967 234.674 647.546 221.562L634.208 221.614L632.642 233.557C633.06 247.136 635.383 261.208 638.385 276.579C640.603 288.055 639.977 292.598 641.23 302.387C642.561 312.694 653.184 341.825 653.498 345.798C653.576 346.888 653.811 360.623 654.02 362.466C654.228 364.361 654.02 368.905 656.604 368.905C658.848 368.905 663.025 364.076 663.599 362.336C664.46 359.636 662.033 354.677 661.119 349.796C660.415 346.005 661.041 343.694 660.388 341.799Z" fill="#FFCAB8"/>
<path fill-rule="evenodd" clip-rule="evenodd" d="M656.081 362.362C655.168 362.362 654.541 361.35 653.915 360.805C653.941 361.583 653.993 362.181 654.019 362.466C654.228 364.362 654.019 368.905 656.603 368.905C658.848 368.905 663.024 364.076 663.599 362.336C664.251 360.337 663.077 357.144 662.085 353.639C661.902 354.288 660.701 362.362 656.081 362.362Z" fill="url(#paint60_linear)"/>
<path fill-rule="evenodd" clip-rule="evenodd" d="M657.596 363.635C657.491 363.037 657.491 362.518 657.543 362.025C657.1 362.233 656.604 362.336 656.056 362.336C655.142 362.336 654.516 361.324 653.889 360.779C653.915 361.557 653.967 362.155 653.994 362.44C654.202 364.336 653.994 368.879 656.578 368.879C658.039 368.879 660.31 366.828 661.902 364.933C661.511 365.114 661.093 365.27 660.676 365.374C659.501 365.712 657.804 365.011 657.596 363.635Z" fill="#FFB725"/>
<path fill-rule="evenodd" clip-rule="evenodd" d="M628.022 207.594C627.944 208.165 626.795 217.72 626.717 218.239C624.733 235.738 631.389 259.884 636.244 283.044C648.199 287.016 665.113 282.343 665.113 282.343C665.113 282.343 672.682 246.591 672.682 228.754C672.682 216.525 665.739 209.281 665.061 205.439C656.238 210.554 632.016 208.632 628.022 207.594Z" fill="#0A429F"/>
<path fill-rule="evenodd" clip-rule="evenodd" d="M645.98 270.919C644.701 266.349 642.3 257.807 642.717 253.082C643.631 242.93 630.162 237.192 634.913 232.83C637.132 230.805 643.553 227.845 645.197 224.626C646.502 222.03 641.177 209.489 641.177 209.489C641.177 209.489 628.048 207.853 627.97 207.802C627.97 207.802 626.769 217.746 626.717 218.239C624.733 235.738 631.389 259.884 636.244 283.044C645.328 286.056 657.23 284.108 662.45 282.992C657.935 277.436 647.938 277.955 645.98 270.919Z" fill="#0D5BD9"/>
<path fill-rule="evenodd" clip-rule="evenodd" d="M661.328 159.795L651.122 162.962C651.122 162.962 645.954 158.704 642.43 155.511C642.43 155.511 633.556 150.24 624.603 161.716C623.585 163.014 629.667 165.351 628.883 171.946C627.578 183.058 624.629 204.27 627.631 207.827C630.476 211.177 664.408 212.371 665.4 206.633C665.974 203.284 662.92 201.544 661.98 197.728C661.302 195.027 661.563 192.042 662.398 186.979C664.591 185.187 668.741 182.851 666.548 176.957C664.956 172.673 673.1 172.829 672.708 169.635C671.482 160.132 661.328 159.795 661.328 159.795Z" fill="#0A429F"/>
<path fill-rule="evenodd" clip-rule="evenodd" d="M635.539 200.428C632.981 198.507 634.73 196.663 637.288 198.61C640.133 200.765 648.486 204.244 648.486 200.739C648.486 192.483 656.316 187.186 658.405 184.85C660.388 182.643 652.923 175.243 656.421 173.114C656.682 172.958 657.126 171.92 657.073 171.479C656.76 168.077 660.101 168.129 657.987 166.078C655.873 164.001 654.489 164.936 651.801 165.689C646.058 167.272 629.614 165.325 628.857 171.92C627.552 183.032 624.603 204.244 627.605 207.801C629.849 210.424 651.201 211.722 660.78 209.411C658.848 208.58 655.56 207.853 653.497 207.827C644.988 207.698 640.264 204.037 635.539 200.428ZM633.947 181.189C634.443 179.164 633.504 176.853 632.381 175.191C631.52 173.945 635.539 174.101 637.732 172.829C639.142 172.024 641.882 169.064 643.944 171.53C646.346 174.386 643.005 177.502 647.859 180.15C652.062 182.435 649.321 186.044 646.137 186.563C642.587 187.161 639.82 182.643 638.254 183.655C635.566 185.421 633.19 184.305 633.947 181.189Z" fill="#0D5BD9"/>
<path fill-rule="evenodd" clip-rule="evenodd" d="M651.409 143.801C650.444 143.827 649.504 144.243 649.452 144.425C649.295 144.84 649.922 144.97 650.287 144.97C650.417 144.97 650.705 144.996 650.887 145.048C651.2 145.1 651.514 145.1 651.827 145.022C652.01 144.97 652.297 144.918 652.427 144.892C652.793 144.866 653.497 144.632 653.21 144.295C653.028 144.061 652.323 143.775 651.409 143.801Z" fill="#FFC3AB"/>
<path d="M653.106 122.122C650.13 121.706 647.834 122.096 646.059 123.057C642.378 125.03 641.047 129.496 641.073 134.351C641.7 132.429 642.822 130.067 644.78 128.483C644.78 128.483 648.042 131.599 652.323 133.286C652.323 133.286 649.661 129.288 649.165 127.678C649.478 127.86 654.176 130.949 661.537 139.284C661.694 137.986 661.746 136.635 661.798 135.207C662.059 129.158 660.258 123.108 653.106 122.122Z" fill="#FFC3AB"/>
<path d="M651.488 117.189C645.328 117.189 643.031 122.304 643.031 122.304C643.031 122.304 638.672 123.16 637.915 127.159C637.262 130.586 638.619 134.091 641.151 136.739C641.151 136.739 641.778 130.742 645.589 127.704C645.589 127.704 648.851 130.82 653.132 132.507C653.132 132.507 650.47 128.483 649.974 126.873C649.974 126.873 655.22 130.171 663.468 139.777C662.946 135.597 663.938 133.546 663.938 128.794C663.912 123.394 659.188 117.189 651.488 117.189Z" fill="#42445D"/>
<path d="M647.886 125.419C648.878 128.483 651.383 131.832 653.106 132.507C653.106 132.507 650.444 128.483 649.948 126.873C649.948 126.873 655.194 130.171 663.442 139.777C663.416 139.699 657.256 125.419 647.886 125.419Z" fill="#333242"/>
<path d="M638.567 125.419C638.28 125.913 638.045 126.484 637.915 127.159C637.262 130.586 638.619 134.091 641.125 136.739C641.125 136.739 641.282 135.207 641.934 133.286C638.437 132.377 637.314 128.353 638.567 125.419Z" fill="#333242"/>
<path d="M657.23 141.439C655.09 141.517 653.289 139.985 653.21 138.063C653.158 136.454 654.307 135.727 657.021 135.649C657.595 135.623 658.091 135.649 658.535 135.701C658.378 135.545 658.274 135.363 658.144 135.207C657.752 135.182 657.36 135.182 656.995 135.182C655.559 135.233 653.732 135.467 653.028 136.713V136.687C652.871 136.921 652.297 137.051 652.14 137.051C652.01 137.051 651.435 137.077 651.096 137.077C650.757 137.077 650.156 137.103 650.026 137.103C649.895 137.103 649.295 137.025 649.112 136.791V136.843C648.329 135.649 646.502 135.545 645.067 135.597C644.257 135.623 643.318 135.727 642.535 136.012C642.561 136.012 642.561 135.986 642.587 135.96C642.169 136.064 641.517 136.142 641.047 136.168C641.047 136.35 641.047 136.506 641.047 136.687C641.073 136.921 641.073 137.155 641.073 137.414C641.151 138.479 641.23 139.414 641.334 140.296C642.117 141.543 643.605 142.373 645.275 142.296C647.598 142.218 649.426 140.504 649.504 138.427V138.479C649.765 137.882 650.626 137.7 651.096 137.674C651.54 137.674 652.427 137.778 652.714 138.349V138.297C652.949 140.348 654.881 141.932 657.204 141.88C659.214 141.802 660.858 140.504 661.302 138.79C661.302 138.842 661.302 138.868 661.302 138.868C661.328 138.842 661.328 138.79 661.328 138.764C661.171 138.583 661.041 138.401 660.91 138.219C660.806 139.959 659.214 141.361 657.23 141.439ZM645.328 141.854C643.187 141.932 641.36 140.426 641.308 138.479C641.256 136.869 642.378 136.142 645.119 136.064C647.833 135.96 649.034 136.61 649.086 138.219C649.165 140.141 647.468 141.776 645.328 141.854Z" fill="#FFC3AB"/>
<path d="M657.387 134.792C655.507 134.844 653.028 135.233 653.106 137.7C653.184 139.907 655.22 141.62 657.622 141.543C660.023 141.465 661.928 139.595 661.85 137.414C661.798 134.922 659.266 134.714 657.387 134.792ZM657.622 141.049C655.481 141.127 653.68 139.621 653.602 137.674C653.55 136.064 654.698 135.337 657.413 135.259C660.153 135.156 661.328 135.805 661.38 137.414C661.459 139.362 659.762 140.971 657.622 141.049Z" fill="white"/>
<path d="M661.902 135.104C661.589 135.104 660.467 135.13 659.866 135C659.866 135 660.597 135.285 661.25 136.038C661.746 136.635 661.746 138.505 661.746 138.505C661.981 137.856 662.007 136.999 662.007 136.609C662.007 136.246 662.085 136.142 662.242 136.142C662.398 136.116 662.424 136.038 662.424 135.934C662.424 135.831 662.398 135.389 662.398 135.233C662.398 135.104 662.242 135.104 661.902 135.104Z" fill="white"/>
<path d="M645.484 135.208C643.605 135.259 641.125 135.649 641.203 138.115C641.282 140.322 643.318 142.036 645.719 141.958C648.146 141.88 650.026 140.011 649.947 137.83C649.869 135.337 647.363 135.13 645.484 135.208ZM645.693 141.465C643.553 141.543 641.752 140.037 641.673 138.089C641.621 136.48 642.77 135.753 645.484 135.675C648.225 135.571 649.399 136.22 649.452 137.83C649.53 139.777 647.833 141.387 645.693 141.465Z" fill="white"/>
<path d="M640.525 136.012C640.525 136.168 640.551 136.61 640.551 136.713C640.551 136.817 640.577 136.895 640.734 136.895C640.89 136.895 640.995 136.999 640.995 137.362C640.995 137.726 641.099 138.609 641.386 139.232C641.386 139.232 641.256 137.362 641.699 136.739C642.274 135.935 643.004 135.597 643.004 135.597C642.404 135.779 641.308 135.831 640.969 135.857C640.681 135.831 640.525 135.883 640.525 136.012Z" fill="white"/>
<path d="M651.487 136.687C651.148 136.687 650.574 136.713 650.417 136.713C650.287 136.713 649.687 136.636 649.504 136.402L649.922 138.141C650.183 137.544 651.044 137.363 651.487 137.337C651.957 137.311 652.819 137.44 653.106 138.012L653.419 136.246C653.262 136.48 652.662 136.61 652.531 136.61C652.427 136.661 651.827 136.661 651.487 136.687Z" fill="white"/>
<path fill-rule="evenodd" clip-rule="evenodd" d="M665.609 196.455C657.126 197.909 651.07 201.752 646.528 202.012C645.458 202.064 644.44 202.427 643.475 201.7C641.413 200.168 639.246 200.246 636.975 200.324C634.887 200.402 637.184 202.038 634.73 202.453C633.269 202.687 628.936 202.92 628.805 203.492C628.57 204.66 629.902 204.634 631.416 204.504C631.155 205.179 631.624 206.088 632.564 206.01C632.538 206.945 633.295 207.594 634.182 207.542C634.261 208.788 635.2 209.126 636.793 208.788C638.515 208.451 641.282 208.451 645.954 207.62C652.062 206.529 653.289 207.334 657.726 206.945C662.085 206.555 668.741 206.062 672.369 203.466C673.648 202.531 673.674 198.481 672.943 194.456C670.072 195.079 668.48 195.962 665.609 196.455Z" fill="#FFCAB8"/>
<path fill-rule="evenodd" clip-rule="evenodd" d="M631.546 198.403C631.781 199.597 632.851 200.298 634.521 200.168C635.122 200.739 635.513 201.363 635.931 201.7L640.316 200.402L635.592 198.766C634.704 198.766 633.686 198.818 631.546 198.403Z" fill="#FFCAB8"/>
<path fill-rule="evenodd" clip-rule="evenodd" d="M616.537 187.446C609.177 192.639 593.698 203.881 591.297 202.998C588.713 202.038 586.468 202.115 584.145 202.791C582.005 203.414 584.824 204.504 582.37 205.569C580.935 206.192 576.523 207.568 576.549 208.191C576.628 209.463 577.985 209.074 579.499 208.554C579.421 209.333 580.125 210.138 581.091 209.827C581.326 210.787 582.266 211.255 583.179 210.995C583.597 212.241 584.641 212.371 586.207 211.618C587.878 210.813 590.775 210.112 595.343 208.009C601.346 205.283 617.947 201.674 624.081 192.171C625.36 190.224 619.043 185.655 616.537 187.446Z" fill="#FFCAB8"/>
<path fill-rule="evenodd" clip-rule="evenodd" d="M622.254 188.718C621.157 189.315 618.547 191.626 618.13 191.938C614.554 194.612 611.291 197.65 607.219 199.415C603.121 201.207 597.718 205.127 593.594 206.841C592.263 207.386 589.914 206.607 587.825 205.802C586.52 205.309 585.137 205.127 583.78 205.309C583.179 205.387 582.683 205.413 582.396 205.543C580.961 206.166 576.549 207.542 576.576 208.165C576.654 209.437 578.011 209.048 579.525 208.528C579.447 209.307 580.152 210.112 581.117 209.801C581.352 210.761 582.292 211.229 583.205 210.969C583.623 212.215 584.667 212.345 586.233 211.592C587.225 211.125 593.516 208.84 595.369 207.983C601.372 205.257 617.973 201.648 624.107 192.145C625.099 190.64 623.402 189.341 622.254 188.718Z" fill="#FFC3AB"/>
<path fill-rule="evenodd" clip-rule="evenodd" d="M578.846 202.505C579.395 203.673 580.7 204.115 582.396 203.543C583.649 204.167 584.745 204.452 585.685 204.27L588.374 202.271L583.127 201.804C582.187 202.038 581.17 202.375 578.846 202.505Z" fill="#FFCAB8"/>
<path d="M593.437 210.45L593.907 207.1L513.096 197.26L593.437 210.45Z" fill="#333242"/>
<path fill-rule="evenodd" clip-rule="evenodd" d="M581.222 206.529C579.447 206.997 579.055 207.126 577.333 207.75C576.654 207.983 576.367 208.451 576.549 208.762C576.706 209.074 576.993 209.333 577.855 209.074C579.368 208.606 580.413 208.165 581.796 207.49C582.866 206.971 582.892 206.088 581.222 206.529Z" fill="#FFCAB8"/>
<path fill-rule="evenodd" clip-rule="evenodd" d="M584.876 206.686C583.153 207.283 581.639 208.01 579.917 208.581C579.238 208.815 579.29 209.204 579.499 209.516C579.682 209.828 580.021 210.113 580.83 209.776C582.292 209.178 584.119 208.348 585.476 207.543C586.52 206.946 586.52 206.115 584.876 206.686Z" fill="#FFCAB8"/>
<path fill-rule="evenodd" clip-rule="evenodd" d="M585.894 207.957C584.38 208.554 583.153 209.255 581.639 209.853C581.039 210.086 581.143 210.528 581.326 210.865C581.509 211.177 581.822 211.462 582.553 211.125C583.858 210.528 585.45 209.671 586.625 208.866C587.512 208.243 587.329 207.386 585.894 207.957Z" fill="#FFCAB8"/>
<path fill-rule="evenodd" clip-rule="evenodd" d="M587.304 209.411C585.79 210.008 585.059 210.346 583.545 210.943C582.944 211.177 583.023 211.566 583.206 211.878C583.388 212.189 583.701 212.475 584.432 212.137C585.737 211.54 586.729 211.073 587.904 210.294C588.791 209.697 588.739 208.866 587.304 209.411Z" fill="#FFCAB8"/>
<path d="M636.505 201.285C636.505 201.311 636.505 201.311 636.505 201.285C636.505 202.167 637.236 202.894 638.098 202.894H675.789C676.676 202.894 677.381 202.167 677.381 201.311H636.505V201.285Z" fill="#42445D"/>
<path d="M632.433 168.233C632.068 166.935 630.893 166.052 629.536 166.104H606.41V202.505L638.332 202.894C640.29 202.894 640.394 201.388 640.264 200.869L632.433 168.233Z" fill="#42445D"/>
<path d="M630.763 166.779C630.658 166.363 630.267 166.104 629.849 166.104H589.026C588.4 166.104 587.956 166.701 588.112 167.298L595.76 199.545C596.308 201.544 598.136 202.92 600.224 202.92H638.228C638.854 202.92 639.298 202.323 639.141 201.726L630.763 166.779Z" fill="url(#paint61_linear)"/>
<path d="M525.781 330.661L526.773 326.091C526.773 326.091 525.233 322.742 523.719 322.872C522.179 323.002 521.292 323.417 521.292 323.417C521.292 323.417 522.075 321.184 520.274 319.575C518.473 317.939 513.853 316.147 509.859 313.992C510.016 314.226 512.992 318.744 513.931 324.456C514.949 330.687 523.537 325.209 524.033 341.021C524.241 347.719 521.135 350.16 521.396 353.847C521.449 354.703 521.71 355.638 522.206 356.677C522.206 356.677 529.958 345.019 527.765 329.778L525.781 330.661Z" fill="url(#paint62_linear)"/>
<path d="M509.859 344.603C509.859 344.603 513.018 342.215 514.636 345.824C517.507 352.211 519.621 357.299 521.71 357.299C527.896 357.299 521.971 343.694 520.17 341.773C516.359 337.697 509.859 344.603 509.859 344.603Z" fill="#333242"/>
<path d="M515.393 326.351C515.549 326.974 514.453 329.103 514.453 329.103C514.453 329.103 513.357 326.091 512.783 325.338C512.235 324.585 504.926 323.599 504.717 323.573C506.362 325.546 506.57 327.156 506.57 327.156C506.57 327.156 504.065 323.469 500.254 323.677C496.443 323.884 491.405 321.781 491.405 321.781C491.405 321.781 491.405 321.781 491.431 321.807C498.557 330.167 499.784 330.219 504.195 332.764C508.606 335.308 513.435 335.931 516.045 337.827C519.7 340.527 521.501 343.668 522.362 346.447C523.145 348.965 523.145 351.172 523.067 352.418C523.015 352.963 522.962 353.327 522.936 353.457C522.988 353.249 523.041 353.041 523.093 352.834C527.556 334.166 515.21 325.728 515.393 326.351Z" fill="#0D5BD9"/>
<path d="M547.133 346.083C533.56 341.851 523.25 353.275 523.25 353.275L526.095 355.742C527.008 351.951 536.77 347.329 543.765 347.329C551.883 347.329 557.573 354.262 557.573 354.262C555.146 349.355 549.638 346.862 547.133 346.083Z" fill="#333242"/>
<path d="M516.15 323.521C514.14 319.003 510.068 314.2 509.833 313.966C509.99 314.2 512.965 318.718 513.905 324.43C514.923 330.661 523.511 325.182 524.007 340.994C524.215 347.693 522.728 350.731 522.989 354.417C524.346 351.094 525.938 341.903 524.998 335.334C523.824 327.052 518.499 328.765 516.15 323.521Z" fill="#0A429F"/>
<path d="M546.663 350.886C534.813 345.46 524.372 355.923 524.372 355.923L526.538 357.871C528.626 354.443 537.632 351.224 543.504 351.821C550.839 352.548 555.303 359.948 555.303 359.948C553.606 354.859 548.855 351.899 546.663 350.886Z" fill="#0D5BD9"/>
<path d="M530.767 337.048C528.809 339.359 518.525 357.299 525.573 357.299C527.974 357.299 533.351 347.615 536.431 343.357C539.119 339.67 542.199 339.696 542.199 339.696C542.199 339.696 534.943 332.141 530.767 337.048Z" fill="#0D5BD9"/>
<path d="M515.863 352.47C518.238 354.132 518.76 356.469 516.385 357.871H524.842C521.97 348.913 515.863 352.47 515.863 352.47Z" fill="#333242"/>
<path d="M513.122 350.133C512.783 349.952 508.084 348.965 504.926 351.016C501.063 353.535 500.384 358.156 502.864 363.271C502.864 363.297 502.89 363.297 502.89 363.323C502.89 363.323 509.52 360.545 513.644 354.625C517.533 349.043 524.293 354.288 524.763 357.871H526.512C525.833 356.105 522.179 348.16 513.122 350.133Z" fill="#0D5BD9"/>
<path d="M504.952 351.016C501.063 353.483 500.411 358.156 502.89 363.271C503.125 361.194 502.655 357.611 505.318 353.716C506.492 352.003 509.416 350.419 512.757 350.004C511.608 349.692 508.163 348.991 504.952 351.016Z" fill="url(#paint63_linear)"/>
<path d="M512.965 338.969C512.965 338.969 511.008 336.97 507.354 338.735C503.699 340.475 503.569 345.304 506.049 348.731C506.049 348.731 510.721 347.563 513.018 344.032C515.315 340.501 520.404 342.007 520.404 342.007C520.404 342.007 518.264 337.385 512.965 338.969Z" fill="#0D5BD9"/>
<path d="M507.354 338.735C503.699 340.475 503.569 345.304 506.048 348.731C508.633 338.969 512.965 338.969 512.965 338.969C512.965 338.969 511.008 336.996 507.354 338.735Z" fill="url(#paint64_linear)"/>
<path d="M545.045 333.309C540.738 331.492 538.597 333.88 538.597 333.88C533.638 331.829 530.193 337.775 530.193 337.775C530.193 337.775 534.682 334.555 538.832 339.696C541.886 343.513 547.133 344.759 547.133 344.759C549.743 340.683 549.351 335.126 545.045 333.309Z" fill="url(#paint65_linear)"/>
<path d="M545.045 333.309C540.738 331.492 538.597 333.88 538.597 333.88C538.597 333.88 543.609 333.673 547.107 344.759C549.743 340.683 549.351 335.126 545.045 333.309Z" fill="#0D5BD9"/>
<path d="M505.422 329.207C498.557 328.636 491.849 322.197 491.431 321.807C498.557 330.168 499.784 330.219 504.195 332.764C508.606 335.308 513.435 335.931 516.045 337.827C519.7 340.527 521.501 343.669 522.362 346.447C519.595 328.869 511.817 329.726 505.422 329.207Z" fill="url(#paint66_linear)"/>
</g>
<circle cx="42.2207" cy="37.9051" r="3" fill="#42FFC5"/>
<circle cx="42.2207" cy="59.9051" r="3" fill="#42FFC5"/>
<circle cx="42.2207" cy="48.9051" r="3" fill="#42FFC5"/>
<circle cx="42.2207" cy="37.9051" r="3" fill="#42FFC5"/>
<circle cx="42.2207" cy="59.9051" r="3" fill="#42FFC5"/>
<circle cx="42.2207" cy="48.9051" r="3" fill="#42FFC5"/>
<circle cx="64.2207" cy="37.9051" r="3" fill="#42FFC5"/>
<circle cx="64.2207" cy="59.9051" r="3" fill="#42FFC5"/>
<circle cx="64.2207" cy="48.9051" r="3" fill="#42FFC5"/>
<circle cx="53.2207" cy="37.9051" r="3" fill="#42FFC5"/>
<circle cx="53.2207" cy="59.9051" r="3" fill="#42FFC5"/>
<circle cx="53.2207" cy="48.9051" r="3" fill="#42FFC5"/>
<circle cx="53.2207" cy="37.9051" r="3" fill="#42FFC5"/>
<circle cx="53.2207" cy="59.9051" r="3" fill="#42FFC5"/>
<circle cx="53.2207" cy="48.9051" r="3" fill="#42FFC5"/>
<circle cx="75.2207" cy="37.9051" r="3" fill="#42FFC5"/>
<circle cx="75.2207" cy="48.9051" r="3" fill="#42FFC5"/>
</g>
<defs>
<filter id="filter0_d" x="25.7031" y="-128.288" width="804.816" height="802.743" filterUnits="userSpaceOnUse" color-interpolation-filters="sRGB">
<feFlood flood-opacity="0" result="BackgroundImageFix"/>
<feColorMatrix in="SourceAlpha" type="matrix" values="0 0 0 0 0 0 0 0 0 0 0 0 0 0 0 0 0 0 127 0"/>
<feOffset dy="4"/>
<feGaussianBlur stdDeviation="10"/>
<feColorMatrix type="matrix" values="0 0 0 0 0.247059 0 0 0 0 0.215686 0 0 0 0 0.682353 0 0 0 0.4 0"/>
<feBlend mode="normal" in2="BackgroundImageFix" result="effect1_dropShadow"/>
<feBlend mode="normal" in="SourceGraphic" in2="effect1_dropShadow" result="shape"/>
</filter>
<filter id="filter1_d" x="-7.5752" y="-168.546" width="787.932" height="787.638" filterUnits="userSpaceOnUse" color-interpolation-filters="sRGB">
<feFlood flood-opacity="0" result="BackgroundImageFix"/>
<feColorMatrix in="SourceAlpha" type="matrix" values="0 0 0 0 0 0 0 0 0 0 0 0 0 0 0 0 0 0 127 0"/>
<feOffset dy="4"/>
<feGaussianBlur stdDeviation="9"/>
<feColorMatrix type="matrix" values="0 0 0 0 0 0 0 0 0 0 0 0 0 0 0 0 0 0 0.4 0"/>
<feBlend mode="normal" in2="BackgroundImageFix" result="effect1_dropShadow"/>
<feBlend mode="normal" in="SourceGraphic" in2="effect1_dropShadow" result="shape"/>
</filter>
<filter id="filter2_d" x="129.034" y="12.4867" width="601.373" height="373.624" filterUnits="userSpaceOnUse" color-interpolation-filters="sRGB">
<feFlood flood-opacity="0" result="BackgroundImageFix"/>
<feColorMatrix in="SourceAlpha" type="matrix" values="0 0 0 0 0 0 0 0 0 0 0 0 0 0 0 0 0 0 127 0"/>
<feOffset dy="4"/>
<feGaussianBlur stdDeviation="8"/>
<feColorMatrix type="matrix" values="0 0 0 0 0 0 0 0 0 0 0 0 0 0 0 0 0 0 0.08 0"/>
<feBlend mode="normal" in2="BackgroundImageFix" result="effect1_dropShadow"/>
<feBlend mode="normal" in="SourceGraphic" in2="effect1_dropShadow" result="shape"/>
</filter>
<linearGradient id="paint0_linear" x1="581.713" y1="413.601" x2="190.849" y2="26.6634" gradientUnits="userSpaceOnUse">
<stop stop-color="#EE0979"/>
<stop offset="1" stop-color="#FF6A00"/>
</linearGradient>
<linearGradient id="paint1_linear" x1="196.932" y1="247.132" x2="316.991" y2="247.132" gradientUnits="userSpaceOnUse">
<stop stop-color="#FB6B14"/>
<stop offset="1" stop-color="#FDB522"/>
</linearGradient>
<linearGradient id="paint2_linear" x1="375.417" y1="323.482" x2="400.82" y2="334.942" gradientUnits="userSpaceOnUse">
<stop stop-color="#FB6B14"/>
<stop offset="1" stop-color="#FDB522"/>
</linearGradient>
<linearGradient id="paint3_linear" x1="390.393" y1="280.924" x2="381.071" y2="287.244" gradientUnits="userSpaceOnUse">
<stop offset="2.5e-07" stop-color="#EFF6FF"/>
<stop offset="1" stop-color="#8AA8DA"/>
</linearGradient>
<linearGradient id="paint4_linear" x1="252.849" y1="275.609" x2="233.338" y2="262.369" gradientUnits="userSpaceOnUse">
<stop offset="2.5e-07" stop-color="#EFF6FF"/>
<stop offset="1" stop-color="#8AA8DA"/>
</linearGradient>
<linearGradient id="paint5_linear" x1="576.345" y1="267.809" x2="615.472" y2="221.518" gradientUnits="userSpaceOnUse">
<stop stop-color="#FB6B14"/>
<stop offset="1" stop-color="#FDB522"/>
</linearGradient>
<linearGradient id="paint6_linear" x1="536.591" y1="319.811" x2="517.574" y2="314.458" gradientUnits="userSpaceOnUse">
<stop stop-color="#FB6B14"/>
<stop offset="1" stop-color="#FDB522"/>
</linearGradient>
<linearGradient id="paint7_linear" x1="603.751" y1="274.164" x2="618.61" y2="269.972" gradientUnits="userSpaceOnUse">
<stop offset="2.5e-07" stop-color="#EFF6FF"/>
<stop offset="1" stop-color="#8AA8DA"/>
</linearGradient>
<linearGradient id="paint8_linear" x1="535.061" y1="298.369" x2="535.061" y2="223.623" gradientUnits="userSpaceOnUse">
<stop offset="1.5e-07" stop-color="#EFF6FF"/>
<stop offset="1" stop-color="#C4D8FB"/>
</linearGradient>
<linearGradient id="paint9_linear" x1="535.061" y1="298.37" x2="535.061" y2="223.624" gradientUnits="userSpaceOnUse">
<stop offset="1.5e-07" stop-color="#EFF6FF"/>
<stop offset="1" stop-color="#C4D8FB"/>
</linearGradient>
<linearGradient id="paint10_linear" x1="535.061" y1="298.37" x2="535.061" y2="223.624" gradientUnits="userSpaceOnUse">
<stop offset="1.5e-07" stop-color="#EFF6FF"/>
<stop offset="1" stop-color="#C4D8FB"/>
</linearGradient>
<linearGradient id="paint11_linear" x1="535.061" y1="298.37" x2="535.061" y2="223.624" gradientUnits="userSpaceOnUse">
<stop offset="1.5e-07" stop-color="#EFF6FF"/>
<stop offset="1" stop-color="#C4D8FB"/>
</linearGradient>
<linearGradient id="paint12_linear" x1="535.061" y1="298.37" x2="535.061" y2="223.623" gradientUnits="userSpaceOnUse">
<stop offset="1.5e-07" stop-color="#EFF6FF"/>
<stop offset="1" stop-color="#C4D8FB"/>
</linearGradient>
<linearGradient id="paint13_linear" x1="535.061" y1="298.37" x2="535.061" y2="223.623" gradientUnits="userSpaceOnUse">
<stop offset="1.5e-07" stop-color="#EFF6FF"/>
<stop offset="1" stop-color="#C4D8FB"/>
</linearGradient>
<linearGradient id="paint14_linear" x1="535.061" y1="298.37" x2="535.061" y2="223.623" gradientUnits="userSpaceOnUse">
<stop offset="1.5e-07" stop-color="#EFF6FF"/>
<stop offset="1" stop-color="#C4D8FB"/>
</linearGradient>
<linearGradient id="paint15_linear" x1="535.061" y1="298.37" x2="535.061" y2="223.623" gradientUnits="userSpaceOnUse">
<stop offset="1.5e-07" stop-color="#EFF6FF"/>
<stop offset="1" stop-color="#C4D8FB"/>
</linearGradient>
<linearGradient id="paint16_linear" x1="535.061" y1="298.37" x2="535.061" y2="223.624" gradientUnits="userSpaceOnUse">
<stop offset="1.5e-07" stop-color="#EFF6FF"/>
<stop offset="1" stop-color="#C4D8FB"/>
</linearGradient>
<linearGradient id="paint17_linear" x1="591.692" y1="298.37" x2="591.692" y2="223.623" gradientUnits="userSpaceOnUse">
<stop offset="1.5e-07" stop-color="#EFF6FF"/>
<stop offset="1" stop-color="#C4D8FB"/>
</linearGradient>
<linearGradient id="paint18_linear" x1="591.692" y1="298.37" x2="591.692" y2="223.623" gradientUnits="userSpaceOnUse">
<stop offset="1.5e-07" stop-color="#EFF6FF"/>
<stop offset="1" stop-color="#C4D8FB"/>
</linearGradient>
<linearGradient id="paint19_linear" x1="591.692" y1="298.37" x2="591.692" y2="223.623" gradientUnits="userSpaceOnUse">
<stop offset="1.5e-07" stop-color="#EFF6FF"/>
<stop offset="1" stop-color="#C4D8FB"/>
</linearGradient>
<linearGradient id="paint20_linear" x1="591.692" y1="298.37" x2="591.692" y2="223.623" gradientUnits="userSpaceOnUse">
<stop offset="1.5e-07" stop-color="#EFF6FF"/>
<stop offset="1" stop-color="#C4D8FB"/>
</linearGradient>
<linearGradient id="paint21_linear" x1="591.692" y1="298.37" x2="591.692" y2="223.623" gradientUnits="userSpaceOnUse">
<stop offset="1.5e-07" stop-color="#EFF6FF"/>
<stop offset="1" stop-color="#C4D8FB"/>
</linearGradient>
<linearGradient id="paint22_linear" x1="591.692" y1="298.37" x2="591.692" y2="223.624" gradientUnits="userSpaceOnUse">
<stop offset="1.5e-07" stop-color="#EFF6FF"/>
<stop offset="1" stop-color="#C4D8FB"/>
</linearGradient>
<linearGradient id="paint23_linear" x1="591.692" y1="298.37" x2="591.692" y2="223.624" gradientUnits="userSpaceOnUse">
<stop offset="1.5e-07" stop-color="#EFF6FF"/>
<stop offset="1" stop-color="#C4D8FB"/>
</linearGradient>
<linearGradient id="paint24_linear" x1="591.692" y1="298.369" x2="591.692" y2="223.623" gradientUnits="userSpaceOnUse">
<stop offset="1.5e-07" stop-color="#EFF6FF"/>
<stop offset="1" stop-color="#C4D8FB"/>
</linearGradient>
<linearGradient id="paint25_linear" x1="591.692" y1="298.371" x2="591.692" y2="223.624" gradientUnits="userSpaceOnUse">
<stop offset="1.5e-07" stop-color="#EFF6FF"/>
<stop offset="1" stop-color="#C4D8FB"/>
</linearGradient>
<linearGradient id="paint26_linear" x1="591.692" y1="298.37" x2="591.692" y2="223.624" gradientUnits="userSpaceOnUse">
<stop offset="1.5e-07" stop-color="#EFF6FF"/>
<stop offset="1" stop-color="#C4D8FB"/>
</linearGradient>
<linearGradient id="paint27_linear" x1="591.692" y1="298.37" x2="591.692" y2="223.623" gradientUnits="userSpaceOnUse">
<stop offset="1.5e-07" stop-color="#EFF6FF"/>
<stop offset="1" stop-color="#C4D8FB"/>
</linearGradient>
<linearGradient id="paint28_linear" x1="591.692" y1="298.37" x2="591.692" y2="223.624" gradientUnits="userSpaceOnUse">
<stop offset="1.5e-07" stop-color="#EFF6FF"/>
<stop offset="1" stop-color="#C4D8FB"/>
</linearGradient>
<linearGradient id="paint29_linear" x1="591.692" y1="298.371" x2="591.692" y2="223.624" gradientUnits="userSpaceOnUse">
<stop offset="1.5e-07" stop-color="#EFF6FF"/>
<stop offset="1" stop-color="#C4D8FB"/>
</linearGradient>
<linearGradient id="paint30_linear" x1="591.692" y1="298.369" x2="591.692" y2="223.623" gradientUnits="userSpaceOnUse">
<stop offset="1.5e-07" stop-color="#EFF6FF"/>
<stop offset="1" stop-color="#C4D8FB"/>
</linearGradient>
<linearGradient id="paint31_linear" x1="591.692" y1="298.37" x2="591.692" y2="223.624" gradientUnits="userSpaceOnUse">
<stop offset="1.5e-07" stop-color="#EFF6FF"/>
<stop offset="1" stop-color="#C4D8FB"/>
</linearGradient>
<linearGradient id="paint32_linear" x1="473.867" y1="298.37" x2="473.867" y2="223.624" gradientUnits="userSpaceOnUse">
<stop offset="1.5e-07" stop-color="#EFF6FF"/>
<stop offset="1" stop-color="#C4D8FB"/>
</linearGradient>
<linearGradient id="paint33_linear" x1="473.867" y1="298.37" x2="473.867" y2="223.623" gradientUnits="userSpaceOnUse">
<stop offset="1.5e-07" stop-color="#EFF6FF"/>
<stop offset="1" stop-color="#C4D8FB"/>
</linearGradient>
<linearGradient id="paint34_linear" x1="473.867" y1="298.37" x2="473.867" y2="223.623" gradientUnits="userSpaceOnUse">
<stop offset="1.5e-07" stop-color="#EFF6FF"/>
<stop offset="1" stop-color="#C4D8FB"/>
</linearGradient>
<linearGradient id="paint35_linear" x1="473.867" y1="298.37" x2="473.867" y2="223.624" gradientUnits="userSpaceOnUse">
<stop offset="1.5e-07" stop-color="#EFF6FF"/>
<stop offset="1" stop-color="#C4D8FB"/>
</linearGradient>
<linearGradient id="paint36_linear" x1="473.867" y1="298.37" x2="473.867" y2="223.623" gradientUnits="userSpaceOnUse">
<stop offset="1.5e-07" stop-color="#EFF6FF"/>
<stop offset="1" stop-color="#C4D8FB"/>
</linearGradient>
<linearGradient id="paint37_linear" x1="473.867" y1="298.37" x2="473.867" y2="223.623" gradientUnits="userSpaceOnUse">
<stop offset="1.5e-07" stop-color="#EFF6FF"/>
<stop offset="1" stop-color="#C4D8FB"/>
</linearGradient>
<linearGradient id="paint38_linear" x1="473.867" y1="298.37" x2="473.867" y2="223.624" gradientUnits="userSpaceOnUse">
<stop offset="1.5e-07" stop-color="#EFF6FF"/>
<stop offset="1" stop-color="#C4D8FB"/>
</linearGradient>
<linearGradient id="paint39_linear" x1="367.489" y1="298.371" x2="367.489" y2="223.623" gradientUnits="userSpaceOnUse">
<stop offset="1.5e-07" stop-color="#EFF6FF"/>
<stop offset="1" stop-color="#C4D8FB"/>
</linearGradient>
<linearGradient id="paint40_linear" x1="367.489" y1="298.37" x2="367.489" y2="223.624" gradientUnits="userSpaceOnUse">
<stop offset="1.5e-07" stop-color="#EFF6FF"/>
<stop offset="1" stop-color="#C4D8FB"/>
</linearGradient>
<linearGradient id="paint41_linear" x1="367.489" y1="298.37" x2="367.489" y2="223.623" gradientUnits="userSpaceOnUse">
<stop offset="1.5e-07" stop-color="#EFF6FF"/>
<stop offset="1" stop-color="#C4D8FB"/>
</linearGradient>
<linearGradient id="paint42_linear" x1="367.489" y1="298.37" x2="367.489" y2="223.623" gradientUnits="userSpaceOnUse">
<stop offset="1.5e-07" stop-color="#EFF6FF"/>
<stop offset="1" stop-color="#C4D8FB"/>
</linearGradient>
<linearGradient id="paint43_linear" x1="367.489" y1="298.37" x2="367.489" y2="223.624" gradientUnits="userSpaceOnUse">
<stop offset="1.5e-07" stop-color="#EFF6FF"/>
<stop offset="1" stop-color="#C4D8FB"/>
</linearGradient>
<linearGradient id="paint44_linear" x1="419.387" y1="146.491" x2="395.988" y2="128.412" gradientUnits="userSpaceOnUse">
<stop stop-color="#FB6B14"/>
<stop offset="1" stop-color="#FDB522"/>
</linearGradient>
<linearGradient id="paint45_linear" x1="419.857" y1="145.881" x2="396.458" y2="127.803" gradientUnits="userSpaceOnUse">
<stop stop-color="#FB6B14"/>
<stop offset="1" stop-color="#FDB522"/>
</linearGradient>
<linearGradient id="paint46_linear" x1="371.99" y1="155.461" x2="406.586" y2="165.873" gradientUnits="userSpaceOnUse">
<stop offset="2.5e-07" stop-color="#EFF6FF"/>
<stop offset="1" stop-color="#8AA8DA"/>
</linearGradient>
<linearGradient id="paint47_linear" x1="403.134" y1="163.333" x2="423.033" y2="165.793" gradientUnits="userSpaceOnUse">
<stop offset="2.5e-07" stop-color="#EFF6FF"/>
<stop offset="1" stop-color="#8AA8DA"/>
</linearGradient>
<linearGradient id="paint48_linear" x1="431.013" y1="131.442" x2="407.614" y2="113.363" gradientUnits="userSpaceOnUse">
<stop stop-color="#FB6B14"/>
<stop offset="1" stop-color="#FDB522"/>
</linearGradient>
<linearGradient id="paint49_linear" x1="304.144" y1="318.276" x2="304.144" y2="255.53" gradientUnits="userSpaceOnUse">
<stop stop-color="#FB6B14"/>
<stop offset="1" stop-color="#FDB522"/>
</linearGradient>
<linearGradient id="paint50_linear" x1="432.825" y1="237.789" x2="432.825" y2="177.746" gradientUnits="userSpaceOnUse">
<stop stop-color="#FB6B14"/>
<stop offset="1" stop-color="#FDB522"/>
</linearGradient>
<linearGradient id="paint51_linear" x1="579.631" y1="120.087" x2="579.631" y2="19.6613" gradientUnits="userSpaceOnUse">
<stop stop-color="#FB6B14"/>
<stop offset="1" stop-color="#FDB522"/>
</linearGradient>
<linearGradient id="paint52_linear" x1="524.159" y1="180.669" x2="524.159" y2="132.619" gradientUnits="userSpaceOnUse">
<stop stop-color="#FB6B14"/>
<stop offset="1" stop-color="#FDB522"/>
</linearGradient>
<linearGradient id="paint53_linear" x1="587.103" y1="120.087" x2="587.103" y2="19.6615" gradientUnits="userSpaceOnUse">
<stop stop-color="#FB6B14"/>
<stop offset="1" stop-color="#FDB522"/>
</linearGradient>
<linearGradient id="paint54_linear" x1="175.166" y1="194.33" x2="184.98" y2="194.33" gradientUnits="userSpaceOnUse">
<stop stop-color="#FB6B14"/>
<stop offset="1" stop-color="#FDB522"/>
</linearGradient>
<linearGradient id="paint55_linear" x1="409.225" y1="278.023" x2="427.788" y2="307.969" gradientUnits="userSpaceOnUse">
<stop offset="2.5e-07" stop-color="#EFF6FF"/>
<stop offset="1" stop-color="#8AA8DA"/>
</linearGradient>
<linearGradient id="paint56_linear" x1="391.999" y1="309.129" x2="398.255" y2="313.867" gradientUnits="userSpaceOnUse">
<stop offset="2.5e-07" stop-color="#EFF6FF"/>
<stop offset="1" stop-color="#8AA8DA"/>
</linearGradient>
<linearGradient id="paint57_linear" x1="446.374" y1="304.264" x2="487.483" y2="304.264" gradientUnits="userSpaceOnUse">
<stop offset="1.5e-07" stop-color="#EFF6FF"/>
<stop offset="1" stop-color="#C4D8FB"/>
</linearGradient>
<linearGradient id="paint58_linear" x1="360.764" y1="294.16" x2="429.159" y2="294.16" gradientUnits="userSpaceOnUse">
<stop stop-color="#FB6B14"/>
<stop offset="1" stop-color="#FDB522"/>
</linearGradient>
<linearGradient id="paint59_linear" x1="637.011" y1="356.072" x2="647.864" y2="356.072" gradientUnits="userSpaceOnUse">
<stop stop-color="#FB6B14"/>
<stop offset="1" stop-color="#FDB522"/>
</linearGradient>
<linearGradient id="paint60_linear" x1="653.907" y1="361.268" x2="663.772" y2="361.268" gradientUnits="userSpaceOnUse">
<stop stop-color="#FB6B14"/>
<stop offset="1" stop-color="#FDB522"/>
</linearGradient>
<linearGradient id="paint61_linear" x1="588.104" y1="184.493" x2="639.21" y2="184.493" gradientUnits="userSpaceOnUse">
<stop offset="1.5e-07" stop-color="#EFF6FF"/>
<stop offset="1" stop-color="#C4D8FB"/>
</linearGradient>
<linearGradient id="paint62_linear" x1="516.238" y1="320.935" x2="524.752" y2="342.278" gradientUnits="userSpaceOnUse">
<stop offset="2.5e-07" stop-color="#EFF6FF"/>
<stop offset="1" stop-color="#8AA8DA"/>
</linearGradient>
<linearGradient id="paint63_linear" x1="501.413" y1="356.457" x2="512.742" y2="356.457" gradientUnits="userSpaceOnUse">
<stop stop-color="#FB6B14"/>
<stop offset="1" stop-color="#FDB522"/>
</linearGradient>
<linearGradient id="paint64_linear" x1="504.354" y1="343.372" x2="512.955" y2="343.372" gradientUnits="userSpaceOnUse">
<stop offset="1.5e-07" stop-color="#EFF6FF"/>
<stop offset="1" stop-color="#C4D8FB"/>
</linearGradient>
<linearGradient id="paint65_linear" x1="530.162" y1="338.698" x2="548.757" y2="338.698" gradientUnits="userSpaceOnUse">
<stop offset="1.5e-07" stop-color="#EFF6FF"/>
<stop offset="1" stop-color="#C4D8FB"/>
</linearGradient>
<linearGradient id="paint66_linear" x1="491.433" y1="334.129" x2="522.374" y2="334.129" gradientUnits="userSpaceOnUse">
<stop stop-color="#FB6B14"/>
<stop offset="1" stop-color="#FDB522"/>
</linearGradient>
<clipPath id="clip0">
<rect width="508.594" height="355.596" fill="white" transform="translate(168.787 13.3088)"/>
</clipPath>
</defs>
</svg>
