<svg width="31" height="31" viewBox="0 0 31 31" fill="none" xmlns="http://www.w3.org/2000/svg">
<path d="M7.71767 19.3265H29.119C29.5954 19.3265 29.9909 18.9583 30.0249 18.483L30.9977 4.86397C31.0157 4.61252 30.9283 4.36488 30.7565 4.1804C30.5847 3.99585 30.344 3.89111 30.0918 3.89111H19.3265V1.88095C19.3265 1.37938 18.9199 0.972746 18.4183 0.972746C17.9167 0.972746 17.5101 1.37938 17.5101 1.88095V3.89111H7.41845L7.16354 0.832701C7.12431 0.36207 6.73081 0 6.25849 0H0.908203C0.406633 0 0 0.406633 0 0.908203C0 1.40977 0.406633 1.81641 0.908203 1.81641H5.42282L5.6888 5.00717L6.74117 17.6369C5.10271 18.0696 3.89117 19.5641 3.89117 21.3367C3.89117 23.4467 5.60773 25.1632 7.71767 25.1632H7.86849C7.50606 25.7478 7.29608 26.4364 7.29608 27.1734C7.29608 29.2834 9.0127 30.9999 11.1226 30.9999C13.2326 30.9999 14.9491 29.2833 14.9491 27.1734C14.9491 26.4364 14.7392 25.7478 14.3768 25.1632H22.9464C22.584 25.7478 22.3741 26.4364 22.3741 27.1734C22.3741 29.2834 24.0906 30.9999 26.2006 30.9999C28.3106 30.9999 30.0271 29.2833 30.0271 27.1734C30.0271 26.4141 29.804 25.7064 29.421 25.1107C29.7739 24.9861 30.0271 24.6505 30.0271 24.255C30.0271 23.7534 29.6205 23.3468 29.1189 23.3468H7.71767C6.6093 23.3468 5.70757 22.4451 5.70757 21.3367C5.70757 20.2283 6.6093 19.3265 7.71767 19.3265ZM17.5101 5.70757V11.3618L16.1422 9.99387C15.7875 9.63924 15.2125 9.63924 14.8578 9.99387C14.5031 10.3485 14.5031 10.9236 14.8578 11.2782L17.7761 14.1965C17.9534 14.3739 18.1859 14.4625 18.4182 14.4625C18.6506 14.4625 18.8831 14.3738 19.0605 14.1965L21.9788 11.2782C22.3335 10.9236 22.3335 10.3485 21.9788 9.99387C21.6242 9.63918 21.0491 9.63918 20.6944 9.99387L19.3264 11.3618V5.70757H29.1163L28.2732 17.5102H8.55352L7.56987 5.70757H17.5101ZM26.2006 25.1633C27.309 25.1633 28.2107 26.0651 28.2107 27.1734C28.2108 28.2818 27.309 29.1836 26.2006 29.1836C25.0922 29.1836 24.1905 28.2818 24.1905 27.1734C24.1905 26.065 25.0923 25.1633 26.2006 25.1633ZM11.1226 25.1633C12.231 25.1633 13.1327 26.065 13.1327 27.1734C13.1327 28.2819 12.231 29.1836 11.1226 29.1836C10.0142 29.1836 9.11249 28.2818 9.11249 27.1734C9.11249 26.065 10.0143 25.1633 11.1226 25.1633Z" fill="#00C689"/>
</svg>
