<svg width="32" height="32" viewBox="0 0 32 32" fill="none" xmlns="http://www.w3.org/2000/svg">
<path   d="M28.5 28.5C28.5 30.2575 27.0908 31.6667 25.3333 31.6667C24.4935 31.6667 23.688 31.333 23.0942 30.7392C22.5003 30.1453 22.1667 29.3399 22.1667 28.5C22.1667 26.7425 23.5758 25.3333 25.3333 25.3333C26.1732 25.3333 26.9786 25.667 27.5725 26.2608C28.1664 26.8547 28.5 27.6602 28.5 28.5ZM9.5 25.3333C7.7425 25.3333 6.33333 26.7425 6.33333 28.5C6.33333 29.3399 6.66696 30.1453 7.26083 30.7392C7.85469 31.333 8.66015 31.6667 9.5 31.6667C11.2575 31.6667 12.6667 30.2575 12.6667 28.5C12.6667 26.7425 11.2575 25.3333 9.5 25.3333ZM9.81667 19.9975L9.76917 20.1875C9.76917 20.4092 9.94333 20.5833 10.165 20.5833H28.5V23.75H9.5C8.66015 23.75 7.85469 23.4164 7.26083 22.8225C6.66696 22.2286 6.33333 21.4232 6.33333 20.5833C6.33333 20.0292 6.47583 19.5067 6.71333 19.0633L8.86667 15.1842L3.16667 3.16667H0V0H5.1775L6.66583 3.16667H30.0833C30.9542 3.16667 31.6667 3.87917 31.6667 4.75C31.6667 5.01917 31.5875 5.28833 31.4767 5.54167L25.8083 15.7858C25.27 16.7517 24.225 17.4167 23.0375 17.4167H11.2417L9.81667 19.9975ZM11.875 14.25H14.25V11.0833H10.3867L11.875 14.25ZM15.8333 11.0833V14.25H20.5833V11.0833H15.8333ZM20.5833 9.5V6.33333H15.8333V9.5H20.5833ZM25.5075 11.0833H22.1667V14.25H23.75L25.5075 11.0833ZM28.1517 6.33333H22.1667V9.5H26.3942L28.1517 6.33333ZM8.13833 6.33333L9.62667 9.5H14.25V6.33333H8.13833Z" fill="#00C689"/>
</svg>
