<svg width="31" height="28" viewBox="0 0 31 28" fill="none" xmlns="http://www.w3.org/2000/svg">
<path d="M22.7656 7.26562C20.3931 7.26562 14.5312 6.93346 14.5312 4.54102V8.17382C14.5312 10.7713 21.4033 10.8984 22.7656 10.8984C24.1279 10.8984 31 10.7713 31 8.17382V4.54102C31 6.93346 25.1381 7.26562 22.7656 7.26562Z" fill="black"/>
<path d="M22.7656 0C21.4006 0 14.5312 0.131265 14.5312 2.7246C14.5312 5.31794 21.4006 5.44921 22.7656 5.44921C24.1306 5.44921 31 5.31794 31 2.7246C31 0.131265 24.1306 0 22.7656 0Z" fill="black"/>
<path d="M22.7656 12.7148C20.3931 12.7148 14.5312 12.3827 14.5312 9.99023V11.3719C15.9416 12.5383 17.0188 14.0877 17.6223 15.8546C19.6145 16.3067 22.0247 16.3476 22.7656 16.3476C24.1279 16.3476 31 16.2205 31 13.623V9.99023C31 12.3827 25.1381 12.7148 22.7656 12.7148Z" fill="black"/>
<path d="M22.7655 18.1639C22.0781 18.1639 19.9507 18.1322 18.0689 17.768C18.125 18.196 18.164 18.6291 18.164 19.0721C18.164 19.8608 18.0626 20.6248 17.8889 21.3613C19.8195 21.759 22.0576 21.7967 22.7655 21.7967C24.1278 21.7967 30.9999 21.6696 30.9999 19.0721V15.4393C30.9999 17.8318 25.1381 18.1639 22.7655 18.1639Z" fill="black"/>
<path d="M22.7656 23.6133C21.9863 23.6133 19.379 23.5686 17.3337 23.0482C16.8688 24.1151 16.2195 25.0815 15.4314 25.9166C17.3226 27.1639 21.7086 27.2461 22.7656 27.2461C24.1279 27.2461 30.9999 27.1189 30.9999 24.5215V20.8887C30.9999 23.2811 25.1381 23.6133 22.7656 23.6133Z" fill="black"/>
<path d="M8.17381 10.8984C3.66653 10.8984 0 14.565 0 19.0723C0 23.5795 3.66653 27.2461 8.17381 27.2461C12.6811 27.2461 16.3476 23.5795 16.3476 19.0723C16.3476 14.565 12.6811 10.8984 8.17381 10.8984ZM9.10599 23.4492C9.09812 23.4521 9.08989 23.4507 9.08201 23.4535V24.5215C9.08201 25.0235 8.67581 25.4297 8.17381 25.4297C7.67182 25.4297 7.26561 25.0235 7.26561 24.5215V23.4473C6.66747 23.2452 6.09433 22.8617 5.60439 22.2776C5.28155 21.8935 5.3312 21.3206 5.71616 20.9987C6.10021 20.6767 6.67492 20.7273 6.99509 21.1104C7.47577 21.6816 8.02214 21.9122 8.48424 21.7428C8.84164 21.6124 9.08201 21.2691 9.08201 20.8887C9.08201 20.3876 8.6749 19.9805 8.17381 19.9805C6.67141 19.9805 5.44921 18.7583 5.44921 17.2558C5.44921 16.185 6.05456 15.1416 7.26561 14.7077V13.623C7.26561 13.121 7.67182 12.7148 8.17381 12.7148C8.67581 12.7148 9.08201 13.121 9.08201 13.623V14.7093C9.55252 14.8683 10.0113 15.121 10.4203 15.5175C10.7804 15.8661 10.7893 16.4408 10.4398 16.8017C10.0922 17.1618 9.51565 17.1698 9.15558 16.8212C8.71389 16.3937 8.22607 16.2465 7.82077 16.4186C7.48382 16.5614 7.26561 16.8895 7.26561 17.2558C7.26561 17.7569 7.67273 18.164 8.17381 18.164C9.67622 18.164 10.8984 19.3862 10.8984 20.8887C10.8984 22.0301 10.1782 23.059 9.10599 23.4492Z" fill="black"/>
</svg>
