<svg width="31" height="37" viewBox="0 0 31 37" fill="none" xmlns="http://www.w3.org/2000/svg">
<path d="M17.1468 12.9402C21.2856 12.9402 24.6536 9.50074 24.6536 5.36197V2.14479H21.4364C19.071 2.14479 16.9831 3.26661 15.6061 4.98188C14.5633 2.08754 11.8164 0 8.56765 0H5.35046V3.21718C5.35046 7.35595 8.71845 10.7954 12.8572 10.7954H13.9296C13.9296 11.1261 13.9296 17.683 13.9296 17.3714C10.9336 17.7037 8.33585 19.3989 6.80518 21.8785C7.44387 21.7096 8.10238 21.5909 8.78966 21.5909H22.5925C22.8433 21.1482 22.7562 21.3013 22.7746 21.268C21.1915 19.0989 18.7786 17.6688 16.0744 17.3661V12.9402H17.1468Z" fill="#00C689"/>
<path d="M0 29.7606L6.84377 36.6043L9.53621 34.4596H23.1224L31 19.446C31 19.446 29.2009 19.446 29.1889 19.446C27.2296 19.4539 25.4867 20.6826 24.5793 22.4191L20.5294 30.17H12.3568V28.0252H19.233L21.4811 23.7356H8.78972C7.35819 23.7356 6.01239 24.2634 4.99752 25.275L0 29.7606Z" fill="#00C689"/>
</svg>
