<svg width="69" height="69" viewBox="0 0 69 69" fill="none" xmlns="http://www.w3.org/2000/svg">
<path d="M68.3953 34.0768C68.5288 52.8969 53.3803 68.2618 34.5602 68.3953C15.7401 68.5288 0.375143 53.3803 0.241671 34.5602C0.1082 15.74 15.2567 0.375141 34.0768 0.24167C52.8969 0.108198 68.2618 15.2567 68.3953 34.0768ZM3.15999 34.5395C3.28203 51.7478 17.3311 65.599 34.5395 65.477C51.7478 65.3549 65.599 51.3059 65.477 34.0975C65.3549 16.8891 51.3059 3.03795 34.0975 3.15999C16.8891 3.28203 3.03795 17.3311 3.15999 34.5395Z" fill="#00C689"/>
<path d="M21.6696 37.5894H25.4356V38.6394H20.2136V37.5894L23.9376 32.0034H20.2416V30.9674H25.4076V32.0034L21.6696 37.5894ZM29.8047 38.7654C29.2167 38.7654 28.6894 38.6674 28.2227 38.4714C27.7561 38.266 27.3874 37.986 27.1167 37.6314C26.8461 37.2674 26.6967 36.852 26.6687 36.3854H27.9847C28.0221 36.768 28.1994 37.0807 28.5167 37.3234C28.8434 37.566 29.2681 37.6874 29.7907 37.6874C30.2761 37.6874 30.6587 37.58 30.9387 37.3654C31.2187 37.1507 31.3587 36.88 31.3587 36.5534C31.3587 36.2174 31.2094 35.97 30.9107 35.8114C30.6121 35.6434 30.1501 35.48 29.5247 35.3214C28.9554 35.172 28.4887 35.0227 28.1247 34.8734C27.7701 34.7147 27.4621 34.486 27.2007 34.1874C26.9487 33.8794 26.8227 33.478 26.8227 32.9834C26.8227 32.5914 26.9394 32.232 27.1727 31.9054C27.4061 31.5787 27.7374 31.322 28.1667 31.1354C28.5961 30.9394 29.0861 30.8414 29.6367 30.8414C30.4861 30.8414 31.1721 31.056 31.6947 31.4854C32.2174 31.9147 32.4974 32.5027 32.5347 33.2494H31.2607C31.2327 32.848 31.0694 32.526 30.7707 32.2834C30.4814 32.0407 30.0894 31.9194 29.5947 31.9194C29.1374 31.9194 28.7734 32.0174 28.5027 32.2134C28.2321 32.4094 28.0967 32.666 28.0967 32.9834C28.0967 33.2354 28.1761 33.4454 28.3347 33.6134C28.5027 33.772 28.7081 33.9027 28.9507 34.0054C29.2027 34.0987 29.5481 34.206 29.9867 34.3274C30.5374 34.4767 30.9854 34.626 31.3307 34.7754C31.6761 34.9154 31.9701 35.13 32.2127 35.4194C32.4647 35.7087 32.5954 36.0867 32.6047 36.5534C32.6047 36.9734 32.4881 37.3514 32.2547 37.6874C32.0214 38.0234 31.6901 38.2894 31.2607 38.4854C30.8407 38.672 30.3554 38.7654 29.8047 38.7654ZM41.4032 34.5094C41.4032 34.752 41.3892 35.0087 41.3612 35.2794H35.2292C35.2759 36.0354 35.5325 36.628 35.9992 37.0574C36.4752 37.4774 37.0492 37.6874 37.7212 37.6874C38.2719 37.6874 38.7292 37.5614 39.0932 37.3094C39.4665 37.048 39.7279 36.7027 39.8772 36.2734H41.2492C41.0439 37.0107 40.6332 37.6127 40.0172 38.0794C39.4012 38.5367 38.6359 38.7654 37.7212 38.7654C36.9932 38.7654 36.3399 38.602 35.7612 38.2754C35.1919 37.9487 34.7439 37.4867 34.4172 36.8894C34.0905 36.2827 33.9272 35.5827 33.9272 34.7894C33.9272 33.996 34.0859 33.3007 34.4032 32.7034C34.7205 32.106 35.1639 31.6487 35.7332 31.3314C36.3119 31.0047 36.9745 30.8414 37.7212 30.8414C38.4492 30.8414 39.0932 31 39.6532 31.3174C40.2132 31.6347 40.6425 32.0734 40.9412 32.6334C41.2492 33.184 41.4032 33.8094 41.4032 34.5094ZM40.0872 34.2434C40.0872 33.758 39.9799 33.3427 39.7652 32.9974C39.5505 32.6427 39.2565 32.3767 38.8832 32.1994C38.5192 32.0127 38.1132 31.9194 37.6652 31.9194C37.0212 31.9194 36.4705 32.1247 36.0132 32.5354C35.5652 32.946 35.3085 33.5154 35.2432 34.2434H40.0872ZM42.6088 34.7894C42.6088 33.996 42.7675 33.3054 43.0848 32.7174C43.4022 32.12 43.8408 31.658 44.4008 31.3314C44.9702 31.0047 45.6188 30.8414 46.3468 30.8414C47.2895 30.8414 48.0642 31.07 48.6708 31.5274C49.2868 31.9847 49.6928 32.6194 49.8888 33.4314H48.5168C48.3862 32.9647 48.1295 32.596 47.7468 32.3254C47.3735 32.0547 46.9068 31.9194 46.3468 31.9194C45.6188 31.9194 45.0308 32.1714 44.5828 32.6754C44.1348 33.17 43.9108 33.8747 43.9108 34.7894C43.9108 35.7134 44.1348 36.4274 44.5828 36.9314C45.0308 37.4354 45.6188 37.6874 46.3468 37.6874C46.9068 37.6874 47.3735 37.5567 47.7468 37.2954C48.1202 37.034 48.3768 36.6607 48.5168 36.1754H49.8888C49.6835 36.9594 49.2728 37.5894 48.6568 38.0654C48.0408 38.532 47.2708 38.7654 46.3468 38.7654C45.6188 38.7654 44.9702 38.602 44.4008 38.2754C43.8408 37.9487 43.4022 37.4867 43.0848 36.8894C42.7675 36.292 42.6088 35.592 42.6088 34.7894Z" fill="white"/>
</svg>
