<svg xmlns="http://www.w3.org/2000/svg" viewBox="0 0 22 22" width="22" height="22">
	<style>
		tspan { white-space:pre }
		.shp0 { fill: none } 
		.shp1 { fill: #000000 } 
	</style>
	<g id="Layer">
		<path id="Layer" class="shp0" d="M-0.08 0.04L21.84 0.04L21.84 21.8L-0.08 21.8L-0.08 0.04Z" />
		<path id="Layer" fill-rule="evenodd" class="shp1" d="M20.25 6.72C20.78 7.99 21.06 9.29 21.06 10.67C21.06 12.06 20.78 13.36 20.25 14.63C19.72 15.89 18.99 16.95 18.09 17.89C17.19 18.78 16.09 19.51 14.83 20.04C13.57 20.57 12.26 20.86 10.88 20.86C9.49 20.86 8.19 20.57 6.93 20.04C5.66 19.51 4.6 18.78 3.67 17.89C2.77 16.99 2.04 15.89 1.51 14.63C0.98 13.36 0.69 12.06 0.69 10.67C0.69 9.29 0.98 7.99 1.51 6.72C2.04 5.46 2.77 4.4 3.67 3.46C4.56 2.57 5.66 1.83 6.93 1.3C8.19 0.77 9.49 0.49 10.88 0.49C12.26 0.49 13.57 0.77 14.83 1.3C16.09 1.83 17.15 2.57 18.09 3.46C18.99 4.4 19.68 5.5 20.25 6.72ZM14.18 15.36L15.85 7.5C15.93 7.17 15.89 6.93 15.73 6.76C15.56 6.6 15.4 6.6 15.16 6.68L5.34 10.47C5.13 10.55 4.97 10.63 4.89 10.76C4.81 10.88 4.81 10.96 4.85 11.04C4.89 11.12 5.01 11.2 5.21 11.24L7.74 12.02L13.57 8.35C13.73 8.23 13.85 8.23 13.93 8.27C13.97 8.31 13.97 8.35 13.89 8.43L9.17 12.75L8.96 15.36C9.13 15.36 9.29 15.28 9.49 15.11L10.71 13.93L13.24 15.81C13.77 16.09 14.06 15.93 14.18 15.36Z" />
	</g>
</svg>