<svg xmlns="http://www.w3.org/2000/svg" viewBox="0 0 22 22" width="22" height="22">
	<style>
		tspan { white-space:pre }
		.shp0 { fill: #000000 } 
	</style>
	<path id="Layer" class="shp0" d="M11 0C4.92 0 0 5 0 11.17C0 16.41 3.55 20.77 8.33 22C8.28 21.86 8.25 21.66 8.25 21.47L8.25 19.57L6.88 19.57C6.13 19.57 5.44 19.23 5.14 18.62C4.78 17.95 4.73 16.92 3.82 16.27C3.55 16.05 3.77 15.83 4.07 15.85C4.65 16.02 5.11 16.41 5.55 17C5.99 17.58 6.19 17.72 7.01 17.72C7.4 17.72 8 17.7 8.55 17.61C8.85 16.83 9.38 16.13 10.01 15.8C6.32 15.35 4.56 13.51 4.56 11C4.56 9.91 5.03 8.87 5.8 7.98C5.56 7.12 5.22 5.33 5.91 4.63C7.56 4.63 8.55 5.72 8.8 6C9.62 5.72 10.53 5.55 11.47 5.55C12.43 5.55 13.31 5.72 14.13 6C14.38 5.72 15.37 4.63 17.02 4.63C17.68 5.3 17.38 7.12 17.1 7.98C17.87 8.85 18.31 9.91 18.31 11C18.31 13.51 16.58 15.35 12.92 15.74C13.94 16.27 14.66 17.78 14.66 18.9L14.66 21.44C14.66 21.52 14.63 21.61 14.63 21.69C18.92 20.18 22 16.05 22 11.17C22 5 17.08 0 11 0L11 0Z" fill="white" />
</svg>