<svg width="22" height="22" viewBox="0 0 22 22" fill="none" xmlns="http://www.w3.org/2000/svg">
<circle cx="11" cy="11" r="11" fill="black"/>
<path d="M15.2018 8.82259L16 8.14779V8H13.2357L11.2656 12.3352L9.02474 8H6.1263V8.14779L7.05859 9.13993C7.14974 9.21326 7.19661 9.32095 7.1849 9.42864V13.3273C7.21354 13.4682 7.16276 13.6115 7.05078 13.7134L6 14.8396V14.9851H8.97656V14.8373L7.92708 13.7146C7.87085 13.6643 7.82856 13.6034 7.80349 13.5364C7.77842 13.4694 7.77126 13.3983 7.78255 13.3285V9.95565L10.3958 14.9874H10.6992L12.9466 9.95565V13.9643C12.9466 14.0697 12.9466 14.0915 12.8685 14.1614L12.0599 14.8522V15H15.9818V14.8522L15.2018 14.1774C15.1341 14.1316 15.099 14.0548 15.1133 13.9804V9.01964C15.1065 8.98282 15.1112 8.94509 15.1268 8.91041C15.1424 8.87573 15.1683 8.84539 15.2018 8.82259Z" fill="white"/>
</svg>
