<svg width="22" height="22" viewBox="0 0 22 22" fill="none" xmlns="http://www.w3.org/2000/svg">
<circle cx="11" cy="11" r="11" fill="black"/>
<path d="M17 7.18788C16.5587 7.38314 16.0785 7.52367 15.5838 7.57841C16.0974 7.26544 16.482 6.77101 16.6654 6.18788C16.1835 6.48194 15.6556 6.68815 15.105 6.79734C14.8749 6.54502 14.5966 6.344 14.2875 6.20682C13.9783 6.06964 13.645 5.99924 13.3081 6.00001C11.9453 6.00001 10.8493 7.13314 10.8493 8.52367C10.8493 8.71894 10.8724 8.91421 10.9099 9.10208C8.86925 8.99261 7.04927 7.99261 5.83932 6.46154C5.61886 6.84781 5.50332 7.28762 5.50475 7.73521C5.50475 8.61095 5.93883 9.38314 6.60077 9.83728C6.21068 9.82152 5.82972 9.71154 5.48888 9.51628V9.54734C5.48888 10.7737 6.33397 11.7899 7.46028 12.0237C7.2488 12.08 7.03126 12.1088 6.81276 12.1095C6.65269 12.1095 6.50126 12.0932 6.3484 12.071C6.6599 13.071 7.567 13.7973 8.64716 13.821C7.80207 14.5 6.74354 14.8994 5.59416 14.8994C5.38793 14.8994 5.19757 14.892 5 14.8683C6.09025 15.5858 7.38385 16 8.77695 16C13.2995 16 15.7742 12.1568 15.7742 8.82101C15.7742 8.71154 15.7742 8.60208 15.767 8.49261C16.2458 8.13314 16.6654 7.68787 17 7.18788Z" fill="white"/>
</svg>
